G04 EAGLE Gerber RS-274X export*
G75*
%MOMM*%
%FSLAX34Y34*%
%LPD*%
%INTop Copper*%
%IPPOS*%
%AMOC8*
5,1,8,0,0,1.08239X$1,22.5*%
G01*
%ADD10C,1.000000*%
%ADD11C,0.656400*%
%ADD12C,0.203200*%

G36*
X-67572Y319D02*
X-67572Y319D01*
X-67544Y316D01*
X-67476Y339D01*
X-67405Y353D01*
X-67382Y369D01*
X-67355Y378D01*
X-67300Y425D01*
X-67282Y438D01*
X-29532Y438D01*
X-29527Y439D01*
X-29522Y438D01*
X-29429Y458D01*
X-29335Y477D01*
X-29331Y480D01*
X-29326Y481D01*
X-29248Y537D01*
X-29170Y590D01*
X-29167Y594D01*
X-29163Y597D01*
X-29112Y679D01*
X-29060Y758D01*
X-29060Y763D01*
X-29057Y768D01*
X-29025Y945D01*
X-29025Y1684D01*
X-28994Y1726D01*
X-28991Y1738D01*
X-28985Y1747D01*
X-28975Y1800D01*
X-28949Y1901D01*
X-28780Y4157D01*
X-28789Y4227D01*
X-28789Y4298D01*
X-28801Y4328D01*
X-28805Y4356D01*
X-28830Y4401D01*
X-28856Y4465D01*
X-28859Y4470D01*
X-28715Y5102D01*
X-28714Y5137D01*
X-28703Y5177D01*
X-28655Y5824D01*
X-28651Y5828D01*
X-28607Y5884D01*
X-28558Y5934D01*
X-28545Y5964D01*
X-28528Y5986D01*
X-28514Y6036D01*
X-28487Y6100D01*
X-27960Y8409D01*
X-27958Y8480D01*
X-27948Y8550D01*
X-27955Y8581D01*
X-27955Y8610D01*
X-27974Y8658D01*
X-27989Y8725D01*
X-27992Y8730D01*
X-27755Y9334D01*
X-27748Y9368D01*
X-27732Y9406D01*
X-27588Y10039D01*
X-27583Y10042D01*
X-27532Y10091D01*
X-27475Y10133D01*
X-27458Y10161D01*
X-27438Y10180D01*
X-27417Y10227D01*
X-27381Y10286D01*
X-26515Y12492D01*
X-26503Y12561D01*
X-26483Y12629D01*
X-26485Y12661D01*
X-26480Y12689D01*
X-26492Y12739D01*
X-26498Y12808D01*
X-26499Y12813D01*
X-26175Y13375D01*
X-26163Y13408D01*
X-26153Y13425D01*
X-26144Y13439D01*
X-26144Y13440D01*
X-26142Y13444D01*
X-25905Y14048D01*
X-25899Y14050D01*
X-25842Y14090D01*
X-25779Y14124D01*
X-25758Y14149D01*
X-25735Y14165D01*
X-25708Y14208D01*
X-25663Y14261D01*
X-24478Y16313D01*
X-24456Y16380D01*
X-24426Y16444D01*
X-24423Y16476D01*
X-24415Y16503D01*
X-24418Y16554D01*
X-24414Y16623D01*
X-24414Y16629D01*
X-24010Y17136D01*
X-23994Y17167D01*
X-23967Y17199D01*
X-23643Y17761D01*
X-23637Y17762D01*
X-23574Y17794D01*
X-23508Y17817D01*
X-23483Y17839D01*
X-23458Y17851D01*
X-23424Y17890D01*
X-23372Y17936D01*
X-21895Y19788D01*
X-21863Y19851D01*
X-21823Y19909D01*
X-21816Y19942D01*
X-21803Y19966D01*
X-21799Y20018D01*
X-21785Y20085D01*
X-21784Y20091D01*
X-21309Y20532D01*
X-21288Y20561D01*
X-21257Y20588D01*
X-20853Y21095D01*
X-20847Y21096D01*
X-20780Y21117D01*
X-20711Y21131D01*
X-20683Y21149D01*
X-20656Y21157D01*
X-20617Y21191D01*
X-20559Y21228D01*
X-18822Y22839D01*
X-18781Y22897D01*
X-18733Y22949D01*
X-18721Y22979D01*
X-18705Y23002D01*
X-18693Y23052D01*
X-18669Y23117D01*
X-18668Y23122D01*
X-18132Y23488D01*
X-18107Y23513D01*
X-18072Y23535D01*
X-17597Y23977D01*
X-17591Y23976D01*
X-17522Y23988D01*
X-17451Y23991D01*
X-17421Y24004D01*
X-17393Y24009D01*
X-17350Y24036D01*
X-17286Y24064D01*
X-15329Y25399D01*
X-15294Y25434D01*
X-15278Y25445D01*
X-15271Y25456D01*
X-15225Y25494D01*
X-15209Y25522D01*
X-15189Y25542D01*
X-15170Y25590D01*
X-15136Y25650D01*
X-15134Y25656D01*
X-14549Y25937D01*
X-14522Y25958D01*
X-14484Y25975D01*
X-13948Y26341D01*
X-13942Y26340D01*
X-13872Y26340D01*
X-13801Y26333D01*
X-13770Y26342D01*
X-13742Y26342D01*
X-13695Y26362D01*
X-13628Y26381D01*
X-11493Y27409D01*
X-11437Y27451D01*
X-11376Y27487D01*
X-11356Y27513D01*
X-11334Y27530D01*
X-11308Y27574D01*
X-11265Y27629D01*
X-11262Y27634D01*
X-10642Y27825D01*
X-10612Y27842D01*
X-10572Y27853D01*
X-9987Y28134D01*
X-9982Y28132D01*
X-9912Y28123D01*
X-9844Y28105D01*
X-9811Y28109D01*
X-9783Y28105D01*
X-9733Y28118D01*
X-9665Y28126D01*
X-7401Y28825D01*
X-7339Y28859D01*
X-7273Y28885D01*
X-7250Y28907D01*
X-7225Y28921D01*
X-7193Y28961D01*
X-7142Y29008D01*
X-7139Y29013D01*
X-6498Y29109D01*
X-6465Y29121D01*
X-6424Y29126D01*
X-5803Y29318D01*
X-5799Y29315D01*
X-5731Y29295D01*
X-5666Y29267D01*
X-5633Y29266D01*
X-5606Y29258D01*
X-5555Y29264D01*
X-5486Y29262D01*
X-3143Y29615D01*
X-3077Y29639D01*
X-3008Y29655D01*
X-2981Y29674D01*
X-2955Y29683D01*
X-2917Y29718D01*
X-2860Y29758D01*
X-2743Y29875D01*
X-2686Y29914D01*
X-2683Y29918D01*
X-2679Y29921D01*
X-2628Y30003D01*
X-2576Y30082D01*
X-2576Y30087D01*
X-2573Y30092D01*
X-2541Y30269D01*
X-2541Y89195D01*
X-2542Y89203D01*
X-2541Y89211D01*
X-2562Y89301D01*
X-2580Y89392D01*
X-2585Y89398D01*
X-2587Y89406D01*
X-2689Y89554D01*
X-4807Y91671D01*
X-4807Y95654D01*
X-1991Y98469D01*
X1991Y98469D01*
X4807Y95654D01*
X4807Y91671D01*
X2689Y89554D01*
X2685Y89547D01*
X2679Y89543D01*
X2630Y89464D01*
X2578Y89387D01*
X2577Y89379D01*
X2573Y89373D01*
X2541Y89195D01*
X2541Y30269D01*
X2542Y30264D01*
X2541Y30259D01*
X2562Y30166D01*
X2580Y30072D01*
X2583Y30068D01*
X2584Y30063D01*
X2640Y29985D01*
X2693Y29907D01*
X2697Y29904D01*
X2700Y29900D01*
X2748Y29870D01*
X2860Y29758D01*
X2919Y29719D01*
X2973Y29673D01*
X3004Y29662D01*
X3027Y29647D01*
X3078Y29637D01*
X3143Y29615D01*
X5486Y29262D01*
X5557Y29265D01*
X5627Y29260D01*
X5658Y29270D01*
X5686Y29272D01*
X5733Y29294D01*
X5799Y29315D01*
X5803Y29318D01*
X6424Y29126D01*
X6458Y29123D01*
X6498Y29109D01*
X7139Y29013D01*
X7142Y29008D01*
X7195Y28961D01*
X7241Y28908D01*
X7270Y28893D01*
X7291Y28874D01*
X7340Y28857D01*
X7401Y28825D01*
X9665Y28126D01*
X9735Y28119D01*
X9804Y28104D01*
X9836Y28109D01*
X9864Y28106D01*
X9914Y28121D01*
X9982Y28132D01*
X9987Y28134D01*
X10572Y27853D01*
X10605Y27844D01*
X10642Y27825D01*
X11262Y27634D01*
X11265Y27629D01*
X11310Y27574D01*
X11348Y27515D01*
X11374Y27495D01*
X11392Y27474D01*
X11437Y27449D01*
X11493Y27409D01*
X13628Y26381D01*
X13696Y26363D01*
X13762Y26338D01*
X13795Y26338D01*
X13822Y26331D01*
X13873Y26339D01*
X13942Y26340D01*
X13948Y26341D01*
X14484Y25975D01*
X14516Y25962D01*
X14549Y25937D01*
X15134Y25656D01*
X15136Y25650D01*
X15172Y25590D01*
X15201Y25525D01*
X15224Y25502D01*
X15238Y25478D01*
X15280Y25447D01*
X15286Y25441D01*
X15293Y25431D01*
X15302Y25425D01*
X15329Y25399D01*
X17286Y24064D01*
X17351Y24037D01*
X17413Y24002D01*
X17445Y23997D01*
X17471Y23986D01*
X17522Y23986D01*
X17591Y23976D01*
X17597Y23977D01*
X18072Y23535D01*
X18102Y23517D01*
X18132Y23488D01*
X18668Y23122D01*
X18669Y23117D01*
X18695Y23052D01*
X18714Y22984D01*
X18734Y22957D01*
X18744Y22931D01*
X18781Y22895D01*
X18822Y22839D01*
X20559Y21228D01*
X20619Y21191D01*
X20674Y21147D01*
X20706Y21138D01*
X20730Y21123D01*
X20781Y21116D01*
X20847Y21096D01*
X20853Y21095D01*
X21257Y20588D01*
X21284Y20566D01*
X21309Y20532D01*
X21784Y20091D01*
X21785Y20085D01*
X21801Y20017D01*
X21809Y19947D01*
X21825Y19918D01*
X21831Y19891D01*
X21862Y19849D01*
X21895Y19788D01*
X23372Y17936D01*
X23426Y17891D01*
X23474Y17839D01*
X23504Y17825D01*
X23525Y17807D01*
X23575Y17792D01*
X23637Y17762D01*
X23643Y17761D01*
X23967Y17199D01*
X23990Y17173D01*
X24010Y17136D01*
X24414Y16629D01*
X24414Y16623D01*
X24420Y16553D01*
X24418Y16483D01*
X24429Y16452D01*
X24431Y16424D01*
X24455Y16378D01*
X24478Y16313D01*
X25663Y14261D01*
X25710Y14208D01*
X25750Y14150D01*
X25777Y14132D01*
X25796Y14111D01*
X25842Y14088D01*
X25899Y14050D01*
X25905Y14048D01*
X26142Y13444D01*
X26149Y13432D01*
X26152Y13420D01*
X26165Y13402D01*
X26175Y13375D01*
X26499Y12813D01*
X26498Y12808D01*
X26493Y12738D01*
X26480Y12668D01*
X26487Y12636D01*
X26485Y12608D01*
X26502Y12559D01*
X26515Y12492D01*
X27381Y10286D01*
X27419Y10227D01*
X27450Y10163D01*
X27474Y10141D01*
X27489Y10118D01*
X27532Y10089D01*
X27583Y10042D01*
X27588Y10039D01*
X27732Y9406D01*
X27746Y9375D01*
X27755Y9334D01*
X27992Y8730D01*
X27989Y8725D01*
X27975Y8656D01*
X27952Y8589D01*
X27953Y8556D01*
X27947Y8529D01*
X27957Y8478D01*
X27960Y8409D01*
X28487Y6099D01*
X28516Y6035D01*
X28537Y5968D01*
X28558Y5942D01*
X28569Y5917D01*
X28607Y5882D01*
X28651Y5828D01*
X28655Y5824D01*
X28703Y5177D01*
X28713Y5144D01*
X28715Y5102D01*
X28859Y4470D01*
X28856Y4465D01*
X28831Y4399D01*
X28798Y4336D01*
X28795Y4304D01*
X28785Y4277D01*
X28787Y4226D01*
X28780Y4157D01*
X28949Y1901D01*
X28973Y1814D01*
X28993Y1728D01*
X29000Y1718D01*
X29003Y1708D01*
X29025Y1680D01*
X29025Y945D01*
X29026Y940D01*
X29025Y935D01*
X29046Y841D01*
X29064Y748D01*
X29067Y744D01*
X29068Y739D01*
X29124Y661D01*
X29177Y583D01*
X29181Y580D01*
X29184Y575D01*
X29266Y525D01*
X29345Y473D01*
X29350Y472D01*
X29355Y470D01*
X29532Y438D01*
X67273Y438D01*
X67327Y406D01*
X67384Y362D01*
X67412Y355D01*
X67436Y341D01*
X67536Y324D01*
X67577Y314D01*
X67587Y315D01*
X67600Y313D01*
X86600Y313D01*
X86676Y329D01*
X86754Y337D01*
X86773Y348D01*
X86795Y353D01*
X86859Y397D01*
X86927Y435D01*
X86943Y454D01*
X86959Y465D01*
X86983Y503D01*
X87006Y531D01*
X87049Y554D01*
X87067Y576D01*
X87088Y590D01*
X87117Y635D01*
X87165Y691D01*
X115599Y49940D01*
X115627Y50022D01*
X115659Y50103D01*
X115659Y50117D01*
X115663Y50130D01*
X115657Y50216D01*
X115655Y50303D01*
X115650Y50316D01*
X115649Y50330D01*
X115609Y50407D01*
X115574Y50486D01*
X115564Y50497D01*
X115558Y50508D01*
X115515Y50544D01*
X115446Y50613D01*
X115338Y50686D01*
X115322Y50693D01*
X115306Y50706D01*
X114633Y51094D01*
X114612Y51142D01*
X114604Y51150D01*
X114599Y51160D01*
X114558Y51195D01*
X114484Y51268D01*
X112612Y52544D01*
X112547Y52571D01*
X112485Y52606D01*
X112453Y52611D01*
X112427Y52621D01*
X112376Y52622D01*
X112307Y52631D01*
X112301Y52631D01*
X111826Y53072D01*
X111796Y53090D01*
X111766Y53120D01*
X111230Y53485D01*
X111229Y53490D01*
X111202Y53556D01*
X111184Y53624D01*
X111164Y53650D01*
X111154Y53676D01*
X111117Y53712D01*
X111076Y53768D01*
X109337Y55380D01*
X109276Y55417D01*
X109221Y55461D01*
X109190Y55470D01*
X109166Y55485D01*
X109115Y55492D01*
X109048Y55512D01*
X109043Y55513D01*
X108638Y56020D01*
X108612Y56042D01*
X108587Y56076D01*
X108111Y56517D01*
X108111Y56522D01*
X108094Y56591D01*
X108086Y56661D01*
X108070Y56690D01*
X108064Y56717D01*
X108033Y56759D01*
X108000Y56820D01*
X106521Y58673D01*
X106467Y58719D01*
X106419Y58770D01*
X106389Y58784D01*
X106368Y58802D01*
X106318Y58817D01*
X106256Y58847D01*
X106250Y58848D01*
X105926Y59410D01*
X105903Y59436D01*
X105883Y59473D01*
X105478Y59980D01*
X105479Y59985D01*
X105473Y60056D01*
X105475Y60126D01*
X105464Y60157D01*
X105462Y60185D01*
X105438Y60231D01*
X105414Y60296D01*
X104228Y62349D01*
X104181Y62402D01*
X104141Y62460D01*
X104114Y62478D01*
X104095Y62499D01*
X104049Y62522D01*
X103991Y62560D01*
X103986Y62562D01*
X103749Y63166D01*
X103730Y63195D01*
X103716Y63235D01*
X103391Y63797D01*
X103393Y63802D01*
X103397Y63872D01*
X103410Y63942D01*
X103404Y63974D01*
X103405Y64002D01*
X103388Y64051D01*
X103375Y64119D01*
X102508Y66326D01*
X102470Y66385D01*
X102439Y66448D01*
X102414Y66471D01*
X102399Y66494D01*
X102357Y66523D01*
X102305Y66570D01*
X102301Y66573D01*
X102156Y67205D01*
X102142Y67237D01*
X102134Y67278D01*
X101897Y67882D01*
X101899Y67887D01*
X101914Y67956D01*
X101937Y68022D01*
X101935Y68055D01*
X101941Y68083D01*
X101931Y68133D01*
X101928Y68202D01*
X101400Y70514D01*
X101371Y70578D01*
X101350Y70646D01*
X101329Y70671D01*
X101317Y70697D01*
X101280Y70732D01*
X101236Y70786D01*
X101232Y70789D01*
X101183Y71437D01*
X101174Y71470D01*
X101172Y71511D01*
X101027Y72144D01*
X101030Y72149D01*
X101055Y72215D01*
X101088Y72277D01*
X101091Y72310D01*
X101101Y72336D01*
X101099Y72388D01*
X101106Y72456D01*
X100929Y74821D01*
X100909Y74889D01*
X100899Y74959D01*
X100882Y74987D01*
X100874Y75014D01*
X100842Y75054D01*
X100807Y75114D01*
X100803Y75118D01*
X100852Y75765D01*
X100847Y75800D01*
X100852Y75841D01*
X100817Y76303D01*
X100794Y76386D01*
X100775Y76470D01*
X100767Y76482D01*
X100763Y76496D01*
X100709Y76563D01*
X100659Y76634D01*
X100647Y76641D01*
X100638Y76652D01*
X100562Y76694D01*
X100489Y76740D01*
X100474Y76742D01*
X100462Y76749D01*
X100407Y76755D01*
X100311Y76772D01*
X67273Y76772D01*
X58512Y85532D01*
X58506Y85537D01*
X58501Y85543D01*
X58422Y85592D01*
X58345Y85643D01*
X58337Y85645D01*
X58331Y85649D01*
X58153Y85681D01*
X55159Y85681D01*
X52343Y88496D01*
X52343Y92479D01*
X55159Y95294D01*
X59141Y95294D01*
X61957Y92479D01*
X61957Y89484D01*
X61958Y89476D01*
X61957Y89469D01*
X61978Y89379D01*
X61996Y89288D01*
X62001Y89281D01*
X62003Y89273D01*
X62105Y89125D01*
X69229Y82002D01*
X69235Y81997D01*
X69240Y81991D01*
X69319Y81942D01*
X69396Y81891D01*
X69404Y81889D01*
X69410Y81885D01*
X69588Y81853D01*
X101165Y81853D01*
X101214Y81863D01*
X101263Y81863D01*
X101311Y81883D01*
X101362Y81893D01*
X101403Y81921D01*
X101448Y81940D01*
X101485Y81976D01*
X101527Y82005D01*
X101554Y82047D01*
X101589Y82082D01*
X101612Y82135D01*
X101637Y82174D01*
X101643Y82209D01*
X101660Y82248D01*
X101923Y83405D01*
X101925Y83475D01*
X101935Y83545D01*
X101928Y83577D01*
X101928Y83605D01*
X101910Y83653D01*
X101894Y83720D01*
X101891Y83725D01*
X102128Y84329D01*
X102134Y84364D01*
X102151Y84402D01*
X102295Y85035D01*
X102300Y85038D01*
X102351Y85086D01*
X102407Y85128D01*
X102424Y85156D01*
X102445Y85176D01*
X102465Y85223D01*
X102502Y85282D01*
X103367Y87490D01*
X103380Y87559D01*
X103400Y87627D01*
X103397Y87659D01*
X103402Y87687D01*
X103391Y87737D01*
X103385Y87806D01*
X103384Y87811D01*
X103708Y88373D01*
X103719Y88406D01*
X103741Y88442D01*
X103978Y89046D01*
X103983Y89048D01*
X104041Y89089D01*
X104103Y89122D01*
X104124Y89147D01*
X104147Y89163D01*
X104174Y89207D01*
X104219Y89260D01*
X105404Y91314D01*
X105427Y91380D01*
X105457Y91444D01*
X105459Y91477D01*
X105468Y91504D01*
X105464Y91555D01*
X105469Y91624D01*
X105468Y91629D01*
X105873Y92137D01*
X105889Y92168D01*
X105915Y92200D01*
X106240Y92762D01*
X106245Y92763D01*
X106308Y92794D01*
X106319Y92797D01*
X106324Y92800D01*
X106375Y92818D01*
X106399Y92840D01*
X106424Y92852D01*
X106458Y92891D01*
X106485Y92909D01*
X106493Y92922D01*
X106510Y92937D01*
X107988Y94791D01*
X108020Y94854D01*
X108060Y94913D01*
X108067Y94945D01*
X108080Y94970D01*
X108083Y95021D01*
X108098Y95089D01*
X108098Y95094D01*
X108574Y95536D01*
X108594Y95564D01*
X108626Y95591D01*
X109030Y96099D01*
X109035Y96099D01*
X109103Y96121D01*
X109172Y96135D01*
X109200Y96152D01*
X109226Y96161D01*
X109265Y96194D01*
X109324Y96232D01*
X111061Y97845D01*
X111103Y97902D01*
X111150Y97954D01*
X111162Y97985D01*
X111178Y98008D01*
X111190Y98058D01*
X111215Y98123D01*
X111216Y98128D01*
X111752Y98494D01*
X111776Y98519D01*
X111811Y98541D01*
X112287Y98983D01*
X112292Y98982D01*
X112362Y98994D01*
X112432Y98997D01*
X112462Y99010D01*
X112490Y99015D01*
X112534Y99042D01*
X112597Y99070D01*
X114556Y100407D01*
X114605Y100457D01*
X114660Y100502D01*
X114676Y100530D01*
X114696Y100550D01*
X114715Y100598D01*
X114749Y100659D01*
X114750Y100664D01*
X115335Y100945D01*
X115363Y100966D01*
X115401Y100983D01*
X115937Y101349D01*
X115942Y101348D01*
X116013Y101349D01*
X116083Y101341D01*
X116114Y101350D01*
X116142Y101350D01*
X116190Y101371D01*
X116256Y101390D01*
X118393Y102419D01*
X118449Y102462D01*
X118510Y102497D01*
X118530Y102523D01*
X118552Y102540D01*
X118578Y102585D01*
X118621Y102639D01*
X118623Y102644D01*
X119244Y102835D01*
X119274Y102852D01*
X119314Y102863D01*
X119899Y103145D01*
X119904Y103143D01*
X119974Y103133D01*
X120042Y103116D01*
X120075Y103120D01*
X120102Y103116D01*
X120152Y103129D01*
X120221Y103137D01*
X122487Y103837D01*
X122549Y103871D01*
X122614Y103897D01*
X122638Y103919D01*
X122663Y103933D01*
X122695Y103973D01*
X122745Y104021D01*
X122748Y104025D01*
X123390Y104122D01*
X123423Y104134D01*
X123464Y104139D01*
X124084Y104330D01*
X124089Y104328D01*
X124157Y104308D01*
X124221Y104280D01*
X124254Y104279D01*
X124281Y104271D01*
X124332Y104277D01*
X124402Y104275D01*
X126746Y104629D01*
X126813Y104653D01*
X126881Y104669D01*
X126908Y104688D01*
X126935Y104697D01*
X126973Y104733D01*
X127029Y104772D01*
X127033Y104776D01*
X127682Y104776D01*
X127716Y104783D01*
X127758Y104782D01*
X128399Y104879D01*
X128404Y104875D01*
X128468Y104845D01*
X128528Y104808D01*
X128560Y104802D01*
X128585Y104791D01*
X128637Y104789D01*
X128705Y104776D01*
X131076Y104777D01*
X131146Y104791D01*
X131216Y104797D01*
X131245Y104811D01*
X131273Y104817D01*
X131316Y104846D01*
X131378Y104876D01*
X131382Y104880D01*
X132024Y104783D01*
X132058Y104785D01*
X132099Y104777D01*
X132748Y104778D01*
X132752Y104774D01*
X132811Y104735D01*
X132865Y104689D01*
X132896Y104678D01*
X132919Y104663D01*
X132970Y104653D01*
X133035Y104631D01*
X135380Y104278D01*
X135451Y104282D01*
X135521Y104277D01*
X135552Y104287D01*
X135580Y104288D01*
X135627Y104310D01*
X135693Y104331D01*
X135698Y104334D01*
X136318Y104143D01*
X136352Y104139D01*
X136392Y104126D01*
X137033Y104030D01*
X137037Y104025D01*
X137089Y103978D01*
X137135Y103925D01*
X137164Y103909D01*
X137185Y103891D01*
X137234Y103873D01*
X137295Y103842D01*
X139562Y103144D01*
X139632Y103136D01*
X139701Y103121D01*
X139733Y103126D01*
X139761Y103123D01*
X139810Y103139D01*
X139879Y103150D01*
X139884Y103151D01*
X140469Y102870D01*
X140502Y102861D01*
X140539Y102842D01*
X141159Y102651D01*
X141162Y102646D01*
X141206Y102592D01*
X141244Y102532D01*
X141271Y102513D01*
X141289Y102491D01*
X141334Y102467D01*
X141390Y102426D01*
X143431Y101444D01*
X143518Y101422D01*
X143603Y101396D01*
X143615Y101397D01*
X143626Y101395D01*
X143660Y101400D01*
X144330Y101014D01*
X144347Y101008D01*
X144363Y100996D01*
X144498Y100931D01*
X144582Y100910D01*
X144665Y100884D01*
X144679Y100885D01*
X144692Y100882D01*
X144778Y100894D01*
X144864Y100902D01*
X144877Y100909D01*
X144891Y100911D01*
X144964Y100956D01*
X145041Y100997D01*
X145051Y101008D01*
X145062Y101015D01*
X145095Y101060D01*
X145157Y101135D01*
X173766Y150686D01*
X173790Y150756D01*
X173821Y150823D01*
X173822Y150850D01*
X173830Y150876D01*
X173825Y150950D01*
X173827Y151024D01*
X173817Y151051D01*
X173816Y151076D01*
X173791Y151123D01*
X173766Y151193D01*
X145272Y200546D01*
X145215Y200611D01*
X145161Y200679D01*
X145149Y200685D01*
X145139Y200696D01*
X145062Y200734D01*
X144986Y200776D01*
X144972Y200777D01*
X144959Y200783D01*
X144872Y200788D01*
X144786Y200797D01*
X144772Y200793D01*
X144759Y200794D01*
X144706Y200775D01*
X144613Y200749D01*
X144363Y200629D01*
X144349Y200618D01*
X144330Y200611D01*
X143657Y200223D01*
X143605Y200229D01*
X143593Y200225D01*
X143583Y200226D01*
X143532Y200208D01*
X143431Y200181D01*
X141390Y199199D01*
X141334Y199156D01*
X141273Y199120D01*
X141253Y199095D01*
X141230Y199078D01*
X141205Y199033D01*
X141162Y198979D01*
X141159Y198974D01*
X140539Y198783D01*
X140509Y198766D01*
X140469Y198755D01*
X139884Y198474D01*
X139879Y198475D01*
X139809Y198485D01*
X139740Y198503D01*
X139708Y198499D01*
X139680Y198503D01*
X139630Y198490D01*
X139562Y198481D01*
X137295Y197783D01*
X137233Y197750D01*
X137168Y197723D01*
X137144Y197701D01*
X137119Y197688D01*
X137087Y197647D01*
X137037Y197600D01*
X137033Y197595D01*
X136392Y197499D01*
X136359Y197487D01*
X136318Y197482D01*
X135698Y197291D01*
X135693Y197294D01*
X135625Y197314D01*
X135560Y197342D01*
X135528Y197342D01*
X135501Y197350D01*
X135449Y197345D01*
X135380Y197347D01*
X133035Y196994D01*
X132969Y196970D01*
X132900Y196954D01*
X132873Y196935D01*
X132847Y196926D01*
X132809Y196891D01*
X132752Y196851D01*
X132748Y196847D01*
X132099Y196848D01*
X132065Y196841D01*
X132024Y196842D01*
X131382Y196745D01*
X131378Y196749D01*
X131314Y196779D01*
X131254Y196816D01*
X131221Y196822D01*
X131196Y196834D01*
X131144Y196836D01*
X131076Y196848D01*
X128705Y196849D01*
X128636Y196835D01*
X128565Y196829D01*
X128536Y196815D01*
X128509Y196809D01*
X128466Y196780D01*
X128404Y196750D01*
X128399Y196746D01*
X127758Y196843D01*
X127723Y196842D01*
X127682Y196849D01*
X127033Y196849D01*
X127029Y196853D01*
X126971Y196892D01*
X126917Y196938D01*
X126886Y196949D01*
X126862Y196964D01*
X126812Y196974D01*
X126746Y196996D01*
X124402Y197350D01*
X124331Y197347D01*
X124261Y197352D01*
X124229Y197342D01*
X124201Y197340D01*
X124155Y197318D01*
X124089Y197297D01*
X124084Y197295D01*
X123464Y197486D01*
X123430Y197490D01*
X123390Y197503D01*
X122748Y197600D01*
X122745Y197604D01*
X122693Y197652D01*
X122647Y197705D01*
X122617Y197720D01*
X122597Y197739D01*
X122548Y197756D01*
X122487Y197788D01*
X120221Y198488D01*
X120151Y198495D01*
X120082Y198510D01*
X120049Y198505D01*
X120021Y198508D01*
X119972Y198493D01*
X119904Y198482D01*
X119899Y198480D01*
X119314Y198762D01*
X119280Y198770D01*
X119244Y198790D01*
X118624Y198981D01*
X118621Y198986D01*
X118576Y199040D01*
X118538Y199100D01*
X118512Y199119D01*
X118494Y199141D01*
X118449Y199165D01*
X118393Y199206D01*
X116256Y200235D01*
X116188Y200253D01*
X116122Y200278D01*
X116089Y200278D01*
X116062Y200285D01*
X116011Y200278D01*
X115942Y200277D01*
X115937Y200276D01*
X115401Y200642D01*
X115369Y200655D01*
X115335Y200680D01*
X114750Y200961D01*
X114749Y200966D01*
X114734Y200992D01*
X114730Y201007D01*
X114707Y201040D01*
X114684Y201092D01*
X114661Y201115D01*
X114646Y201139D01*
X114626Y201154D01*
X114614Y201171D01*
X114586Y201188D01*
X114556Y201218D01*
X112597Y202555D01*
X112532Y202582D01*
X112470Y202617D01*
X112438Y202622D01*
X112412Y202633D01*
X112361Y202633D01*
X112292Y202643D01*
X112287Y202642D01*
X111811Y203084D01*
X111782Y203102D01*
X111752Y203131D01*
X111216Y203497D01*
X111215Y203502D01*
X111188Y203568D01*
X111170Y203636D01*
X111150Y203662D01*
X111139Y203688D01*
X111103Y203725D01*
X111061Y203780D01*
X109324Y205393D01*
X109264Y205430D01*
X109208Y205474D01*
X109177Y205483D01*
X109153Y205498D01*
X109102Y205506D01*
X109035Y205526D01*
X109030Y205526D01*
X108626Y206034D01*
X108599Y206056D01*
X108574Y206089D01*
X108098Y206531D01*
X108098Y206536D01*
X108082Y206605D01*
X108074Y206675D01*
X108058Y206704D01*
X108051Y206731D01*
X108021Y206773D01*
X107988Y206834D01*
X106510Y208688D01*
X106456Y208733D01*
X106408Y208785D01*
X106378Y208799D01*
X106357Y208817D01*
X106308Y208832D01*
X106245Y208862D01*
X106236Y208864D01*
X106179Y208927D01*
X106116Y208998D01*
X106111Y209001D01*
X106108Y209004D01*
X106021Y209044D01*
X105936Y209086D01*
X105930Y209086D01*
X105926Y209088D01*
X105830Y209091D01*
X105735Y209096D01*
X105731Y209094D01*
X105725Y209095D01*
X105556Y209034D01*
X-50502Y119048D01*
X-50557Y118999D01*
X-50618Y118956D01*
X-50632Y118933D01*
X-50652Y118915D01*
X-50685Y118849D01*
X-50724Y118786D01*
X-50729Y118757D01*
X-50740Y118735D01*
X-50743Y118681D01*
X-50756Y118608D01*
X-50756Y117071D01*
X-53571Y114256D01*
X-57554Y114256D01*
X-60369Y117071D01*
X-60369Y121054D01*
X-57554Y123869D01*
X-53571Y123869D01*
X-53386Y123684D01*
X-53353Y123662D01*
X-53326Y123633D01*
X-53270Y123607D01*
X-53219Y123573D01*
X-53180Y123566D01*
X-53144Y123549D01*
X-53083Y123547D01*
X-53022Y123535D01*
X-52984Y123544D01*
X-52944Y123542D01*
X-52877Y123566D01*
X-52826Y123577D01*
X-52804Y123592D01*
X-52774Y123603D01*
X103148Y213511D01*
X103199Y213556D01*
X103256Y213594D01*
X103274Y213622D01*
X103299Y213644D01*
X103328Y213705D01*
X103366Y213762D01*
X103372Y213795D01*
X103386Y213824D01*
X103390Y213892D01*
X103402Y213959D01*
X103395Y213994D01*
X103397Y214024D01*
X103380Y214071D01*
X103367Y214136D01*
X102502Y216343D01*
X102464Y216403D01*
X102433Y216466D01*
X102408Y216488D01*
X102393Y216512D01*
X102351Y216541D01*
X102300Y216587D01*
X102295Y216590D01*
X102151Y217223D01*
X102136Y217255D01*
X102128Y217296D01*
X101891Y217900D01*
X101894Y217905D01*
X101909Y217973D01*
X101932Y218040D01*
X101930Y218073D01*
X101936Y218101D01*
X101927Y218151D01*
X101923Y218220D01*
X101396Y220532D01*
X101368Y220597D01*
X101346Y220664D01*
X101326Y220690D01*
X101314Y220715D01*
X101276Y220750D01*
X101233Y220804D01*
X101229Y220808D01*
X101180Y221455D01*
X101171Y221488D01*
X101169Y221530D01*
X101025Y222162D01*
X101028Y222167D01*
X101053Y222233D01*
X101086Y222296D01*
X101089Y222328D01*
X101099Y222355D01*
X101097Y222406D01*
X101104Y222475D01*
X100928Y224840D01*
X100909Y224908D01*
X100898Y224977D01*
X100881Y225006D01*
X100874Y225033D01*
X100842Y225073D01*
X100807Y225133D01*
X100803Y225137D01*
X100852Y225784D01*
X100847Y225818D01*
X100852Y225860D01*
X100803Y226507D01*
X100807Y226511D01*
X100842Y226573D01*
X100883Y226630D01*
X100892Y226661D01*
X100905Y226686D01*
X100911Y226737D01*
X100929Y226804D01*
X101106Y229169D01*
X101103Y229195D01*
X101107Y229218D01*
X101098Y229261D01*
X101097Y229309D01*
X101085Y229340D01*
X101082Y229367D01*
X101069Y229389D01*
X101064Y229413D01*
X101045Y229440D01*
X101030Y229476D01*
X101027Y229481D01*
X101172Y230114D01*
X101173Y230148D01*
X101183Y230188D01*
X101232Y230836D01*
X101236Y230839D01*
X101267Y230879D01*
X101271Y230881D01*
X101279Y230894D01*
X101280Y230895D01*
X101329Y230945D01*
X101342Y230975D01*
X101359Y230997D01*
X101369Y231032D01*
X101380Y231049D01*
X101384Y231074D01*
X101400Y231111D01*
X101928Y233423D01*
X101930Y233493D01*
X101940Y233563D01*
X101933Y233595D01*
X101933Y233623D01*
X101915Y233671D01*
X101899Y233738D01*
X101897Y233743D01*
X102134Y234347D01*
X102140Y234382D01*
X102156Y234420D01*
X102301Y235052D01*
X102305Y235055D01*
X102357Y235104D01*
X102413Y235146D01*
X102430Y235174D01*
X102451Y235193D01*
X102472Y235241D01*
X102508Y235299D01*
X103375Y237506D01*
X103387Y237576D01*
X103408Y237644D01*
X103405Y237676D01*
X103410Y237704D01*
X103399Y237754D01*
X103393Y237823D01*
X103391Y237828D01*
X103716Y238390D01*
X103727Y238423D01*
X103749Y238459D01*
X103986Y239063D01*
X103991Y239065D01*
X104049Y239105D01*
X104111Y239138D01*
X104133Y239164D01*
X104156Y239180D01*
X104183Y239223D01*
X104228Y239276D01*
X105414Y241329D01*
X105437Y241396D01*
X105467Y241460D01*
X105469Y241493D01*
X105478Y241519D01*
X105474Y241571D01*
X105479Y241640D01*
X105478Y241645D01*
X105883Y242152D01*
X105899Y242183D01*
X105926Y242215D01*
X106250Y242777D01*
X106256Y242778D01*
X106319Y242810D01*
X106386Y242833D01*
X106410Y242855D01*
X106435Y242867D01*
X106469Y242906D01*
X106521Y242952D01*
X108000Y244805D01*
X108032Y244868D01*
X108072Y244927D01*
X108079Y244959D01*
X108092Y244984D01*
X108096Y245035D01*
X108111Y245103D01*
X108111Y245108D01*
X108587Y245549D01*
X108607Y245578D01*
X108619Y245588D01*
X108624Y245592D01*
X108626Y245594D01*
X108638Y245605D01*
X109043Y246112D01*
X109048Y246113D01*
X109116Y246134D01*
X109185Y246148D01*
X109213Y246165D01*
X109239Y246174D01*
X109279Y246208D01*
X109337Y246245D01*
X111076Y247857D01*
X111117Y247915D01*
X111165Y247966D01*
X111176Y247997D01*
X111193Y248020D01*
X111204Y248070D01*
X111229Y248135D01*
X111230Y248140D01*
X111766Y248505D01*
X111791Y248530D01*
X111826Y248553D01*
X112301Y248994D01*
X112307Y248994D01*
X112377Y249005D01*
X112447Y249008D01*
X112477Y249021D01*
X112505Y249026D01*
X112549Y249053D01*
X112612Y249081D01*
X114484Y250357D01*
X114546Y250420D01*
X114611Y250482D01*
X114616Y250493D01*
X114624Y250500D01*
X114636Y250533D01*
X115306Y250919D01*
X115319Y250931D01*
X115338Y250939D01*
X115551Y251084D01*
X115612Y251146D01*
X115675Y251205D01*
X115681Y251217D01*
X115691Y251227D01*
X115723Y251308D01*
X115759Y251387D01*
X115760Y251401D01*
X115765Y251414D01*
X115763Y251501D01*
X115766Y251587D01*
X115761Y251601D01*
X115760Y251614D01*
X115738Y251665D01*
X115719Y251717D01*
X115716Y251732D01*
X115711Y251738D01*
X115705Y251757D01*
X87165Y301188D01*
X87116Y301243D01*
X87073Y301304D01*
X87050Y301318D01*
X87033Y301338D01*
X86966Y301370D01*
X86903Y301409D01*
X86875Y301415D01*
X86852Y301425D01*
X86799Y301428D01*
X86726Y301441D01*
X29548Y301441D01*
X29463Y301424D01*
X29377Y301412D01*
X29365Y301405D01*
X29352Y301402D01*
X29280Y301353D01*
X29206Y301308D01*
X29197Y301297D01*
X29186Y301289D01*
X29139Y301217D01*
X29087Y301146D01*
X29084Y301132D01*
X29077Y301121D01*
X29067Y301066D01*
X29042Y300972D01*
X29026Y300756D01*
X29028Y300738D01*
X29025Y300718D01*
X29025Y299941D01*
X28994Y299899D01*
X28991Y299887D01*
X28985Y299878D01*
X28975Y299825D01*
X28949Y299724D01*
X28780Y297468D01*
X28789Y297398D01*
X28789Y297327D01*
X28801Y297297D01*
X28805Y297269D01*
X28830Y297224D01*
X28856Y297160D01*
X28859Y297155D01*
X28715Y296523D01*
X28714Y296488D01*
X28703Y296448D01*
X28655Y295801D01*
X28651Y295797D01*
X28607Y295741D01*
X28558Y295691D01*
X28545Y295661D01*
X28528Y295639D01*
X28514Y295589D01*
X28487Y295526D01*
X27960Y293216D01*
X27958Y293148D01*
X27951Y293111D01*
X27952Y293106D01*
X27948Y293075D01*
X27955Y293044D01*
X27955Y293015D01*
X27973Y292967D01*
X27989Y292900D01*
X27992Y292895D01*
X27755Y292291D01*
X27748Y292257D01*
X27732Y292219D01*
X27588Y291586D01*
X27583Y291583D01*
X27532Y291534D01*
X27475Y291492D01*
X27458Y291464D01*
X27438Y291445D01*
X27417Y291398D01*
X27381Y291339D01*
X26515Y289133D01*
X26503Y289064D01*
X26483Y288996D01*
X26485Y288964D01*
X26480Y288936D01*
X26492Y288886D01*
X26498Y288817D01*
X26499Y288812D01*
X26175Y288250D01*
X26163Y288217D01*
X26142Y288181D01*
X25905Y287577D01*
X25899Y287575D01*
X25842Y287535D01*
X25779Y287501D01*
X25758Y287476D01*
X25735Y287460D01*
X25708Y287417D01*
X25663Y287364D01*
X24478Y285312D01*
X24456Y285245D01*
X24426Y285181D01*
X24423Y285149D01*
X24415Y285122D01*
X24418Y285071D01*
X24414Y285002D01*
X24414Y284996D01*
X24010Y284489D01*
X23994Y284458D01*
X23967Y284426D01*
X23643Y283864D01*
X23637Y283863D01*
X23574Y283831D01*
X23508Y283808D01*
X23483Y283786D01*
X23458Y283774D01*
X23424Y283735D01*
X23372Y283689D01*
X21895Y281837D01*
X21863Y281774D01*
X21823Y281716D01*
X21816Y281683D01*
X21803Y281659D01*
X21799Y281607D01*
X21785Y281540D01*
X21784Y281534D01*
X21309Y281093D01*
X21288Y281064D01*
X21257Y281037D01*
X20853Y280530D01*
X20847Y280529D01*
X20780Y280508D01*
X20711Y280494D01*
X20683Y280476D01*
X20656Y280468D01*
X20617Y280434D01*
X20559Y280397D01*
X18822Y278786D01*
X18811Y278770D01*
X18804Y278766D01*
X18778Y278725D01*
X18733Y278676D01*
X18721Y278646D01*
X18705Y278623D01*
X18701Y278607D01*
X18695Y278598D01*
X18688Y278558D01*
X18669Y278508D01*
X18668Y278503D01*
X18132Y278137D01*
X18107Y278112D01*
X18072Y278090D01*
X17597Y277648D01*
X17591Y277649D01*
X17522Y277637D01*
X17451Y277634D01*
X17421Y277621D01*
X17393Y277616D01*
X17350Y277589D01*
X17286Y277561D01*
X15329Y276226D01*
X15280Y276176D01*
X15225Y276131D01*
X15209Y276103D01*
X15189Y276083D01*
X15170Y276035D01*
X15136Y275975D01*
X15134Y275969D01*
X14549Y275688D01*
X14522Y275667D01*
X14484Y275650D01*
X13948Y275284D01*
X13942Y275285D01*
X13872Y275285D01*
X13801Y275292D01*
X13770Y275283D01*
X13742Y275283D01*
X13695Y275263D01*
X13628Y275244D01*
X11493Y274216D01*
X11437Y274174D01*
X11376Y274138D01*
X11356Y274112D01*
X11334Y274095D01*
X11308Y274051D01*
X11265Y273996D01*
X11262Y273991D01*
X10642Y273800D01*
X10612Y273783D01*
X10572Y273772D01*
X9987Y273491D01*
X9982Y273493D01*
X9912Y273502D01*
X9844Y273520D01*
X9811Y273516D01*
X9783Y273520D01*
X9733Y273507D01*
X9665Y273499D01*
X7401Y272800D01*
X7387Y272793D01*
X7380Y272791D01*
X7363Y272780D01*
X7339Y272766D01*
X7273Y272740D01*
X7250Y272718D01*
X7225Y272704D01*
X7193Y272664D01*
X7142Y272617D01*
X7139Y272612D01*
X6498Y272516D01*
X6465Y272504D01*
X6424Y272499D01*
X5803Y272307D01*
X5799Y272310D01*
X5731Y272330D01*
X5666Y272358D01*
X5633Y272359D01*
X5606Y272367D01*
X5555Y272361D01*
X5486Y272363D01*
X4078Y272151D01*
X4016Y272129D01*
X3952Y272115D01*
X3923Y272095D01*
X3889Y272082D01*
X3841Y272038D01*
X3787Y272001D01*
X3768Y271971D01*
X3742Y271946D01*
X3715Y271887D01*
X3680Y271831D01*
X3674Y271796D01*
X3659Y271764D01*
X3657Y271698D01*
X3646Y271634D01*
X3654Y271599D01*
X3653Y271563D01*
X3677Y271502D01*
X3692Y271439D01*
X3714Y271407D01*
X3726Y271377D01*
X3759Y271342D01*
X3795Y271291D01*
X4807Y270279D01*
X4807Y266296D01*
X1991Y263481D01*
X-1991Y263481D01*
X-4807Y266296D01*
X-4807Y270279D01*
X-3795Y271291D01*
X-3758Y271345D01*
X-3715Y271394D01*
X-3703Y271428D01*
X-3684Y271458D01*
X-3671Y271522D01*
X-3650Y271584D01*
X-3653Y271620D01*
X-3646Y271654D01*
X-3660Y271719D01*
X-3664Y271784D01*
X-3680Y271816D01*
X-3688Y271851D01*
X-3725Y271904D01*
X-3755Y271963D01*
X-3782Y271986D01*
X-3802Y272015D01*
X-3857Y272050D01*
X-3907Y272093D01*
X-3944Y272105D01*
X-3971Y272123D01*
X-4019Y272131D01*
X-4078Y272151D01*
X-5486Y272363D01*
X-5557Y272360D01*
X-5627Y272365D01*
X-5658Y272355D01*
X-5686Y272353D01*
X-5733Y272331D01*
X-5799Y272310D01*
X-5803Y272307D01*
X-6424Y272499D01*
X-6458Y272502D01*
X-6498Y272516D01*
X-7139Y272612D01*
X-7142Y272617D01*
X-7195Y272664D01*
X-7241Y272717D01*
X-7270Y272732D01*
X-7291Y272751D01*
X-7340Y272768D01*
X-7401Y272800D01*
X-9665Y273499D01*
X-9735Y273506D01*
X-9804Y273521D01*
X-9836Y273516D01*
X-9864Y273519D01*
X-9914Y273504D01*
X-9982Y273493D01*
X-9987Y273491D01*
X-10572Y273772D01*
X-10605Y273781D01*
X-10642Y273800D01*
X-11262Y273991D01*
X-11265Y273996D01*
X-11310Y274051D01*
X-11348Y274110D01*
X-11374Y274130D01*
X-11392Y274151D01*
X-11437Y274176D01*
X-11493Y274216D01*
X-13628Y275244D01*
X-13696Y275262D01*
X-13762Y275287D01*
X-13795Y275287D01*
X-13822Y275294D01*
X-13873Y275286D01*
X-13942Y275285D01*
X-13948Y275284D01*
X-14484Y275650D01*
X-14516Y275663D01*
X-14549Y275688D01*
X-15134Y275969D01*
X-15136Y275975D01*
X-15172Y276035D01*
X-15201Y276100D01*
X-15224Y276123D01*
X-15238Y276147D01*
X-15280Y276178D01*
X-15329Y276226D01*
X-17286Y277561D01*
X-17351Y277588D01*
X-17413Y277623D01*
X-17445Y277628D01*
X-17471Y277639D01*
X-17522Y277639D01*
X-17591Y277649D01*
X-17597Y277648D01*
X-18072Y278090D01*
X-18102Y278108D01*
X-18132Y278137D01*
X-18668Y278503D01*
X-18669Y278508D01*
X-18691Y278563D01*
X-18703Y278617D01*
X-18710Y278626D01*
X-18714Y278641D01*
X-18734Y278668D01*
X-18744Y278694D01*
X-18781Y278730D01*
X-18822Y278786D01*
X-20559Y280397D01*
X-20619Y280434D01*
X-20674Y280478D01*
X-20706Y280487D01*
X-20730Y280502D01*
X-20781Y280509D01*
X-20847Y280529D01*
X-20853Y280530D01*
X-21257Y281037D01*
X-21284Y281059D01*
X-21309Y281093D01*
X-21784Y281534D01*
X-21785Y281540D01*
X-21801Y281608D01*
X-21809Y281678D01*
X-21825Y281707D01*
X-21831Y281734D01*
X-21862Y281776D01*
X-21895Y281837D01*
X-23372Y283689D01*
X-23426Y283734D01*
X-23474Y283786D01*
X-23504Y283800D01*
X-23525Y283818D01*
X-23575Y283833D01*
X-23637Y283863D01*
X-23643Y283864D01*
X-23967Y284426D01*
X-23990Y284452D01*
X-24010Y284489D01*
X-24414Y284996D01*
X-24414Y285002D01*
X-24420Y285072D01*
X-24418Y285142D01*
X-24429Y285173D01*
X-24431Y285201D01*
X-24455Y285247D01*
X-24478Y285312D01*
X-25663Y287364D01*
X-25710Y287417D01*
X-25750Y287475D01*
X-25777Y287493D01*
X-25796Y287514D01*
X-25842Y287537D01*
X-25899Y287575D01*
X-25905Y287577D01*
X-26142Y288181D01*
X-26160Y288211D01*
X-26175Y288250D01*
X-26499Y288812D01*
X-26498Y288817D01*
X-26493Y288887D01*
X-26480Y288957D01*
X-26487Y288989D01*
X-26485Y289017D01*
X-26502Y289066D01*
X-26515Y289133D01*
X-27381Y291339D01*
X-27419Y291398D01*
X-27450Y291462D01*
X-27474Y291484D01*
X-27489Y291507D01*
X-27532Y291536D01*
X-27583Y291583D01*
X-27588Y291586D01*
X-27732Y292219D01*
X-27746Y292250D01*
X-27755Y292291D01*
X-27992Y292895D01*
X-27989Y292900D01*
X-27975Y292969D01*
X-27952Y293036D01*
X-27953Y293069D01*
X-27947Y293096D01*
X-27952Y293124D01*
X-27951Y293131D01*
X-27957Y293157D01*
X-27960Y293216D01*
X-28487Y295526D01*
X-28516Y295590D01*
X-28537Y295657D01*
X-28558Y295683D01*
X-28569Y295708D01*
X-28607Y295743D01*
X-28651Y295797D01*
X-28655Y295801D01*
X-28703Y296448D01*
X-28713Y296481D01*
X-28715Y296523D01*
X-28859Y297155D01*
X-28856Y297160D01*
X-28831Y297226D01*
X-28798Y297289D01*
X-28795Y297321D01*
X-28785Y297348D01*
X-28787Y297399D01*
X-28780Y297468D01*
X-28949Y299724D01*
X-28973Y299810D01*
X-28993Y299897D01*
X-29000Y299907D01*
X-29003Y299917D01*
X-29025Y299945D01*
X-29025Y300718D01*
X-29027Y300731D01*
X-29026Y300740D01*
X-29027Y300746D01*
X-29026Y300756D01*
X-29042Y300972D01*
X-29066Y301055D01*
X-29085Y301140D01*
X-29093Y301152D01*
X-29096Y301165D01*
X-29150Y301233D01*
X-29201Y301304D01*
X-29212Y301311D01*
X-29221Y301322D01*
X-29297Y301364D01*
X-29371Y301409D01*
X-29385Y301412D01*
X-29397Y301418D01*
X-29452Y301424D01*
X-29548Y301441D01*
X-86472Y301441D01*
X-86544Y301427D01*
X-86618Y301420D01*
X-86642Y301407D01*
X-86668Y301402D01*
X-86729Y301360D01*
X-86795Y301325D01*
X-86813Y301303D01*
X-86834Y301289D01*
X-86863Y301244D01*
X-86893Y301209D01*
X-86927Y301190D01*
X-86943Y301171D01*
X-86959Y301160D01*
X-86983Y301122D01*
X-87033Y301062D01*
X-96533Y284562D01*
X-96542Y284534D01*
X-96558Y284511D01*
X-96569Y284460D01*
X-115522Y251633D01*
X-115550Y251550D01*
X-115582Y251470D01*
X-115582Y251456D01*
X-115586Y251443D01*
X-115580Y251356D01*
X-115578Y251270D01*
X-115573Y251257D01*
X-115572Y251243D01*
X-115532Y251166D01*
X-115497Y251086D01*
X-115487Y251076D01*
X-115481Y251064D01*
X-115438Y251028D01*
X-115369Y250960D01*
X-115338Y250939D01*
X-115322Y250932D01*
X-115306Y250919D01*
X-114633Y250531D01*
X-114612Y250483D01*
X-114604Y250475D01*
X-114599Y250465D01*
X-114558Y250430D01*
X-114484Y250357D01*
X-112612Y249081D01*
X-112547Y249054D01*
X-112485Y249019D01*
X-112453Y249014D01*
X-112427Y249004D01*
X-112375Y249004D01*
X-112307Y248994D01*
X-112301Y248994D01*
X-111826Y248553D01*
X-111796Y248535D01*
X-111766Y248506D01*
X-111230Y248140D01*
X-111229Y248135D01*
X-111202Y248069D01*
X-111184Y248001D01*
X-111164Y247975D01*
X-111154Y247949D01*
X-111117Y247912D01*
X-111076Y247857D01*
X-109337Y246245D01*
X-109277Y246208D01*
X-109221Y246164D01*
X-109190Y246155D01*
X-109166Y246140D01*
X-109115Y246133D01*
X-109048Y246113D01*
X-109043Y246112D01*
X-108638Y245605D01*
X-108616Y245586D01*
X-108609Y245577D01*
X-108606Y245575D01*
X-108587Y245549D01*
X-108111Y245108D01*
X-108111Y245103D01*
X-108094Y245034D01*
X-108086Y244964D01*
X-108070Y244935D01*
X-108064Y244908D01*
X-108033Y244866D01*
X-108000Y244805D01*
X-106521Y242952D01*
X-106467Y242907D01*
X-106419Y242855D01*
X-106389Y242841D01*
X-106368Y242823D01*
X-106318Y242808D01*
X-106256Y242778D01*
X-106250Y242777D01*
X-105926Y242215D01*
X-105903Y242189D01*
X-105883Y242152D01*
X-105478Y241645D01*
X-105479Y241640D01*
X-105473Y241569D01*
X-105475Y241499D01*
X-105464Y241468D01*
X-105462Y241440D01*
X-105438Y241394D01*
X-105414Y241329D01*
X-104228Y239276D01*
X-104181Y239223D01*
X-104141Y239165D01*
X-104114Y239147D01*
X-104095Y239126D01*
X-104049Y239103D01*
X-103991Y239065D01*
X-103986Y239063D01*
X-103749Y238459D01*
X-103730Y238430D01*
X-103716Y238390D01*
X-103391Y237828D01*
X-103393Y237823D01*
X-103397Y237753D01*
X-103410Y237683D01*
X-103404Y237651D01*
X-103405Y237623D01*
X-103388Y237574D01*
X-103375Y237506D01*
X-102508Y235299D01*
X-102470Y235240D01*
X-102439Y235177D01*
X-102414Y235154D01*
X-102399Y235131D01*
X-102357Y235102D01*
X-102305Y235055D01*
X-102301Y235052D01*
X-102156Y234420D01*
X-102142Y234388D01*
X-102134Y234347D01*
X-101897Y233743D01*
X-101899Y233738D01*
X-101914Y233669D01*
X-101937Y233603D01*
X-101935Y233570D01*
X-101941Y233542D01*
X-101931Y233492D01*
X-101928Y233423D01*
X-101400Y231111D01*
X-101380Y231066D01*
X-101372Y231030D01*
X-101361Y231015D01*
X-101350Y230979D01*
X-101329Y230954D01*
X-101317Y230928D01*
X-101280Y230893D01*
X-101236Y230839D01*
X-101232Y230836D01*
X-101183Y230188D01*
X-101174Y230155D01*
X-101172Y230114D01*
X-101027Y229481D01*
X-101030Y229476D01*
X-101047Y229433D01*
X-101072Y229394D01*
X-101076Y229370D01*
X-101088Y229348D01*
X-101091Y229315D01*
X-101101Y229289D01*
X-101099Y229241D01*
X-101107Y229197D01*
X-101105Y229185D01*
X-101106Y229169D01*
X-100929Y226804D01*
X-100909Y226736D01*
X-100899Y226666D01*
X-100882Y226638D01*
X-100874Y226611D01*
X-100842Y226571D01*
X-100807Y226511D01*
X-100803Y226507D01*
X-100852Y225860D01*
X-100847Y225825D01*
X-100852Y225784D01*
X-100817Y225322D01*
X-100794Y225239D01*
X-100775Y225155D01*
X-100767Y225143D01*
X-100763Y225129D01*
X-100709Y225062D01*
X-100659Y224991D01*
X-100647Y224984D01*
X-100638Y224973D01*
X-100562Y224931D01*
X-100489Y224885D01*
X-100474Y224883D01*
X-100462Y224876D01*
X-100407Y224870D01*
X-100311Y224853D01*
X-11710Y224853D01*
X-10073Y223216D01*
X9750Y203393D01*
X9757Y203388D01*
X9761Y203382D01*
X9840Y203333D01*
X9917Y203282D01*
X9925Y203280D01*
X9932Y203276D01*
X10109Y203244D01*
X13104Y203244D01*
X15919Y200429D01*
X15919Y196446D01*
X13104Y193631D01*
X9121Y193631D01*
X6306Y196446D01*
X6306Y199441D01*
X6304Y199449D01*
X6306Y199456D01*
X6285Y199546D01*
X6266Y199638D01*
X6262Y199644D01*
X6260Y199652D01*
X6157Y199800D01*
X-13666Y219623D01*
X-13673Y219628D01*
X-13677Y219634D01*
X-13756Y219683D01*
X-13833Y219734D01*
X-13841Y219736D01*
X-13848Y219740D01*
X-14025Y219772D01*
X-101165Y219772D01*
X-101214Y219762D01*
X-101263Y219762D01*
X-101311Y219742D01*
X-101362Y219732D01*
X-101403Y219704D01*
X-101448Y219685D01*
X-101485Y219649D01*
X-101527Y219620D01*
X-101554Y219578D01*
X-101589Y219543D01*
X-101612Y219490D01*
X-101637Y219451D01*
X-101643Y219416D01*
X-101660Y219377D01*
X-101923Y218220D01*
X-101925Y218150D01*
X-101935Y218080D01*
X-101928Y218048D01*
X-101928Y218020D01*
X-101910Y217972D01*
X-101894Y217905D01*
X-101891Y217900D01*
X-102128Y217295D01*
X-102134Y217261D01*
X-102151Y217223D01*
X-102295Y216590D01*
X-102300Y216587D01*
X-102351Y216539D01*
X-102407Y216497D01*
X-102424Y216469D01*
X-102445Y216449D01*
X-102465Y216402D01*
X-102502Y216343D01*
X-103367Y214135D01*
X-103380Y214066D01*
X-103400Y213998D01*
X-103397Y213966D01*
X-103402Y213938D01*
X-103391Y213888D01*
X-103385Y213819D01*
X-103384Y213814D01*
X-103708Y213252D01*
X-103719Y213219D01*
X-103741Y213183D01*
X-103978Y212579D01*
X-103983Y212577D01*
X-104041Y212536D01*
X-104103Y212503D01*
X-104124Y212478D01*
X-104147Y212462D01*
X-104174Y212418D01*
X-104219Y212365D01*
X-105404Y210311D01*
X-105427Y210245D01*
X-105457Y210181D01*
X-105459Y210148D01*
X-105468Y210121D01*
X-105464Y210070D01*
X-105469Y210001D01*
X-105468Y209996D01*
X-105873Y209488D01*
X-105889Y209457D01*
X-105915Y209425D01*
X-106240Y208863D01*
X-106245Y208862D01*
X-106308Y208830D01*
X-106375Y208807D01*
X-106399Y208785D01*
X-106424Y208773D01*
X-106458Y208734D01*
X-106510Y208688D01*
X-107988Y206834D01*
X-108020Y206771D01*
X-108060Y206712D01*
X-108067Y206680D01*
X-108080Y206655D01*
X-108083Y206604D01*
X-108098Y206536D01*
X-108098Y206531D01*
X-108574Y206089D01*
X-108594Y206061D01*
X-108626Y206034D01*
X-109030Y205526D01*
X-109035Y205526D01*
X-109103Y205504D01*
X-109172Y205490D01*
X-109200Y205473D01*
X-109226Y205464D01*
X-109265Y205431D01*
X-109324Y205393D01*
X-111061Y203780D01*
X-111103Y203723D01*
X-111150Y203671D01*
X-111162Y203640D01*
X-111178Y203617D01*
X-111190Y203567D01*
X-111215Y203502D01*
X-111216Y203497D01*
X-111752Y203131D01*
X-111776Y203106D01*
X-111811Y203084D01*
X-112287Y202642D01*
X-112292Y202643D01*
X-112362Y202631D01*
X-112432Y202628D01*
X-112462Y202615D01*
X-112490Y202610D01*
X-112534Y202583D01*
X-112597Y202555D01*
X-114556Y201218D01*
X-114591Y201182D01*
X-114629Y201156D01*
X-114640Y201140D01*
X-114660Y201123D01*
X-114676Y201095D01*
X-114696Y201075D01*
X-114715Y201027D01*
X-114724Y201010D01*
X-114738Y200988D01*
X-114739Y200984D01*
X-114749Y200967D01*
X-114750Y200961D01*
X-115335Y200680D01*
X-115363Y200659D01*
X-115401Y200642D01*
X-115937Y200276D01*
X-115942Y200277D01*
X-116013Y200276D01*
X-116083Y200284D01*
X-116114Y200275D01*
X-116142Y200275D01*
X-116190Y200254D01*
X-116256Y200235D01*
X-118393Y199206D01*
X-118449Y199163D01*
X-118510Y199128D01*
X-118530Y199102D01*
X-118552Y199085D01*
X-118578Y199040D01*
X-118621Y198986D01*
X-118623Y198981D01*
X-119244Y198790D01*
X-119274Y198773D01*
X-119314Y198762D01*
X-119899Y198480D01*
X-119904Y198482D01*
X-119974Y198492D01*
X-120042Y198509D01*
X-120075Y198505D01*
X-120102Y198509D01*
X-120152Y198496D01*
X-120221Y198488D01*
X-122487Y197788D01*
X-122549Y197754D01*
X-122614Y197728D01*
X-122638Y197706D01*
X-122663Y197692D01*
X-122695Y197652D01*
X-122745Y197604D01*
X-122748Y197600D01*
X-123390Y197503D01*
X-123423Y197491D01*
X-123464Y197486D01*
X-124084Y197295D01*
X-124089Y197297D01*
X-124157Y197317D01*
X-124221Y197345D01*
X-124254Y197346D01*
X-124281Y197354D01*
X-124332Y197348D01*
X-124402Y197350D01*
X-126746Y196996D01*
X-126813Y196972D01*
X-126881Y196956D01*
X-126908Y196937D01*
X-126935Y196928D01*
X-126973Y196892D01*
X-127029Y196853D01*
X-127033Y196849D01*
X-127682Y196849D01*
X-127716Y196842D01*
X-127758Y196843D01*
X-128399Y196746D01*
X-128404Y196750D01*
X-128468Y196780D01*
X-128528Y196817D01*
X-128560Y196823D01*
X-128585Y196834D01*
X-128637Y196836D01*
X-128705Y196849D01*
X-131076Y196848D01*
X-131146Y196834D01*
X-131216Y196828D01*
X-131245Y196814D01*
X-131273Y196808D01*
X-131316Y196779D01*
X-131378Y196749D01*
X-131382Y196745D01*
X-132024Y196842D01*
X-132058Y196840D01*
X-132099Y196848D01*
X-132748Y196847D01*
X-132752Y196851D01*
X-132811Y196890D01*
X-132865Y196936D01*
X-132896Y196947D01*
X-132919Y196962D01*
X-132970Y196972D01*
X-133035Y196994D01*
X-135380Y197347D01*
X-135451Y197343D01*
X-135521Y197348D01*
X-135552Y197338D01*
X-135580Y197337D01*
X-135627Y197315D01*
X-135693Y197294D01*
X-135698Y197291D01*
X-136318Y197482D01*
X-136352Y197486D01*
X-136392Y197499D01*
X-137033Y197595D01*
X-137037Y197600D01*
X-137089Y197647D01*
X-137135Y197700D01*
X-137164Y197716D01*
X-137185Y197734D01*
X-137234Y197752D01*
X-137295Y197783D01*
X-139562Y198481D01*
X-139632Y198489D01*
X-139701Y198504D01*
X-139733Y198499D01*
X-139761Y198502D01*
X-139810Y198486D01*
X-139879Y198475D01*
X-139884Y198474D01*
X-140469Y198755D01*
X-140502Y198764D01*
X-140539Y198783D01*
X-141159Y198974D01*
X-141162Y198979D01*
X-141206Y199033D01*
X-141244Y199093D01*
X-141271Y199112D01*
X-141289Y199134D01*
X-141334Y199158D01*
X-141390Y199199D01*
X-143431Y200181D01*
X-143518Y200203D01*
X-143603Y200229D01*
X-143615Y200228D01*
X-143626Y200230D01*
X-143660Y200225D01*
X-144330Y200611D01*
X-144347Y200617D01*
X-144363Y200629D01*
X-144414Y200653D01*
X-144498Y200675D01*
X-144581Y200701D01*
X-144594Y200700D01*
X-144608Y200703D01*
X-144694Y200690D01*
X-144780Y200682D01*
X-144792Y200676D01*
X-144806Y200674D01*
X-144880Y200629D01*
X-144957Y200588D01*
X-144966Y200576D01*
X-144978Y200570D01*
X-145010Y200525D01*
X-145073Y200450D01*
X-163963Y167733D01*
X-163981Y167725D01*
X-164002Y167704D01*
X-164027Y167690D01*
X-164090Y167613D01*
X-164120Y167582D01*
X-164124Y167572D01*
X-164133Y167562D01*
X-173633Y151062D01*
X-173657Y150989D01*
X-173688Y150918D01*
X-173688Y150895D01*
X-173696Y150873D01*
X-173690Y150796D01*
X-173691Y150719D01*
X-173681Y150695D01*
X-173680Y150675D01*
X-173659Y150635D01*
X-173640Y150583D01*
X-173639Y150578D01*
X-173637Y150576D01*
X-173633Y150563D01*
X-164133Y134063D01*
X-164114Y134042D01*
X-164101Y134015D01*
X-164048Y133968D01*
X-164001Y133914D01*
X-163975Y133902D01*
X-163954Y133882D01*
X-163886Y133859D01*
X-163822Y133828D01*
X-163793Y133827D01*
X-163775Y133821D01*
X-144961Y101235D01*
X-144958Y101231D01*
X-144956Y101226D01*
X-144891Y101156D01*
X-144829Y101084D01*
X-144824Y101082D01*
X-144820Y101078D01*
X-144734Y101038D01*
X-144648Y100997D01*
X-144643Y100997D01*
X-144638Y100995D01*
X-144543Y100992D01*
X-144448Y100987D01*
X-144443Y100988D01*
X-144438Y100988D01*
X-144268Y101049D01*
X-143657Y101402D01*
X-143605Y101396D01*
X-143593Y101400D01*
X-143583Y101399D01*
X-143532Y101417D01*
X-143431Y101444D01*
X-141390Y102426D01*
X-141334Y102469D01*
X-141273Y102505D01*
X-141253Y102530D01*
X-141230Y102547D01*
X-141204Y102592D01*
X-141162Y102646D01*
X-141159Y102651D01*
X-140539Y102842D01*
X-140509Y102859D01*
X-140469Y102870D01*
X-139884Y103151D01*
X-139879Y103150D01*
X-139809Y103140D01*
X-139740Y103122D01*
X-139708Y103126D01*
X-139680Y103122D01*
X-139630Y103135D01*
X-139562Y103144D01*
X-137295Y103842D01*
X-137233Y103875D01*
X-137168Y103902D01*
X-137144Y103924D01*
X-137119Y103937D01*
X-137087Y103978D01*
X-137037Y104025D01*
X-137033Y104030D01*
X-136392Y104126D01*
X-136359Y104138D01*
X-136318Y104143D01*
X-135698Y104334D01*
X-135693Y104331D01*
X-135625Y104311D01*
X-135560Y104283D01*
X-135528Y104283D01*
X-135501Y104275D01*
X-135449Y104280D01*
X-135380Y104278D01*
X-133035Y104631D01*
X-132969Y104655D01*
X-132900Y104671D01*
X-132873Y104690D01*
X-132847Y104699D01*
X-132809Y104734D01*
X-132752Y104774D01*
X-132748Y104778D01*
X-132099Y104777D01*
X-132065Y104784D01*
X-132024Y104783D01*
X-131382Y104880D01*
X-131378Y104876D01*
X-131314Y104846D01*
X-131254Y104809D01*
X-131221Y104803D01*
X-131196Y104791D01*
X-131144Y104789D01*
X-131076Y104777D01*
X-128705Y104776D01*
X-128636Y104790D01*
X-128565Y104796D01*
X-128536Y104810D01*
X-128509Y104816D01*
X-128466Y104845D01*
X-128404Y104875D01*
X-128399Y104879D01*
X-127758Y104782D01*
X-127723Y104783D01*
X-127682Y104776D01*
X-127033Y104776D01*
X-127029Y104772D01*
X-126971Y104733D01*
X-126917Y104687D01*
X-126886Y104676D01*
X-126862Y104661D01*
X-126812Y104651D01*
X-126746Y104629D01*
X-124402Y104275D01*
X-124331Y104278D01*
X-124261Y104273D01*
X-124229Y104283D01*
X-124201Y104285D01*
X-124155Y104307D01*
X-124089Y104328D01*
X-124084Y104330D01*
X-123464Y104139D01*
X-123430Y104135D01*
X-123390Y104122D01*
X-122748Y104025D01*
X-122745Y104021D01*
X-122693Y103973D01*
X-122647Y103920D01*
X-122617Y103905D01*
X-122597Y103886D01*
X-122548Y103869D01*
X-122487Y103837D01*
X-120221Y103137D01*
X-120151Y103130D01*
X-120082Y103115D01*
X-120049Y103120D01*
X-120021Y103117D01*
X-119972Y103132D01*
X-119904Y103143D01*
X-119899Y103145D01*
X-119314Y102863D01*
X-119280Y102855D01*
X-119244Y102835D01*
X-118623Y102644D01*
X-118621Y102639D01*
X-118576Y102584D01*
X-118538Y102525D01*
X-118512Y102506D01*
X-118494Y102484D01*
X-118449Y102460D01*
X-118393Y102419D01*
X-116256Y101390D01*
X-116188Y101372D01*
X-116122Y101347D01*
X-116089Y101347D01*
X-116062Y101340D01*
X-116011Y101347D01*
X-115942Y101348D01*
X-115937Y101349D01*
X-115401Y100983D01*
X-115369Y100970D01*
X-115335Y100945D01*
X-114750Y100664D01*
X-114749Y100659D01*
X-114713Y100598D01*
X-114684Y100533D01*
X-114661Y100510D01*
X-114646Y100486D01*
X-114605Y100455D01*
X-114556Y100407D01*
X-112597Y99070D01*
X-112532Y99043D01*
X-112470Y99008D01*
X-112438Y99003D01*
X-112412Y98992D01*
X-112361Y98992D01*
X-112292Y98982D01*
X-112287Y98983D01*
X-111811Y98541D01*
X-111782Y98523D01*
X-111752Y98494D01*
X-111216Y98128D01*
X-111215Y98123D01*
X-111188Y98057D01*
X-111170Y97989D01*
X-111150Y97963D01*
X-111139Y97937D01*
X-111103Y97900D01*
X-111061Y97845D01*
X-109324Y96232D01*
X-109264Y96195D01*
X-109208Y96151D01*
X-109177Y96142D01*
X-109153Y96127D01*
X-109102Y96119D01*
X-109035Y96099D01*
X-109030Y96099D01*
X-108626Y95591D01*
X-108599Y95569D01*
X-108574Y95536D01*
X-108098Y95094D01*
X-108098Y95089D01*
X-108082Y95020D01*
X-108074Y94950D01*
X-108058Y94921D01*
X-108051Y94894D01*
X-108021Y94852D01*
X-107988Y94791D01*
X-106510Y92937D01*
X-106485Y92915D01*
X-106470Y92895D01*
X-106444Y92879D01*
X-106408Y92840D01*
X-106378Y92826D01*
X-106357Y92808D01*
X-106308Y92793D01*
X-106245Y92763D01*
X-106179Y92745D01*
X-106170Y92745D01*
X-106162Y92741D01*
X-106071Y92739D01*
X-105979Y92733D01*
X-105971Y92736D01*
X-105962Y92736D01*
X-105793Y92797D01*
X-93959Y99689D01*
X-93904Y99737D01*
X-93845Y99779D01*
X-93830Y99803D01*
X-93809Y99822D01*
X-93777Y99887D01*
X-93739Y99950D01*
X-93733Y99979D01*
X-93722Y100002D01*
X-93720Y100055D01*
X-93707Y100127D01*
X-93707Y102004D01*
X-90891Y104819D01*
X-86909Y104819D01*
X-84093Y102004D01*
X-84093Y98021D01*
X-86909Y95206D01*
X-90902Y95206D01*
X-90922Y95228D01*
X-90977Y95253D01*
X-91027Y95286D01*
X-91067Y95294D01*
X-91105Y95311D01*
X-91165Y95312D01*
X-91224Y95324D01*
X-91264Y95315D01*
X-91305Y95316D01*
X-91370Y95293D01*
X-91420Y95282D01*
X-91444Y95266D01*
X-91474Y95255D01*
X-103167Y88446D01*
X-103170Y88443D01*
X-103174Y88442D01*
X-103245Y88376D01*
X-103316Y88313D01*
X-103318Y88309D01*
X-103321Y88306D01*
X-103362Y88219D01*
X-103403Y88132D01*
X-103403Y88128D01*
X-103405Y88124D01*
X-103408Y88028D01*
X-103413Y87932D01*
X-103411Y87928D01*
X-103412Y87924D01*
X-103378Y87831D01*
X-103385Y87806D01*
X-103390Y87736D01*
X-103402Y87666D01*
X-103396Y87634D01*
X-103398Y87606D01*
X-103381Y87557D01*
X-103367Y87490D01*
X-102502Y85282D01*
X-102464Y85222D01*
X-102433Y85159D01*
X-102408Y85137D01*
X-102393Y85113D01*
X-102351Y85084D01*
X-102300Y85038D01*
X-102295Y85035D01*
X-102151Y84402D01*
X-102136Y84370D01*
X-102128Y84329D01*
X-101891Y83725D01*
X-101894Y83720D01*
X-101909Y83652D01*
X-101932Y83585D01*
X-101930Y83552D01*
X-101936Y83524D01*
X-101927Y83474D01*
X-101923Y83405D01*
X-101396Y81093D01*
X-101367Y81028D01*
X-101346Y80961D01*
X-101326Y80935D01*
X-101314Y80910D01*
X-101276Y80875D01*
X-101233Y80821D01*
X-101229Y80817D01*
X-101180Y80170D01*
X-101171Y80137D01*
X-101169Y80095D01*
X-101025Y79463D01*
X-101028Y79458D01*
X-101053Y79392D01*
X-101086Y79329D01*
X-101089Y79297D01*
X-101099Y79270D01*
X-101097Y79219D01*
X-101104Y79150D01*
X-100928Y76785D01*
X-100909Y76717D01*
X-100898Y76648D01*
X-100881Y76619D01*
X-100874Y76592D01*
X-100842Y76552D01*
X-100807Y76492D01*
X-100803Y76488D01*
X-100852Y75841D01*
X-100847Y75807D01*
X-100852Y75765D01*
X-100803Y75118D01*
X-100807Y75114D01*
X-100842Y75052D01*
X-100883Y74995D01*
X-100892Y74964D01*
X-100905Y74939D01*
X-100911Y74888D01*
X-100929Y74821D01*
X-101106Y72456D01*
X-101098Y72386D01*
X-101097Y72316D01*
X-101085Y72285D01*
X-101082Y72258D01*
X-101056Y72213D01*
X-101030Y72149D01*
X-101027Y72144D01*
X-101172Y71511D01*
X-101173Y71477D01*
X-101183Y71437D01*
X-101232Y70789D01*
X-101236Y70786D01*
X-101280Y70730D01*
X-101329Y70680D01*
X-101342Y70650D01*
X-101359Y70628D01*
X-101373Y70578D01*
X-101400Y70514D01*
X-101928Y68202D01*
X-101930Y68132D01*
X-101940Y68062D01*
X-101933Y68030D01*
X-101933Y68002D01*
X-101915Y67954D01*
X-101899Y67887D01*
X-101897Y67882D01*
X-102134Y67278D01*
X-102140Y67243D01*
X-102156Y67205D01*
X-102301Y66573D01*
X-102305Y66570D01*
X-102357Y66521D01*
X-102413Y66479D01*
X-102430Y66451D01*
X-102451Y66432D01*
X-102472Y66384D01*
X-102508Y66326D01*
X-103375Y64119D01*
X-103387Y64049D01*
X-103408Y63981D01*
X-103405Y63949D01*
X-103410Y63921D01*
X-103399Y63871D01*
X-103393Y63802D01*
X-103391Y63797D01*
X-103716Y63235D01*
X-103727Y63202D01*
X-103749Y63166D01*
X-103986Y62562D01*
X-103991Y62560D01*
X-104049Y62520D01*
X-104111Y62487D01*
X-104133Y62461D01*
X-104155Y62445D01*
X-104183Y62402D01*
X-104228Y62349D01*
X-105414Y60296D01*
X-105437Y60229D01*
X-105467Y60165D01*
X-105469Y60132D01*
X-105478Y60106D01*
X-105474Y60054D01*
X-105479Y59985D01*
X-105478Y59980D01*
X-105883Y59473D01*
X-105899Y59442D01*
X-105926Y59410D01*
X-106250Y58848D01*
X-106256Y58847D01*
X-106319Y58815D01*
X-106386Y58792D01*
X-106410Y58770D01*
X-106435Y58758D01*
X-106469Y58719D01*
X-106521Y58673D01*
X-108000Y56820D01*
X-108032Y56757D01*
X-108072Y56698D01*
X-108079Y56666D01*
X-108092Y56641D01*
X-108096Y56590D01*
X-108111Y56522D01*
X-108111Y56517D01*
X-108587Y56076D01*
X-108607Y56047D01*
X-108638Y56020D01*
X-109043Y55513D01*
X-109048Y55512D01*
X-109116Y55491D01*
X-109185Y55477D01*
X-109213Y55460D01*
X-109239Y55451D01*
X-109279Y55417D01*
X-109337Y55380D01*
X-111076Y53768D01*
X-111117Y53710D01*
X-111165Y53659D01*
X-111176Y53628D01*
X-111193Y53605D01*
X-111204Y53555D01*
X-111229Y53490D01*
X-111230Y53485D01*
X-111766Y53119D01*
X-111791Y53095D01*
X-111826Y53072D01*
X-112301Y52631D01*
X-112307Y52631D01*
X-112377Y52620D01*
X-112447Y52617D01*
X-112477Y52604D01*
X-112505Y52599D01*
X-112549Y52572D01*
X-112612Y52544D01*
X-114484Y51268D01*
X-114546Y51205D01*
X-114611Y51143D01*
X-114616Y51132D01*
X-114624Y51125D01*
X-114636Y51092D01*
X-115228Y50751D01*
X-115232Y50748D01*
X-115237Y50746D01*
X-115307Y50682D01*
X-115378Y50619D01*
X-115381Y50614D01*
X-115385Y50610D01*
X-115424Y50524D01*
X-115466Y50438D01*
X-115466Y50433D01*
X-115468Y50428D01*
X-115471Y50333D01*
X-115476Y50238D01*
X-115474Y50233D01*
X-115475Y50228D01*
X-115414Y50058D01*
X-96580Y17437D01*
X-96588Y17418D01*
X-96589Y17346D01*
X-96598Y17276D01*
X-96590Y17248D01*
X-96591Y17219D01*
X-96555Y17125D01*
X-96544Y17084D01*
X-96537Y17076D01*
X-96533Y17063D01*
X-87033Y563D01*
X-86981Y505D01*
X-86935Y442D01*
X-86916Y431D01*
X-86901Y414D01*
X-86831Y381D01*
X-86764Y341D01*
X-86740Y337D01*
X-86722Y328D01*
X-86677Y326D01*
X-86600Y313D01*
X-67600Y313D01*
X-67572Y319D01*
G37*
G36*
X131941Y198380D02*
X131941Y198380D01*
X131984Y198379D01*
X135977Y198979D01*
X136007Y198990D01*
X136050Y198996D01*
X139909Y200185D01*
X139937Y200200D01*
X139978Y200212D01*
X143616Y201963D01*
X143638Y201979D01*
X143664Y201989D01*
X143717Y202039D01*
X143775Y202083D01*
X143788Y202106D01*
X143808Y202125D01*
X143838Y202192D01*
X143874Y202255D01*
X143877Y202282D01*
X143888Y202307D01*
X143889Y202380D01*
X143898Y202453D01*
X143890Y202479D01*
X143890Y202506D01*
X143854Y202605D01*
X143842Y202644D01*
X143836Y202651D01*
X143832Y202662D01*
X116832Y249462D01*
X116814Y249482D01*
X116803Y249507D01*
X116749Y249556D01*
X116701Y249611D01*
X116676Y249623D01*
X116656Y249641D01*
X116587Y249665D01*
X116521Y249697D01*
X116494Y249698D01*
X116469Y249707D01*
X116396Y249702D01*
X116323Y249706D01*
X116297Y249696D01*
X116270Y249695D01*
X116174Y249651D01*
X116136Y249636D01*
X116129Y249630D01*
X116119Y249625D01*
X112782Y247352D01*
X112760Y247329D01*
X112724Y247305D01*
X109763Y244560D01*
X109744Y244534D01*
X109712Y244505D01*
X107194Y241349D01*
X107179Y241321D01*
X107152Y241288D01*
X105132Y237791D01*
X105122Y237761D01*
X105099Y237724D01*
X103623Y233966D01*
X103618Y233935D01*
X103601Y233895D01*
X102701Y229959D01*
X102701Y229927D01*
X102690Y229885D01*
X102387Y225859D01*
X102390Y225835D01*
X102387Y225815D01*
X102389Y225806D01*
X102387Y225784D01*
X102688Y221758D01*
X102696Y221727D01*
X102699Y221684D01*
X103596Y217747D01*
X103609Y217718D01*
X103618Y217676D01*
X105092Y213917D01*
X105109Y213890D01*
X105124Y213849D01*
X107142Y210352D01*
X107163Y210328D01*
X107184Y210290D01*
X109700Y207133D01*
X109725Y207112D01*
X109751Y207078D01*
X112710Y204331D01*
X112737Y204314D01*
X112768Y204284D01*
X116104Y202009D01*
X116133Y201996D01*
X116168Y201971D01*
X119806Y200218D01*
X119836Y200211D01*
X119875Y200191D01*
X123733Y199000D01*
X123765Y198997D01*
X123806Y198983D01*
X127798Y198380D01*
X127830Y198382D01*
X127872Y198374D01*
X131910Y198373D01*
X131941Y198380D01*
G37*
G36*
X-127872Y198374D02*
X-127872Y198374D01*
X-127841Y198381D01*
X-127798Y198380D01*
X-123806Y198983D01*
X-123776Y198994D01*
X-123733Y199000D01*
X-119875Y200191D01*
X-119847Y200206D01*
X-119806Y200218D01*
X-116168Y201971D01*
X-116143Y201991D01*
X-116104Y202009D01*
X-112768Y204284D01*
X-112746Y204307D01*
X-112710Y204331D01*
X-109751Y207078D01*
X-109732Y207104D01*
X-109700Y207133D01*
X-107184Y210290D01*
X-107169Y210319D01*
X-107142Y210352D01*
X-105124Y213849D01*
X-105114Y213880D01*
X-105092Y213917D01*
X-103618Y217676D01*
X-103612Y217707D01*
X-103596Y217747D01*
X-102699Y221684D01*
X-102698Y221716D01*
X-102688Y221758D01*
X-102387Y225784D01*
X-102391Y225816D01*
X-102390Y225832D01*
X-102387Y225848D01*
X-102388Y225852D01*
X-102387Y225859D01*
X-102690Y229885D01*
X-102699Y229916D01*
X-102701Y229959D01*
X-103601Y233895D01*
X-103614Y233924D01*
X-103623Y233966D01*
X-105099Y237724D01*
X-105117Y237751D01*
X-105132Y237791D01*
X-107152Y241288D01*
X-107173Y241311D01*
X-107194Y241349D01*
X-109712Y244505D01*
X-109737Y244526D01*
X-109763Y244560D01*
X-112724Y247305D01*
X-112751Y247322D01*
X-112782Y247352D01*
X-116119Y249625D01*
X-116144Y249636D01*
X-116165Y249653D01*
X-116235Y249674D01*
X-116302Y249702D01*
X-116330Y249702D01*
X-116356Y249710D01*
X-116428Y249702D01*
X-116501Y249701D01*
X-116526Y249691D01*
X-116553Y249688D01*
X-116617Y249652D01*
X-116684Y249623D01*
X-116703Y249604D01*
X-116726Y249590D01*
X-116794Y249509D01*
X-116822Y249480D01*
X-116825Y249471D01*
X-116832Y249462D01*
X-143832Y202662D01*
X-143841Y202636D01*
X-143857Y202614D01*
X-143872Y202543D01*
X-143896Y202473D01*
X-143893Y202446D01*
X-143899Y202420D01*
X-143886Y202348D01*
X-143880Y202275D01*
X-143867Y202251D01*
X-143862Y202224D01*
X-143822Y202164D01*
X-143788Y202099D01*
X-143767Y202081D01*
X-143752Y202059D01*
X-143666Y201998D01*
X-143635Y201972D01*
X-143626Y201969D01*
X-143616Y201963D01*
X-139978Y200212D01*
X-139947Y200204D01*
X-139909Y200185D01*
X-136050Y198996D01*
X-136018Y198993D01*
X-135977Y198979D01*
X-131984Y198379D01*
X-131953Y198380D01*
X-131910Y198373D01*
X-127872Y198374D01*
G37*
G36*
X116428Y51923D02*
X116428Y51923D01*
X116501Y51924D01*
X116526Y51934D01*
X116553Y51937D01*
X116617Y51973D01*
X116684Y52002D01*
X116703Y52021D01*
X116726Y52035D01*
X116794Y52116D01*
X116822Y52145D01*
X116825Y52154D01*
X116832Y52163D01*
X143832Y98963D01*
X143841Y98989D01*
X143857Y99011D01*
X143872Y99082D01*
X143896Y99152D01*
X143893Y99179D01*
X143899Y99205D01*
X143886Y99277D01*
X143880Y99350D01*
X143867Y99374D01*
X143862Y99401D01*
X143822Y99462D01*
X143788Y99526D01*
X143767Y99544D01*
X143752Y99566D01*
X143666Y99627D01*
X143635Y99653D01*
X143626Y99656D01*
X143616Y99662D01*
X139978Y101413D01*
X139947Y101421D01*
X139909Y101440D01*
X136050Y102629D01*
X136018Y102632D01*
X135977Y102646D01*
X131984Y103246D01*
X131953Y103245D01*
X131910Y103252D01*
X127872Y103251D01*
X127841Y103244D01*
X127798Y103245D01*
X123806Y102642D01*
X123776Y102631D01*
X123733Y102625D01*
X119875Y101434D01*
X119847Y101419D01*
X119806Y101407D01*
X116168Y99654D01*
X116143Y99634D01*
X116104Y99616D01*
X112768Y97341D01*
X112746Y97318D01*
X112710Y97294D01*
X109751Y94547D01*
X109732Y94521D01*
X109700Y94492D01*
X107184Y91335D01*
X107169Y91306D01*
X107142Y91273D01*
X105124Y87776D01*
X105114Y87745D01*
X105092Y87708D01*
X103618Y83949D01*
X103612Y83918D01*
X103596Y83878D01*
X102699Y79941D01*
X102698Y79909D01*
X102688Y79867D01*
X102387Y75841D01*
X102391Y75809D01*
X102387Y75766D01*
X102690Y71740D01*
X102699Y71709D01*
X102701Y71666D01*
X103601Y67730D01*
X103614Y67701D01*
X103623Y67659D01*
X105099Y63901D01*
X105117Y63874D01*
X105132Y63834D01*
X107152Y60338D01*
X107173Y60314D01*
X107194Y60276D01*
X109712Y57120D01*
X109737Y57100D01*
X109763Y57065D01*
X112724Y54320D01*
X112751Y54303D01*
X112782Y54273D01*
X116119Y52000D01*
X116144Y51989D01*
X116165Y51972D01*
X116235Y51951D01*
X116302Y51923D01*
X116330Y51923D01*
X116356Y51915D01*
X116428Y51923D01*
G37*
G36*
X-116396Y51923D02*
X-116396Y51923D01*
X-116323Y51919D01*
X-116297Y51929D01*
X-116270Y51930D01*
X-116174Y51974D01*
X-116136Y51989D01*
X-116129Y51995D01*
X-116119Y52000D01*
X-112782Y54273D01*
X-112760Y54296D01*
X-112724Y54320D01*
X-109763Y57065D01*
X-109744Y57091D01*
X-109712Y57120D01*
X-107194Y60276D01*
X-107179Y60304D01*
X-107152Y60338D01*
X-105132Y63834D01*
X-105122Y63864D01*
X-105099Y63901D01*
X-103623Y67659D01*
X-103618Y67690D01*
X-103601Y67730D01*
X-102701Y71666D01*
X-102701Y71698D01*
X-102690Y71740D01*
X-102387Y75766D01*
X-102391Y75798D01*
X-102387Y75841D01*
X-102688Y79867D01*
X-102696Y79898D01*
X-102699Y79941D01*
X-103596Y83878D01*
X-103609Y83907D01*
X-103618Y83949D01*
X-105092Y87708D01*
X-105109Y87735D01*
X-105124Y87776D01*
X-107142Y91273D01*
X-107163Y91297D01*
X-107184Y91335D01*
X-109700Y94492D01*
X-109725Y94513D01*
X-109751Y94547D01*
X-112710Y97294D01*
X-112737Y97311D01*
X-112768Y97341D01*
X-116104Y99616D01*
X-116133Y99629D01*
X-116168Y99654D01*
X-119806Y101407D01*
X-119836Y101414D01*
X-119875Y101434D01*
X-123733Y102625D01*
X-123765Y102628D01*
X-123806Y102642D01*
X-127798Y103245D01*
X-127830Y103243D01*
X-127872Y103251D01*
X-131910Y103252D01*
X-131941Y103246D01*
X-131984Y103246D01*
X-135977Y102646D01*
X-136007Y102635D01*
X-136050Y102629D01*
X-139909Y101440D01*
X-139937Y101425D01*
X-139978Y101413D01*
X-143616Y99662D01*
X-143638Y99646D01*
X-143664Y99636D01*
X-143717Y99586D01*
X-143775Y99542D01*
X-143788Y99519D01*
X-143808Y99500D01*
X-143838Y99433D01*
X-143874Y99370D01*
X-143877Y99343D01*
X-143888Y99318D01*
X-143889Y99245D01*
X-143898Y99172D01*
X-143890Y99146D01*
X-143890Y99119D01*
X-143854Y99020D01*
X-143842Y98981D01*
X-143836Y98974D01*
X-143832Y98963D01*
X-116832Y52163D01*
X-116814Y52143D01*
X-116803Y52118D01*
X-116749Y52069D01*
X-116701Y52014D01*
X-116676Y52002D01*
X-116656Y51984D01*
X-116587Y51960D01*
X-116521Y51928D01*
X-116494Y51927D01*
X-116469Y51918D01*
X-116396Y51923D01*
G37*
G36*
X2049Y273395D02*
X2049Y273395D01*
X2092Y273394D01*
X6082Y273996D01*
X6112Y274007D01*
X6155Y274012D01*
X10011Y275202D01*
X10039Y275217D01*
X10081Y275229D01*
X13717Y276980D01*
X13742Y276999D01*
X13781Y277017D01*
X17115Y279291D01*
X17138Y279313D01*
X17174Y279337D01*
X20132Y282082D01*
X20151Y282108D01*
X20183Y282137D01*
X22699Y285292D01*
X22713Y285320D01*
X22741Y285353D01*
X24759Y288848D01*
X24769Y288878D01*
X24791Y288915D01*
X26265Y292672D01*
X26266Y292678D01*
X26268Y292680D01*
X26272Y292706D01*
X26287Y292743D01*
X27185Y296677D01*
X27186Y296709D01*
X27196Y296751D01*
X27498Y300775D01*
X27494Y300802D01*
X27499Y300829D01*
X27482Y300900D01*
X27473Y300972D01*
X27459Y300996D01*
X27453Y301022D01*
X27410Y301081D01*
X27373Y301144D01*
X27351Y301161D01*
X27335Y301183D01*
X27272Y301220D01*
X27214Y301264D01*
X27187Y301270D01*
X27164Y301284D01*
X27060Y301302D01*
X27021Y301311D01*
X27011Y301310D01*
X27000Y301312D01*
X-27000Y301312D01*
X-27027Y301306D01*
X-27054Y301309D01*
X-27123Y301287D01*
X-27195Y301272D01*
X-27217Y301257D01*
X-27243Y301249D01*
X-27299Y301201D01*
X-27359Y301160D01*
X-27373Y301137D01*
X-27394Y301119D01*
X-27427Y301054D01*
X-27466Y300992D01*
X-27470Y300965D01*
X-27482Y300941D01*
X-27492Y300836D01*
X-27499Y300796D01*
X-27497Y300787D01*
X-27498Y300775D01*
X-27196Y296751D01*
X-27188Y296720D01*
X-27185Y296677D01*
X-26287Y292743D01*
X-26274Y292714D01*
X-26265Y292672D01*
X-24791Y288915D01*
X-24774Y288888D01*
X-24759Y288848D01*
X-22741Y285353D01*
X-22720Y285329D01*
X-22699Y285292D01*
X-20183Y282137D01*
X-20158Y282116D01*
X-20132Y282082D01*
X-17174Y279337D01*
X-17147Y279321D01*
X-17115Y279291D01*
X-13781Y277017D01*
X-13752Y277005D01*
X-13717Y276980D01*
X-10081Y275229D01*
X-10050Y275221D01*
X-10011Y275202D01*
X-6155Y274012D01*
X-6124Y274009D01*
X-6082Y273996D01*
X-2092Y273394D01*
X-2060Y273396D01*
X-2018Y273389D01*
X2018Y273389D01*
X2049Y273395D01*
G37*
G36*
X27027Y319D02*
X27027Y319D01*
X27054Y316D01*
X27123Y338D01*
X27195Y353D01*
X27217Y368D01*
X27243Y377D01*
X27299Y424D01*
X27359Y465D01*
X27373Y488D01*
X27394Y506D01*
X27427Y571D01*
X27466Y633D01*
X27470Y660D01*
X27482Y684D01*
X27492Y789D01*
X27499Y829D01*
X27497Y838D01*
X27498Y850D01*
X27196Y4874D01*
X27188Y4905D01*
X27185Y4948D01*
X26287Y8882D01*
X26274Y8911D01*
X26265Y8953D01*
X24791Y12710D01*
X24774Y12737D01*
X24759Y12777D01*
X22741Y16272D01*
X22720Y16296D01*
X22699Y16333D01*
X20183Y19488D01*
X20158Y19509D01*
X20132Y19543D01*
X17174Y22288D01*
X17147Y22304D01*
X17115Y22334D01*
X13781Y24608D01*
X13752Y24620D01*
X13717Y24645D01*
X10081Y26396D01*
X10050Y26404D01*
X10011Y26423D01*
X6155Y27613D01*
X6124Y27616D01*
X6082Y27629D01*
X2092Y28231D01*
X2060Y28229D01*
X2018Y28236D01*
X-2018Y28236D01*
X-2049Y28230D01*
X-2092Y28231D01*
X-6082Y27629D01*
X-6112Y27618D01*
X-6155Y27613D01*
X-10011Y26423D01*
X-10039Y26408D01*
X-10081Y26396D01*
X-13717Y24645D01*
X-13742Y24626D01*
X-13781Y24608D01*
X-17115Y22334D01*
X-17138Y22312D01*
X-17174Y22288D01*
X-20132Y19543D01*
X-20151Y19517D01*
X-20183Y19488D01*
X-22699Y16333D01*
X-22713Y16305D01*
X-22741Y16272D01*
X-24759Y12777D01*
X-24769Y12747D01*
X-24791Y12710D01*
X-26265Y8953D01*
X-26271Y8922D01*
X-26287Y8882D01*
X-27185Y4948D01*
X-27186Y4916D01*
X-27196Y4874D01*
X-27498Y850D01*
X-27494Y823D01*
X-27499Y796D01*
X-27482Y725D01*
X-27473Y653D01*
X-27459Y629D01*
X-27453Y603D01*
X-27410Y544D01*
X-27373Y481D01*
X-27351Y464D01*
X-27335Y442D01*
X-27272Y405D01*
X-27214Y361D01*
X-27187Y355D01*
X-27164Y341D01*
X-27060Y323D01*
X-27021Y314D01*
X-27011Y315D01*
X-27000Y313D01*
X27000Y313D01*
X27027Y319D01*
G37*
%LPC*%
G36*
X-57554Y92031D02*
X-57554Y92031D01*
X-60369Y94846D01*
X-60369Y98829D01*
X-57554Y101644D01*
X-53571Y101644D01*
X-53403Y101476D01*
X-53369Y101453D01*
X-53341Y101423D01*
X-53287Y101399D01*
X-53236Y101365D01*
X-53196Y101357D01*
X-53159Y101341D01*
X-53099Y101339D01*
X-53040Y101328D01*
X-52999Y101336D01*
X-52958Y101335D01*
X-52894Y101359D01*
X-52844Y101369D01*
X-52820Y101385D01*
X-52789Y101397D01*
X94954Y187580D01*
X95009Y187629D01*
X95068Y187671D01*
X95083Y187695D01*
X95104Y187713D01*
X95135Y187779D01*
X95174Y187841D01*
X95179Y187871D01*
X95190Y187894D01*
X95193Y187947D01*
X95206Y188018D01*
X95206Y189316D01*
X98021Y192132D01*
X102004Y192132D01*
X104819Y189316D01*
X104819Y185334D01*
X102004Y182518D01*
X98021Y182518D01*
X97686Y182853D01*
X97652Y182876D01*
X97624Y182906D01*
X97570Y182931D01*
X97519Y182964D01*
X97479Y182972D01*
X97442Y182989D01*
X97382Y182991D01*
X97322Y183002D01*
X97282Y182993D01*
X97241Y182995D01*
X97177Y182971D01*
X97126Y182960D01*
X97103Y182944D01*
X97072Y182933D01*
X-50504Y96847D01*
X-50559Y96798D01*
X-50618Y96756D01*
X-50633Y96732D01*
X-50654Y96714D01*
X-50685Y96648D01*
X-50724Y96586D01*
X-50729Y96556D01*
X-50740Y96533D01*
X-50743Y96480D01*
X-50756Y96409D01*
X-50756Y94846D01*
X-53571Y92031D01*
X-57554Y92031D01*
G37*
%LPD*%
%LPC*%
G36*
X42459Y212681D02*
X42459Y212681D01*
X40342Y214798D01*
X40335Y214802D01*
X40331Y214809D01*
X40252Y214857D01*
X40175Y214909D01*
X40167Y214910D01*
X40161Y214914D01*
X39983Y214946D01*
X17470Y214944D01*
X16252Y214944D01*
X15156Y214944D01*
X14490Y215609D01*
X13519Y216580D01*
X13519Y216581D01*
X-5336Y235436D01*
X-5343Y235440D01*
X-5347Y235446D01*
X-5426Y235495D01*
X-5503Y235547D01*
X-5511Y235548D01*
X-5517Y235552D01*
X-5695Y235584D01*
X-60620Y235584D01*
X-60628Y235583D01*
X-60636Y235584D01*
X-60726Y235563D01*
X-60817Y235545D01*
X-60823Y235540D01*
X-60831Y235538D01*
X-60979Y235436D01*
X-63096Y233318D01*
X-67079Y233318D01*
X-69894Y236134D01*
X-69894Y240116D01*
X-67079Y242932D01*
X-63096Y242932D01*
X-60979Y240814D01*
X-60972Y240810D01*
X-60968Y240804D01*
X-60889Y240755D01*
X-60812Y240703D01*
X-60804Y240702D01*
X-60798Y240698D01*
X-60620Y240666D01*
X-3380Y240666D01*
X17112Y220174D01*
X17118Y220170D01*
X17123Y220163D01*
X17201Y220115D01*
X17279Y220063D01*
X17286Y220062D01*
X17293Y220058D01*
X17470Y220026D01*
X39983Y220028D01*
X39990Y220029D01*
X39998Y220028D01*
X40088Y220049D01*
X40179Y220067D01*
X40185Y220072D01*
X40193Y220074D01*
X40341Y220176D01*
X42459Y222294D01*
X46441Y222294D01*
X49257Y219479D01*
X49257Y215496D01*
X46441Y212681D01*
X42459Y212681D01*
G37*
%LPD*%
%LPC*%
G36*
X-21041Y38056D02*
X-21041Y38056D01*
X-23857Y40871D01*
X-23857Y44854D01*
X-21739Y46971D01*
X-21735Y46978D01*
X-21729Y46982D01*
X-21680Y47061D01*
X-21628Y47138D01*
X-21627Y47146D01*
X-21623Y47152D01*
X-21591Y47330D01*
X-21591Y82845D01*
X-21592Y82853D01*
X-21591Y82861D01*
X-21612Y82951D01*
X-21630Y83042D01*
X-21635Y83048D01*
X-21637Y83056D01*
X-21739Y83204D01*
X-23857Y85321D01*
X-23857Y89304D01*
X-21041Y92119D01*
X-17059Y92119D01*
X-14243Y89304D01*
X-14243Y85321D01*
X-16361Y83204D01*
X-16365Y83197D01*
X-16371Y83193D01*
X-16420Y83114D01*
X-16472Y83037D01*
X-16473Y83029D01*
X-16477Y83023D01*
X-16509Y82845D01*
X-16509Y47330D01*
X-16508Y47322D01*
X-16509Y47314D01*
X-16488Y47224D01*
X-16470Y47133D01*
X-16465Y47127D01*
X-16463Y47119D01*
X-16361Y46971D01*
X-14243Y44854D01*
X-14243Y40871D01*
X-17059Y38056D01*
X-21041Y38056D01*
G37*
%LPD*%
D10*
X82600Y293913D03*
X165200Y150813D03*
X82600Y7713D03*
X-82600Y7713D03*
X-165200Y150813D03*
X-82600Y293913D03*
X123900Y222313D03*
X123900Y79313D03*
X0Y7713D03*
X-123900Y79313D03*
X-123900Y222313D03*
X0Y293913D03*
D11*
X-55563Y119063D03*
X-88900Y100013D03*
D12*
X-55563Y119063D02*
X123498Y222313D01*
X123900Y222313D01*
X-88900Y100013D02*
X-89662Y99251D01*
X-123900Y79313D01*
X-123900Y222313D02*
X-12763Y222313D01*
X11113Y198438D01*
D11*
X11113Y198438D03*
X57150Y90488D03*
D12*
X68325Y79313D02*
X123900Y79313D01*
X68325Y79313D02*
X57150Y90488D01*
X0Y268288D02*
X0Y293913D01*
D11*
X0Y268288D03*
X0Y93663D03*
D12*
X0Y7713D01*
D11*
X-55563Y96838D03*
D12*
X99559Y187325D02*
X100013Y187325D01*
X99559Y187325D02*
X-55563Y96838D01*
D11*
X100013Y187325D03*
X-65088Y238125D03*
D12*
X-4432Y238125D01*
X16208Y217485D02*
X44450Y217488D01*
X16208Y217485D02*
X-4432Y238125D01*
D11*
X44450Y217488D03*
X-19050Y87313D03*
X-19050Y42863D03*
D12*
X-19050Y87313D01*
M02*
