G04 EAGLE Gerber RS-274X export*
G75*
%MOMM*%
%FSLAX34Y34*%
%LPD*%
%INSilkscreen Top*%
%IPPOS*%
%AMOC8*
5,1,8,0,0,1.08239X$1,22.5*%
G01*
%ADD10C,0.101600*%
%ADD11C,0.152400*%
%ADD12R,0.548638X0.022856*%
%ADD13R,0.502919X0.022856*%
%ADD14R,0.731519X0.022856*%
%ADD15R,0.754381X0.022856*%
%ADD16R,0.822956X0.022856*%
%ADD17R,0.845819X0.022863*%
%ADD18R,0.868675X0.022863*%
%ADD19R,0.845819X0.022856*%
%ADD20R,0.868675X0.022856*%
%ADD21R,0.891538X0.022856*%
%ADD22R,0.914400X0.022863*%
%ADD23R,0.891538X0.022863*%
%ADD24R,0.754375X0.022856*%
%ADD25R,0.251456X0.022856*%
%ADD26R,0.434338X0.022856*%
%ADD27R,0.228600X0.022856*%
%ADD28R,0.411475X0.022856*%
%ADD29R,0.297181X0.022856*%
%ADD30R,0.480056X0.022856*%
%ADD31R,0.457200X0.022856*%
%ADD32R,0.342900X0.022856*%
%ADD33R,0.274319X0.022856*%
%ADD34R,0.297175X0.022856*%
%ADD35R,0.960119X0.022856*%
%ADD36R,0.411481X0.022856*%
%ADD37R,0.571500X0.022856*%
%ADD38R,0.388619X0.022856*%
%ADD39R,0.365762X0.022856*%
%ADD40R,0.617219X0.022856*%
%ADD41R,0.868681X0.022856*%
%ADD42R,0.320038X0.022856*%
%ADD43R,1.028700X0.022856*%
%ADD44R,0.662938X0.022856*%
%ADD45R,0.594356X0.022856*%
%ADD46R,0.182875X0.022856*%
%ADD47R,0.937256X0.022856*%
%ADD48R,0.160019X0.022856*%
%ADD49R,1.028700X0.022863*%
%ADD50R,0.411481X0.022863*%
%ADD51R,0.411475X0.022863*%
%ADD52R,0.617219X0.022863*%
%ADD53R,0.388619X0.022863*%
%ADD54R,0.434338X0.022863*%
%ADD55R,0.457200X0.022863*%
%ADD56R,0.662938X0.022863*%
%ADD57R,0.594356X0.022863*%
%ADD58R,0.365762X0.022863*%
%ADD59R,0.754375X0.022863*%
%ADD60R,0.960119X0.022863*%
%ADD61R,0.182875X0.022863*%
%ADD62R,0.480056X0.022863*%
%ADD63R,0.937256X0.022863*%
%ADD64R,0.160019X0.022863*%
%ADD65R,0.754381X0.022863*%
%ADD66R,1.074419X0.022856*%
%ADD67R,0.640081X0.022856*%
%ADD68R,0.708656X0.022856*%
%ADD69R,0.800100X0.022856*%
%ADD70R,1.097281X0.022856*%
%ADD71R,0.685800X0.022856*%
%ADD72R,1.143000X0.022856*%
%ADD73R,1.005837X0.022856*%
%ADD74R,1.165856X0.022863*%
%ADD75R,0.640081X0.022863*%
%ADD76R,1.143000X0.022863*%
%ADD77R,0.868681X0.022863*%
%ADD78R,1.165856X0.022856*%
%ADD79R,0.914400X0.022856*%
%ADD80R,0.480063X0.022856*%
%ADD81R,1.165863X0.022856*%
%ADD82R,1.257300X0.022856*%
%ADD83R,0.365756X0.022856*%
%ADD84R,0.937262X0.022856*%
%ADD85R,1.714500X0.022856*%
%ADD86R,0.982975X0.022856*%
%ADD87R,1.165863X0.022863*%
%ADD88R,0.365756X0.022863*%
%ADD89R,0.982975X0.022863*%
%ADD90R,0.182881X0.022863*%
%ADD91R,1.211581X0.022863*%
%ADD92R,1.714500X0.022863*%
%ADD93R,1.257300X0.022863*%
%ADD94R,0.594363X0.022856*%
%ADD95R,0.525781X0.022856*%
%ADD96R,1.211575X0.022856*%
%ADD97R,1.005837X0.022863*%
%ADD98R,0.502919X0.022863*%
%ADD99R,1.211575X0.022863*%
%ADD100R,0.525775X0.022856*%
%ADD101R,1.120138X0.022856*%
%ADD102R,0.205738X0.022856*%
%ADD103R,0.251463X0.022856*%
%ADD104R,0.480063X0.022863*%
%ADD105R,0.091438X0.022863*%
%ADD106R,0.114300X0.022863*%
%ADD107R,1.074419X0.022863*%
%ADD108R,0.274319X0.022863*%
%ADD109R,0.091438X0.022856*%
%ADD110R,0.114300X0.022856*%
%ADD111R,1.120138X0.022863*%
%ADD112R,0.685800X0.022863*%
%ADD113R,0.205738X0.022863*%
%ADD114R,0.548638X0.022863*%
%ADD115R,0.731519X0.022863*%
%ADD116R,0.525775X0.022863*%
%ADD117R,0.525781X0.022863*%
%ADD118R,0.297181X0.022863*%
%ADD119R,0.982981X0.022856*%
%ADD120R,0.068581X0.022856*%
%ADD121R,1.691638X0.022856*%
%ADD122R,1.051562X0.022856*%
%ADD123R,1.051562X0.022863*%
%ADD124R,1.097281X0.022863*%
%ADD125R,0.982981X0.022863*%
%ADD126R,0.822963X0.022856*%
%ADD127R,0.708656X0.022863*%
%ADD128R,0.800100X0.022863*%
%ADD129R,0.228600X0.022863*%
%ADD130R,0.137156X0.022863*%
%ADD131R,0.342900X0.022863*%
%ADD132R,1.211581X0.022856*%
%ADD133R,0.937262X0.022863*%
%ADD134R,0.137156X0.022856*%
%ADD135R,1.440175X0.022856*%
%ADD136R,1.805938X0.022856*%
%ADD137R,1.851656X0.022856*%
%ADD138R,1.874519X0.022856*%
%ADD139R,1.920238X0.022863*%
%ADD140R,1.943100X0.022856*%
%ADD141R,1.965963X0.022856*%
%ADD142R,1.988819X0.022856*%
%ADD143R,2.011681X0.022856*%
%ADD144R,2.057400X0.022863*%
%ADD145R,2.057400X0.022856*%
%ADD146R,2.080256X0.022856*%
%ADD147R,2.125975X0.022856*%
%ADD148R,2.171700X0.022856*%
%ADD149R,2.171700X0.022863*%
%ADD150R,2.194556X0.022856*%
%ADD151R,2.217419X0.022856*%
%ADD152R,2.263138X0.022856*%
%ADD153R,2.308863X0.022863*%
%ADD154R,2.331719X0.022856*%
%ADD155R,2.377438X0.022856*%
%ADD156R,2.423156X0.022863*%
%ADD157R,2.468881X0.022856*%
%ADD158R,2.537456X0.022856*%
%ADD159R,2.537456X0.022863*%
%ADD160R,2.583175X0.022856*%
%ADD161R,2.628900X0.022856*%
%ADD162R,2.674619X0.022856*%
%ADD163R,2.697481X0.022863*%
%ADD164R,2.720338X0.022856*%
%ADD165R,2.743200X0.022856*%
%ADD166R,2.788919X0.022856*%
%ADD167R,2.834637X0.022863*%
%ADD168R,2.834637X0.022856*%
%ADD169R,2.903219X0.022856*%
%ADD170R,2.948937X0.022856*%
%ADD171R,2.948937X0.022863*%
%ADD172R,1.303019X0.022856*%
%ADD173R,2.971800X0.022856*%
%ADD174R,1.554481X0.022856*%
%ADD175R,1.783081X0.022856*%
%ADD176R,2.971800X0.022863*%
%ADD177R,1.851656X0.022863*%
%ADD178R,0.297175X0.022863*%
%ADD179R,2.994656X0.022856*%
%ADD180R,0.640075X0.022856*%
%ADD181R,0.708663X0.022856*%
%ADD182R,3.017519X0.022863*%
%ADD183R,1.965956X0.022863*%
%ADD184R,1.234438X0.022863*%
%ADD185R,0.822956X0.022863*%
%ADD186R,1.348738X0.022856*%
%ADD187R,1.371600X0.022856*%
%ADD188R,2.034537X0.022856*%
%ADD189R,1.463037X0.022856*%
%ADD190R,1.097275X0.022856*%
%ADD191R,1.234438X0.022856*%
%ADD192R,2.994656X0.022863*%
%ADD193R,1.554481X0.022863*%
%ADD194R,1.097275X0.022863*%
%ADD195R,2.011681X0.022863*%
%ADD196R,1.303019X0.022863*%
%ADD197R,1.645919X0.022856*%
%ADD198R,2.011675X0.022856*%
%ADD199R,3.017519X0.022856*%
%ADD200R,2.148837X0.022856*%
%ADD201R,2.103119X0.022856*%
%ADD202R,1.897381X0.022856*%
%ADD203R,2.125981X0.022856*%
%ADD204R,1.394456X0.022856*%
%ADD205R,2.194556X0.022863*%
%ADD206R,1.805938X0.022863*%
%ADD207R,2.125975X0.022863*%
%ADD208R,1.394456X0.022863*%
%ADD209R,1.897381X0.022863*%
%ADD210R,2.926081X0.022856*%
%ADD211R,2.286000X0.022856*%
%ADD212R,2.880356X0.022863*%
%ADD213R,2.331719X0.022863*%
%ADD214R,1.851662X0.022863*%
%ADD215R,2.240281X0.022863*%
%ADD216R,2.811775X0.022856*%
%ADD217R,2.240281X0.022856*%
%ADD218R,1.920238X0.022856*%
%ADD219R,2.766056X0.022856*%
%ADD220R,2.423163X0.022856*%
%ADD221R,2.446019X0.022856*%
%ADD222R,2.743200X0.022863*%
%ADD223R,2.468881X0.022863*%
%ADD224R,1.874519X0.022863*%
%ADD225R,2.103119X0.022863*%
%ADD226R,2.263138X0.022863*%
%ADD227R,2.308856X0.022856*%
%ADD228R,2.514600X0.022856*%
%ADD229R,2.583181X0.022856*%
%ADD230R,1.965956X0.022856*%
%ADD231R,2.606038X0.022863*%
%ADD232R,2.308856X0.022863*%
%ADD233R,2.606038X0.022856*%
%ADD234R,2.560319X0.022856*%
%ADD235R,1.828800X0.022856*%
%ADD236R,1.737356X0.022856*%
%ADD237R,1.051556X0.022856*%
%ADD238R,2.491738X0.022863*%
%ADD239R,1.691638X0.022863*%
%ADD240R,0.045719X0.022863*%
%ADD241R,1.051556X0.022863*%
%ADD242R,2.423156X0.022856*%
%ADD243R,2.766063X0.022856*%
%ADD244R,1.600200X0.022856*%
%ADD245R,2.400300X0.022856*%
%ADD246R,2.354575X0.022856*%
%ADD247R,1.508756X0.022856*%
%ADD248R,2.354575X0.022863*%
%ADD249R,1.485900X0.022863*%
%ADD250R,2.880356X0.022856*%
%ADD251R,1.623056X0.022856*%
%ADD252R,1.440181X0.022856*%
%ADD253R,2.194562X0.022863*%
%ADD254R,2.080256X0.022863*%
%ADD255R,2.194562X0.022856*%
%ADD256R,1.188719X0.022856*%
%ADD257R,0.777238X0.022856*%
%ADD258R,2.994663X0.022863*%
%ADD259R,2.148837X0.022863*%
%ADD260R,0.777238X0.022863*%
%ADD261R,1.988819X0.022863*%
%ADD262R,2.926075X0.022856*%
%ADD263R,1.280156X0.022856*%
%ADD264R,2.926075X0.022863*%
%ADD265R,1.577338X0.022863*%
%ADD266R,1.577338X0.022856*%
%ADD267R,1.760219X0.022856*%
%ADD268R,1.485900X0.022856*%
%ADD269R,1.188719X0.022863*%
%ADD270R,1.737356X0.022863*%
%ADD271R,1.828800X0.022863*%
%ADD272R,0.182881X0.022856*%
%ADD273R,2.857500X0.022856*%
%ADD274R,0.320038X0.022863*%
%ADD275R,2.354581X0.022863*%
%ADD276R,1.600200X0.022863*%
%ADD277R,2.811781X0.022856*%
%ADD278R,2.560319X0.022863*%
%ADD279R,1.668775X0.022863*%
%ADD280R,1.623056X0.022863*%
%ADD281R,1.783081X0.022863*%
%ADD282R,2.354581X0.022856*%
%ADD283R,1.440175X0.022863*%
%ADD284R,1.760219X0.022863*%
%ADD285R,1.325881X0.022856*%
%ADD286R,1.417319X0.022856*%
%ADD287R,1.737363X0.022856*%
%ADD288R,0.594363X0.022863*%
%ADD289R,0.045719X0.022856*%
%ADD290R,2.491738X0.022856*%
%ADD291R,1.897375X0.022856*%
%ADD292R,2.651756X0.022863*%
%ADD293R,1.325875X0.022856*%
%ADD294R,2.766063X0.022863*%
%ADD295R,2.903219X0.022863*%
%ADD296R,0.571500X0.022863*%
%ADD297R,2.994663X0.022856*%
%ADD298R,0.251456X0.022863*%
%ADD299R,2.788919X0.022863*%
%ADD300R,2.674619X0.022863*%
%ADD301R,2.514600X0.022863*%
%ADD302R,2.400300X0.022863*%
%ADD303R,2.080262X0.022856*%


D10*
X403428Y475532D02*
X406086Y473670D01*
X406180Y473607D01*
X406276Y473547D01*
X406374Y473490D01*
X406474Y473437D01*
X406576Y473387D01*
X406680Y473341D01*
X406785Y473299D01*
X406891Y473260D01*
X406999Y473225D01*
X407108Y473194D01*
X407218Y473166D01*
X407329Y473143D01*
X407440Y473123D01*
X407552Y473107D01*
X407665Y473095D01*
X407778Y473087D01*
X407891Y473083D01*
X408005Y473083D01*
X408118Y473087D01*
X408231Y473095D01*
X408344Y473107D01*
X408456Y473123D01*
X408567Y473143D01*
X408678Y473166D01*
X408788Y473194D01*
X408897Y473225D01*
X409005Y473260D01*
X409111Y473299D01*
X409216Y473341D01*
X409320Y473387D01*
X409422Y473437D01*
X409522Y473490D01*
X409620Y473547D01*
X409716Y473607D01*
X409810Y473670D01*
X409901Y473737D01*
X409991Y473806D01*
X410078Y473879D01*
X410162Y473955D01*
X410243Y474034D01*
X410322Y474115D01*
X410398Y474199D01*
X410471Y474286D01*
X410540Y474376D01*
X410607Y474467D01*
X410670Y474561D01*
X410730Y474657D01*
X410787Y474755D01*
X410840Y474855D01*
X410890Y474957D01*
X410936Y475061D01*
X410978Y475166D01*
X411017Y475272D01*
X411052Y475380D01*
X411083Y475489D01*
X411111Y475599D01*
X411134Y475710D01*
X411154Y475821D01*
X411170Y475933D01*
X411182Y476046D01*
X411190Y476159D01*
X411194Y476272D01*
X411194Y476386D01*
X411190Y476499D01*
X411182Y476612D01*
X411170Y476725D01*
X411154Y476837D01*
X411134Y476948D01*
X411111Y477059D01*
X411083Y477169D01*
X411052Y477278D01*
X411017Y477386D01*
X410978Y477492D01*
X410936Y477597D01*
X410890Y477701D01*
X410840Y477803D01*
X410787Y477903D01*
X410730Y478001D01*
X410670Y478097D01*
X410607Y478191D01*
X410540Y478282D01*
X410471Y478372D01*
X410398Y478459D01*
X410322Y478543D01*
X410243Y478624D01*
X410162Y478703D01*
X410078Y478779D01*
X409991Y478852D01*
X409902Y478921D01*
X409810Y478988D01*
X413320Y482869D02*
X410129Y485103D01*
X413319Y482869D02*
X413400Y482809D01*
X413479Y482747D01*
X413556Y482681D01*
X413630Y482613D01*
X413701Y482542D01*
X413769Y482468D01*
X413835Y482391D01*
X413897Y482312D01*
X413957Y482231D01*
X414013Y482147D01*
X414066Y482062D01*
X414115Y481974D01*
X414161Y481885D01*
X414204Y481793D01*
X414243Y481700D01*
X414278Y481606D01*
X414310Y481511D01*
X414338Y481414D01*
X414362Y481316D01*
X414382Y481218D01*
X414399Y481118D01*
X414411Y481018D01*
X414420Y480918D01*
X414425Y480818D01*
X414426Y480717D01*
X414423Y480616D01*
X414416Y480516D01*
X414405Y480416D01*
X414391Y480316D01*
X414372Y480217D01*
X414350Y480119D01*
X414324Y480022D01*
X414294Y479925D01*
X414261Y479831D01*
X414224Y479737D01*
X414183Y479645D01*
X414138Y479554D01*
X414091Y479466D01*
X414039Y479379D01*
X413985Y479295D01*
X413927Y479212D01*
X413866Y479132D01*
X413802Y479054D01*
X413735Y478979D01*
X413666Y478906D01*
X413593Y478837D01*
X413518Y478770D01*
X413440Y478706D01*
X413360Y478645D01*
X413277Y478587D01*
X413193Y478533D01*
X413106Y478481D01*
X413018Y478434D01*
X412927Y478389D01*
X412835Y478348D01*
X412741Y478311D01*
X412647Y478278D01*
X412550Y478248D01*
X412453Y478222D01*
X412355Y478200D01*
X412256Y478181D01*
X412156Y478167D01*
X412056Y478156D01*
X411956Y478149D01*
X411855Y478146D01*
X411754Y478147D01*
X411654Y478152D01*
X411554Y478161D01*
X411454Y478173D01*
X411354Y478190D01*
X411256Y478210D01*
X411158Y478234D01*
X411061Y478262D01*
X410966Y478294D01*
X410872Y478329D01*
X410779Y478368D01*
X410687Y478411D01*
X410598Y478457D01*
X410510Y478506D01*
X410425Y478559D01*
X410341Y478615D01*
X408214Y480105D01*
X418960Y478919D02*
X415449Y467114D01*
X425341Y474452D01*
X422153Y462420D02*
X424812Y460558D01*
X424906Y460495D01*
X425002Y460435D01*
X425100Y460378D01*
X425200Y460325D01*
X425302Y460275D01*
X425406Y460229D01*
X425511Y460187D01*
X425617Y460148D01*
X425725Y460113D01*
X425834Y460082D01*
X425944Y460054D01*
X426055Y460031D01*
X426166Y460011D01*
X426278Y459995D01*
X426391Y459983D01*
X426504Y459975D01*
X426617Y459971D01*
X426731Y459971D01*
X426844Y459975D01*
X426957Y459983D01*
X427070Y459995D01*
X427182Y460011D01*
X427293Y460031D01*
X427404Y460054D01*
X427514Y460082D01*
X427623Y460113D01*
X427731Y460148D01*
X427837Y460187D01*
X427942Y460229D01*
X428046Y460275D01*
X428148Y460325D01*
X428248Y460378D01*
X428346Y460435D01*
X428442Y460495D01*
X428536Y460558D01*
X428627Y460625D01*
X428717Y460694D01*
X428804Y460767D01*
X428888Y460843D01*
X428969Y460922D01*
X429048Y461003D01*
X429124Y461087D01*
X429197Y461174D01*
X429266Y461264D01*
X429333Y461355D01*
X429396Y461449D01*
X429456Y461545D01*
X429513Y461643D01*
X429566Y461743D01*
X429616Y461845D01*
X429662Y461949D01*
X429704Y462054D01*
X429743Y462160D01*
X429778Y462268D01*
X429809Y462377D01*
X429837Y462487D01*
X429860Y462598D01*
X429880Y462709D01*
X429896Y462821D01*
X429908Y462934D01*
X429916Y463047D01*
X429920Y463160D01*
X429920Y463274D01*
X429916Y463387D01*
X429908Y463500D01*
X429896Y463613D01*
X429880Y463725D01*
X429860Y463836D01*
X429837Y463947D01*
X429809Y464057D01*
X429778Y464166D01*
X429743Y464274D01*
X429704Y464380D01*
X429662Y464485D01*
X429616Y464589D01*
X429566Y464691D01*
X429513Y464791D01*
X429456Y464889D01*
X429396Y464985D01*
X429333Y465079D01*
X429266Y465170D01*
X429197Y465260D01*
X429124Y465347D01*
X429048Y465431D01*
X428969Y465512D01*
X428888Y465591D01*
X428804Y465667D01*
X428717Y465740D01*
X428628Y465809D01*
X428536Y465876D01*
X432045Y469757D02*
X428855Y471991D01*
X432045Y469757D02*
X432126Y469697D01*
X432205Y469635D01*
X432282Y469569D01*
X432356Y469501D01*
X432427Y469430D01*
X432495Y469356D01*
X432561Y469279D01*
X432623Y469200D01*
X432683Y469119D01*
X432739Y469035D01*
X432792Y468950D01*
X432841Y468862D01*
X432887Y468773D01*
X432930Y468681D01*
X432969Y468588D01*
X433004Y468494D01*
X433036Y468399D01*
X433064Y468302D01*
X433088Y468204D01*
X433108Y468106D01*
X433125Y468006D01*
X433137Y467906D01*
X433146Y467806D01*
X433151Y467706D01*
X433152Y467605D01*
X433149Y467504D01*
X433142Y467404D01*
X433131Y467304D01*
X433117Y467204D01*
X433098Y467105D01*
X433076Y467007D01*
X433050Y466910D01*
X433020Y466813D01*
X432987Y466719D01*
X432950Y466625D01*
X432909Y466533D01*
X432864Y466442D01*
X432817Y466354D01*
X432765Y466267D01*
X432711Y466183D01*
X432653Y466100D01*
X432592Y466020D01*
X432528Y465942D01*
X432461Y465867D01*
X432392Y465794D01*
X432319Y465725D01*
X432244Y465658D01*
X432166Y465594D01*
X432086Y465533D01*
X432003Y465475D01*
X431919Y465421D01*
X431832Y465369D01*
X431744Y465322D01*
X431653Y465277D01*
X431561Y465236D01*
X431467Y465199D01*
X431373Y465166D01*
X431276Y465136D01*
X431179Y465110D01*
X431081Y465088D01*
X430982Y465069D01*
X430882Y465055D01*
X430782Y465044D01*
X430682Y465037D01*
X430581Y465034D01*
X430480Y465035D01*
X430380Y465040D01*
X430280Y465049D01*
X430180Y465061D01*
X430080Y465078D01*
X429982Y465098D01*
X429884Y465122D01*
X429787Y465150D01*
X429692Y465182D01*
X429598Y465217D01*
X429505Y465256D01*
X429413Y465299D01*
X429324Y465345D01*
X429236Y465394D01*
X429151Y465447D01*
X429067Y465503D01*
X426940Y466993D01*
X497242Y334770D02*
X497242Y331524D01*
X497242Y334770D02*
X497240Y334883D01*
X497234Y334996D01*
X497224Y335109D01*
X497210Y335222D01*
X497193Y335334D01*
X497171Y335445D01*
X497146Y335555D01*
X497116Y335665D01*
X497083Y335773D01*
X497046Y335880D01*
X497006Y335986D01*
X496961Y336090D01*
X496913Y336193D01*
X496862Y336294D01*
X496807Y336393D01*
X496749Y336490D01*
X496687Y336585D01*
X496622Y336678D01*
X496554Y336768D01*
X496483Y336856D01*
X496408Y336942D01*
X496331Y337025D01*
X496251Y337105D01*
X496168Y337182D01*
X496082Y337257D01*
X495994Y337328D01*
X495904Y337396D01*
X495811Y337461D01*
X495716Y337523D01*
X495619Y337581D01*
X495520Y337636D01*
X495419Y337687D01*
X495316Y337735D01*
X495212Y337780D01*
X495106Y337820D01*
X494999Y337857D01*
X494891Y337890D01*
X494781Y337920D01*
X494671Y337945D01*
X494560Y337967D01*
X494448Y337984D01*
X494335Y337998D01*
X494222Y338008D01*
X494109Y338014D01*
X493996Y338016D01*
X493883Y338014D01*
X493770Y338008D01*
X493657Y337998D01*
X493544Y337984D01*
X493432Y337967D01*
X493321Y337945D01*
X493211Y337920D01*
X493101Y337890D01*
X492993Y337857D01*
X492886Y337820D01*
X492780Y337780D01*
X492676Y337735D01*
X492573Y337687D01*
X492472Y337636D01*
X492373Y337581D01*
X492276Y337523D01*
X492181Y337461D01*
X492088Y337396D01*
X491998Y337328D01*
X491910Y337257D01*
X491824Y337182D01*
X491741Y337105D01*
X491661Y337025D01*
X491584Y336942D01*
X491509Y336856D01*
X491438Y336768D01*
X491370Y336678D01*
X491305Y336585D01*
X491243Y336490D01*
X491185Y336393D01*
X491130Y336294D01*
X491079Y336193D01*
X491031Y336090D01*
X490986Y335986D01*
X490946Y335880D01*
X490909Y335773D01*
X490876Y335665D01*
X490846Y335555D01*
X490821Y335445D01*
X490799Y335334D01*
X490782Y335222D01*
X490768Y335109D01*
X490758Y334996D01*
X490752Y334883D01*
X490750Y334770D01*
X485558Y335419D02*
X485558Y331524D01*
X485558Y335419D02*
X485560Y335520D01*
X485566Y335620D01*
X485576Y335720D01*
X485589Y335820D01*
X485607Y335919D01*
X485628Y336018D01*
X485653Y336115D01*
X485682Y336212D01*
X485715Y336307D01*
X485751Y336401D01*
X485791Y336493D01*
X485834Y336584D01*
X485881Y336673D01*
X485931Y336760D01*
X485985Y336846D01*
X486042Y336929D01*
X486102Y337009D01*
X486165Y337088D01*
X486232Y337164D01*
X486301Y337237D01*
X486373Y337307D01*
X486447Y337375D01*
X486524Y337440D01*
X486604Y337501D01*
X486686Y337560D01*
X486770Y337615D01*
X486856Y337667D01*
X486944Y337716D01*
X487034Y337761D01*
X487126Y337803D01*
X487219Y337841D01*
X487314Y337875D01*
X487409Y337906D01*
X487506Y337933D01*
X487604Y337956D01*
X487703Y337976D01*
X487803Y337991D01*
X487903Y338003D01*
X488003Y338011D01*
X488104Y338015D01*
X488204Y338015D01*
X488305Y338011D01*
X488405Y338003D01*
X488505Y337991D01*
X488605Y337976D01*
X488704Y337956D01*
X488802Y337933D01*
X488899Y337906D01*
X488994Y337875D01*
X489089Y337841D01*
X489182Y337803D01*
X489274Y337761D01*
X489364Y337716D01*
X489452Y337667D01*
X489538Y337615D01*
X489622Y337560D01*
X489704Y337501D01*
X489784Y337440D01*
X489861Y337375D01*
X489935Y337307D01*
X490007Y337237D01*
X490076Y337164D01*
X490143Y337088D01*
X490206Y337009D01*
X490266Y336929D01*
X490323Y336846D01*
X490377Y336760D01*
X490427Y336673D01*
X490474Y336584D01*
X490517Y336493D01*
X490557Y336401D01*
X490593Y336307D01*
X490626Y336212D01*
X490655Y336115D01*
X490680Y336018D01*
X490701Y335919D01*
X490719Y335820D01*
X490732Y335720D01*
X490742Y335620D01*
X490748Y335520D01*
X490750Y335419D01*
X490751Y335419D02*
X490751Y332823D01*
X485558Y342305D02*
X497242Y346200D01*
X485558Y350095D01*
X497242Y354384D02*
X497242Y357630D01*
X497240Y357743D01*
X497234Y357856D01*
X497224Y357969D01*
X497210Y358082D01*
X497193Y358194D01*
X497171Y358305D01*
X497146Y358415D01*
X497116Y358525D01*
X497083Y358633D01*
X497046Y358740D01*
X497006Y358846D01*
X496961Y358950D01*
X496913Y359053D01*
X496862Y359154D01*
X496807Y359253D01*
X496749Y359350D01*
X496687Y359445D01*
X496622Y359538D01*
X496554Y359628D01*
X496483Y359716D01*
X496408Y359802D01*
X496331Y359885D01*
X496251Y359965D01*
X496168Y360042D01*
X496082Y360117D01*
X495994Y360188D01*
X495904Y360256D01*
X495811Y360321D01*
X495716Y360383D01*
X495619Y360441D01*
X495520Y360496D01*
X495419Y360547D01*
X495316Y360595D01*
X495212Y360640D01*
X495106Y360680D01*
X494999Y360717D01*
X494891Y360750D01*
X494781Y360780D01*
X494671Y360805D01*
X494560Y360827D01*
X494448Y360844D01*
X494335Y360858D01*
X494222Y360868D01*
X494109Y360874D01*
X493996Y360876D01*
X493883Y360874D01*
X493770Y360868D01*
X493657Y360858D01*
X493544Y360844D01*
X493432Y360827D01*
X493321Y360805D01*
X493211Y360780D01*
X493101Y360750D01*
X492993Y360717D01*
X492886Y360680D01*
X492780Y360640D01*
X492676Y360595D01*
X492573Y360547D01*
X492472Y360496D01*
X492373Y360441D01*
X492276Y360383D01*
X492181Y360321D01*
X492088Y360256D01*
X491998Y360188D01*
X491910Y360117D01*
X491824Y360042D01*
X491741Y359965D01*
X491661Y359885D01*
X491584Y359802D01*
X491509Y359716D01*
X491438Y359628D01*
X491370Y359538D01*
X491305Y359445D01*
X491243Y359350D01*
X491185Y359253D01*
X491130Y359154D01*
X491079Y359053D01*
X491031Y358950D01*
X490986Y358846D01*
X490946Y358740D01*
X490909Y358633D01*
X490876Y358525D01*
X490846Y358415D01*
X490821Y358305D01*
X490799Y358194D01*
X490782Y358082D01*
X490768Y357969D01*
X490758Y357856D01*
X490752Y357743D01*
X490750Y357630D01*
X485558Y358279D02*
X485558Y354384D01*
X485558Y358279D02*
X485560Y358380D01*
X485566Y358480D01*
X485576Y358580D01*
X485589Y358680D01*
X485607Y358779D01*
X485628Y358878D01*
X485653Y358975D01*
X485682Y359072D01*
X485715Y359167D01*
X485751Y359261D01*
X485791Y359353D01*
X485834Y359444D01*
X485881Y359533D01*
X485931Y359620D01*
X485985Y359706D01*
X486042Y359789D01*
X486102Y359869D01*
X486165Y359948D01*
X486232Y360024D01*
X486301Y360097D01*
X486373Y360167D01*
X486447Y360235D01*
X486524Y360300D01*
X486604Y360361D01*
X486686Y360420D01*
X486770Y360475D01*
X486856Y360527D01*
X486944Y360576D01*
X487034Y360621D01*
X487126Y360663D01*
X487219Y360701D01*
X487314Y360735D01*
X487409Y360766D01*
X487506Y360793D01*
X487604Y360816D01*
X487703Y360836D01*
X487803Y360851D01*
X487903Y360863D01*
X488003Y360871D01*
X488104Y360875D01*
X488204Y360875D01*
X488305Y360871D01*
X488405Y360863D01*
X488505Y360851D01*
X488605Y360836D01*
X488704Y360816D01*
X488802Y360793D01*
X488899Y360766D01*
X488994Y360735D01*
X489089Y360701D01*
X489182Y360663D01*
X489274Y360621D01*
X489364Y360576D01*
X489452Y360527D01*
X489538Y360475D01*
X489622Y360420D01*
X489704Y360361D01*
X489784Y360300D01*
X489861Y360235D01*
X489935Y360167D01*
X490007Y360097D01*
X490076Y360024D01*
X490143Y359948D01*
X490206Y359869D01*
X490266Y359789D01*
X490323Y359706D01*
X490377Y359620D01*
X490427Y359533D01*
X490474Y359444D01*
X490517Y359353D01*
X490557Y359261D01*
X490593Y359167D01*
X490626Y359072D01*
X490655Y358975D01*
X490680Y358878D01*
X490701Y358779D01*
X490719Y358680D01*
X490732Y358580D01*
X490742Y358480D01*
X490748Y358380D01*
X490750Y358279D01*
X490751Y358279D02*
X490751Y355683D01*
X412788Y209159D02*
X410129Y207297D01*
X412788Y209158D02*
X412879Y209225D01*
X412969Y209294D01*
X413056Y209367D01*
X413140Y209443D01*
X413221Y209522D01*
X413300Y209603D01*
X413376Y209687D01*
X413449Y209774D01*
X413518Y209864D01*
X413585Y209955D01*
X413648Y210049D01*
X413708Y210145D01*
X413765Y210243D01*
X413818Y210343D01*
X413868Y210445D01*
X413914Y210549D01*
X413956Y210654D01*
X413995Y210760D01*
X414030Y210868D01*
X414061Y210977D01*
X414089Y211087D01*
X414112Y211198D01*
X414132Y211309D01*
X414148Y211421D01*
X414160Y211534D01*
X414168Y211647D01*
X414172Y211760D01*
X414172Y211874D01*
X414168Y211987D01*
X414160Y212100D01*
X414148Y212213D01*
X414132Y212325D01*
X414112Y212436D01*
X414089Y212547D01*
X414061Y212657D01*
X414030Y212766D01*
X413995Y212874D01*
X413956Y212980D01*
X413914Y213085D01*
X413868Y213189D01*
X413818Y213291D01*
X413765Y213391D01*
X413708Y213489D01*
X413648Y213585D01*
X413585Y213679D01*
X413518Y213770D01*
X413449Y213860D01*
X413376Y213947D01*
X413300Y214031D01*
X413221Y214112D01*
X413140Y214191D01*
X413056Y214267D01*
X412969Y214340D01*
X412880Y214409D01*
X412788Y214476D01*
X412694Y214539D01*
X412598Y214599D01*
X412500Y214656D01*
X412400Y214709D01*
X412298Y214759D01*
X412194Y214805D01*
X412089Y214847D01*
X411983Y214886D01*
X411875Y214921D01*
X411766Y214952D01*
X411656Y214980D01*
X411545Y215003D01*
X411434Y215023D01*
X411322Y215039D01*
X411209Y215051D01*
X411096Y215059D01*
X410983Y215063D01*
X410869Y215063D01*
X410756Y215059D01*
X410643Y215051D01*
X410530Y215039D01*
X410418Y215023D01*
X410307Y215003D01*
X410196Y214980D01*
X410086Y214952D01*
X409977Y214921D01*
X409869Y214886D01*
X409763Y214847D01*
X409658Y214805D01*
X409554Y214759D01*
X409452Y214709D01*
X409352Y214656D01*
X409254Y214599D01*
X409158Y214539D01*
X409064Y214476D01*
X406618Y219102D02*
X403428Y216868D01*
X406618Y219102D02*
X406702Y219158D01*
X406787Y219211D01*
X406875Y219260D01*
X406964Y219306D01*
X407056Y219349D01*
X407149Y219388D01*
X407243Y219423D01*
X407338Y219455D01*
X407435Y219483D01*
X407533Y219507D01*
X407631Y219527D01*
X407731Y219544D01*
X407831Y219556D01*
X407931Y219565D01*
X408032Y219570D01*
X408132Y219571D01*
X408233Y219568D01*
X408333Y219561D01*
X408433Y219550D01*
X408533Y219536D01*
X408632Y219517D01*
X408730Y219495D01*
X408827Y219469D01*
X408924Y219439D01*
X409019Y219406D01*
X409112Y219369D01*
X409204Y219328D01*
X409295Y219283D01*
X409383Y219236D01*
X409470Y219184D01*
X409554Y219130D01*
X409637Y219072D01*
X409717Y219011D01*
X409795Y218947D01*
X409870Y218880D01*
X409943Y218811D01*
X410012Y218738D01*
X410079Y218663D01*
X410143Y218585D01*
X410204Y218505D01*
X410262Y218422D01*
X410316Y218338D01*
X410368Y218251D01*
X410415Y218163D01*
X410460Y218072D01*
X410501Y217980D01*
X410538Y217886D01*
X410571Y217792D01*
X410601Y217695D01*
X410627Y217598D01*
X410649Y217500D01*
X410668Y217401D01*
X410682Y217301D01*
X410693Y217201D01*
X410700Y217101D01*
X410703Y217000D01*
X410702Y216900D01*
X410697Y216799D01*
X410688Y216699D01*
X410676Y216599D01*
X410659Y216499D01*
X410639Y216401D01*
X410615Y216303D01*
X410587Y216206D01*
X410555Y216111D01*
X410520Y216017D01*
X410481Y215924D01*
X410438Y215832D01*
X410392Y215743D01*
X410343Y215655D01*
X410290Y215570D01*
X410234Y215486D01*
X410174Y215405D01*
X410112Y215326D01*
X410046Y215249D01*
X409978Y215175D01*
X409907Y215104D01*
X409833Y215036D01*
X409756Y214970D01*
X409677Y214908D01*
X409596Y214848D01*
X407470Y213359D01*
X412259Y223052D02*
X422151Y215714D01*
X418639Y227519D01*
X428855Y220409D02*
X431514Y222270D01*
X431605Y222337D01*
X431695Y222406D01*
X431782Y222479D01*
X431866Y222555D01*
X431947Y222634D01*
X432026Y222715D01*
X432102Y222799D01*
X432175Y222886D01*
X432244Y222976D01*
X432311Y223067D01*
X432374Y223161D01*
X432434Y223257D01*
X432491Y223355D01*
X432544Y223455D01*
X432594Y223557D01*
X432640Y223661D01*
X432682Y223766D01*
X432721Y223872D01*
X432756Y223980D01*
X432787Y224089D01*
X432815Y224199D01*
X432838Y224310D01*
X432858Y224421D01*
X432874Y224533D01*
X432886Y224646D01*
X432894Y224759D01*
X432898Y224872D01*
X432898Y224986D01*
X432894Y225099D01*
X432886Y225212D01*
X432874Y225325D01*
X432858Y225437D01*
X432838Y225548D01*
X432815Y225659D01*
X432787Y225769D01*
X432756Y225878D01*
X432721Y225986D01*
X432682Y226092D01*
X432640Y226197D01*
X432594Y226301D01*
X432544Y226403D01*
X432491Y226503D01*
X432434Y226601D01*
X432374Y226697D01*
X432311Y226791D01*
X432244Y226882D01*
X432175Y226972D01*
X432102Y227059D01*
X432026Y227143D01*
X431947Y227224D01*
X431866Y227303D01*
X431782Y227379D01*
X431695Y227452D01*
X431606Y227521D01*
X431514Y227588D01*
X431420Y227651D01*
X431324Y227711D01*
X431226Y227768D01*
X431126Y227821D01*
X431024Y227871D01*
X430920Y227917D01*
X430815Y227959D01*
X430709Y227998D01*
X430601Y228033D01*
X430492Y228064D01*
X430382Y228092D01*
X430271Y228115D01*
X430160Y228135D01*
X430048Y228151D01*
X429935Y228163D01*
X429822Y228171D01*
X429709Y228175D01*
X429595Y228175D01*
X429482Y228171D01*
X429369Y228163D01*
X429256Y228151D01*
X429144Y228135D01*
X429033Y228115D01*
X428922Y228092D01*
X428812Y228064D01*
X428703Y228033D01*
X428595Y227998D01*
X428489Y227959D01*
X428384Y227917D01*
X428280Y227871D01*
X428178Y227821D01*
X428078Y227768D01*
X427980Y227711D01*
X427884Y227651D01*
X427790Y227588D01*
X425344Y232214D02*
X422153Y229980D01*
X425344Y232214D02*
X425428Y232270D01*
X425513Y232323D01*
X425601Y232372D01*
X425690Y232418D01*
X425782Y232461D01*
X425875Y232500D01*
X425969Y232535D01*
X426064Y232567D01*
X426161Y232595D01*
X426259Y232619D01*
X426357Y232639D01*
X426457Y232656D01*
X426557Y232668D01*
X426657Y232677D01*
X426758Y232682D01*
X426858Y232683D01*
X426959Y232680D01*
X427059Y232673D01*
X427159Y232662D01*
X427259Y232648D01*
X427358Y232629D01*
X427456Y232607D01*
X427553Y232581D01*
X427650Y232551D01*
X427745Y232518D01*
X427838Y232481D01*
X427930Y232440D01*
X428021Y232395D01*
X428109Y232348D01*
X428196Y232296D01*
X428280Y232242D01*
X428363Y232184D01*
X428443Y232123D01*
X428521Y232059D01*
X428596Y231992D01*
X428669Y231923D01*
X428738Y231850D01*
X428805Y231775D01*
X428869Y231697D01*
X428930Y231617D01*
X428988Y231534D01*
X429042Y231450D01*
X429094Y231363D01*
X429141Y231275D01*
X429186Y231184D01*
X429227Y231092D01*
X429264Y230998D01*
X429297Y230904D01*
X429327Y230807D01*
X429353Y230710D01*
X429375Y230612D01*
X429394Y230513D01*
X429408Y230413D01*
X429419Y230313D01*
X429426Y230213D01*
X429429Y230112D01*
X429428Y230012D01*
X429423Y229911D01*
X429414Y229811D01*
X429402Y229711D01*
X429385Y229611D01*
X429365Y229513D01*
X429341Y229415D01*
X429313Y229318D01*
X429281Y229223D01*
X429246Y229129D01*
X429207Y229036D01*
X429164Y228944D01*
X429118Y228855D01*
X429069Y228767D01*
X429016Y228682D01*
X428960Y228598D01*
X428900Y228517D01*
X428838Y228438D01*
X428772Y228361D01*
X428704Y228287D01*
X428633Y228216D01*
X428559Y228148D01*
X428482Y228082D01*
X428403Y228020D01*
X428322Y227960D01*
X426195Y226471D01*
X260886Y222270D02*
X258228Y224132D01*
X260886Y222270D02*
X260980Y222207D01*
X261076Y222147D01*
X261174Y222090D01*
X261274Y222037D01*
X261376Y221987D01*
X261480Y221941D01*
X261585Y221899D01*
X261691Y221860D01*
X261799Y221825D01*
X261908Y221794D01*
X262018Y221766D01*
X262129Y221743D01*
X262240Y221723D01*
X262352Y221707D01*
X262465Y221695D01*
X262578Y221687D01*
X262691Y221683D01*
X262805Y221683D01*
X262918Y221687D01*
X263031Y221695D01*
X263144Y221707D01*
X263256Y221723D01*
X263367Y221743D01*
X263478Y221766D01*
X263588Y221794D01*
X263697Y221825D01*
X263805Y221860D01*
X263911Y221899D01*
X264016Y221941D01*
X264120Y221987D01*
X264222Y222037D01*
X264322Y222090D01*
X264420Y222147D01*
X264516Y222207D01*
X264610Y222270D01*
X264701Y222337D01*
X264791Y222406D01*
X264878Y222479D01*
X264962Y222555D01*
X265043Y222634D01*
X265122Y222715D01*
X265198Y222799D01*
X265271Y222886D01*
X265340Y222976D01*
X265407Y223067D01*
X265470Y223161D01*
X265530Y223257D01*
X265587Y223355D01*
X265640Y223455D01*
X265690Y223557D01*
X265736Y223661D01*
X265778Y223766D01*
X265817Y223872D01*
X265852Y223980D01*
X265883Y224089D01*
X265911Y224199D01*
X265934Y224310D01*
X265954Y224421D01*
X265970Y224533D01*
X265982Y224646D01*
X265990Y224759D01*
X265994Y224872D01*
X265994Y224986D01*
X265990Y225099D01*
X265982Y225212D01*
X265970Y225325D01*
X265954Y225437D01*
X265934Y225548D01*
X265911Y225659D01*
X265883Y225769D01*
X265852Y225878D01*
X265817Y225986D01*
X265778Y226092D01*
X265736Y226197D01*
X265690Y226301D01*
X265640Y226403D01*
X265587Y226503D01*
X265530Y226601D01*
X265470Y226697D01*
X265407Y226791D01*
X265340Y226882D01*
X265271Y226972D01*
X265198Y227059D01*
X265122Y227143D01*
X265043Y227224D01*
X264962Y227303D01*
X264878Y227379D01*
X264791Y227452D01*
X264702Y227521D01*
X264610Y227588D01*
X268120Y231469D02*
X264929Y233703D01*
X268119Y231469D02*
X268200Y231409D01*
X268279Y231347D01*
X268356Y231281D01*
X268430Y231213D01*
X268501Y231142D01*
X268569Y231068D01*
X268635Y230991D01*
X268697Y230912D01*
X268757Y230831D01*
X268813Y230747D01*
X268866Y230662D01*
X268915Y230574D01*
X268961Y230485D01*
X269004Y230393D01*
X269043Y230300D01*
X269078Y230206D01*
X269110Y230111D01*
X269138Y230014D01*
X269162Y229916D01*
X269182Y229818D01*
X269199Y229718D01*
X269211Y229618D01*
X269220Y229518D01*
X269225Y229418D01*
X269226Y229317D01*
X269223Y229216D01*
X269216Y229116D01*
X269205Y229016D01*
X269191Y228916D01*
X269172Y228817D01*
X269150Y228719D01*
X269124Y228622D01*
X269094Y228525D01*
X269061Y228431D01*
X269024Y228337D01*
X268983Y228245D01*
X268938Y228154D01*
X268891Y228066D01*
X268839Y227979D01*
X268785Y227895D01*
X268727Y227812D01*
X268666Y227732D01*
X268602Y227654D01*
X268535Y227579D01*
X268466Y227506D01*
X268393Y227437D01*
X268318Y227370D01*
X268240Y227306D01*
X268160Y227245D01*
X268077Y227187D01*
X267993Y227133D01*
X267906Y227081D01*
X267818Y227034D01*
X267727Y226989D01*
X267635Y226948D01*
X267541Y226911D01*
X267447Y226878D01*
X267350Y226848D01*
X267253Y226822D01*
X267155Y226800D01*
X267056Y226781D01*
X266956Y226767D01*
X266856Y226756D01*
X266756Y226749D01*
X266655Y226746D01*
X266554Y226747D01*
X266454Y226752D01*
X266354Y226761D01*
X266254Y226773D01*
X266154Y226790D01*
X266056Y226810D01*
X265958Y226834D01*
X265861Y226862D01*
X265766Y226894D01*
X265672Y226929D01*
X265579Y226968D01*
X265487Y227011D01*
X265398Y227057D01*
X265310Y227106D01*
X265225Y227159D01*
X265141Y227215D01*
X263014Y228705D01*
X273760Y227519D02*
X270249Y215714D01*
X280141Y223052D01*
X276953Y211020D02*
X279612Y209158D01*
X279706Y209095D01*
X279802Y209035D01*
X279900Y208978D01*
X280000Y208925D01*
X280102Y208875D01*
X280206Y208829D01*
X280311Y208787D01*
X280417Y208748D01*
X280525Y208713D01*
X280634Y208682D01*
X280744Y208654D01*
X280855Y208631D01*
X280966Y208611D01*
X281078Y208595D01*
X281191Y208583D01*
X281304Y208575D01*
X281417Y208571D01*
X281531Y208571D01*
X281644Y208575D01*
X281757Y208583D01*
X281870Y208595D01*
X281982Y208611D01*
X282093Y208631D01*
X282204Y208654D01*
X282314Y208682D01*
X282423Y208713D01*
X282531Y208748D01*
X282637Y208787D01*
X282742Y208829D01*
X282846Y208875D01*
X282948Y208925D01*
X283048Y208978D01*
X283146Y209035D01*
X283242Y209095D01*
X283336Y209158D01*
X283427Y209225D01*
X283517Y209294D01*
X283604Y209367D01*
X283688Y209443D01*
X283769Y209522D01*
X283848Y209603D01*
X283924Y209687D01*
X283997Y209774D01*
X284066Y209864D01*
X284133Y209955D01*
X284196Y210049D01*
X284256Y210145D01*
X284313Y210243D01*
X284366Y210343D01*
X284416Y210445D01*
X284462Y210549D01*
X284504Y210654D01*
X284543Y210760D01*
X284578Y210868D01*
X284609Y210977D01*
X284637Y211087D01*
X284660Y211198D01*
X284680Y211309D01*
X284696Y211421D01*
X284708Y211534D01*
X284716Y211647D01*
X284720Y211760D01*
X284720Y211874D01*
X284716Y211987D01*
X284708Y212100D01*
X284696Y212213D01*
X284680Y212325D01*
X284660Y212436D01*
X284637Y212547D01*
X284609Y212657D01*
X284578Y212766D01*
X284543Y212874D01*
X284504Y212980D01*
X284462Y213085D01*
X284416Y213189D01*
X284366Y213291D01*
X284313Y213391D01*
X284256Y213489D01*
X284196Y213585D01*
X284133Y213679D01*
X284066Y213770D01*
X283997Y213860D01*
X283924Y213947D01*
X283848Y214031D01*
X283769Y214112D01*
X283688Y214191D01*
X283604Y214267D01*
X283517Y214340D01*
X283428Y214409D01*
X283336Y214476D01*
X286845Y218357D02*
X283655Y220591D01*
X286845Y218357D02*
X286926Y218297D01*
X287005Y218235D01*
X287082Y218169D01*
X287156Y218101D01*
X287227Y218030D01*
X287295Y217956D01*
X287361Y217879D01*
X287423Y217800D01*
X287483Y217719D01*
X287539Y217635D01*
X287592Y217550D01*
X287641Y217462D01*
X287687Y217373D01*
X287730Y217281D01*
X287769Y217188D01*
X287804Y217094D01*
X287836Y216999D01*
X287864Y216902D01*
X287888Y216804D01*
X287908Y216706D01*
X287925Y216606D01*
X287937Y216506D01*
X287946Y216406D01*
X287951Y216306D01*
X287952Y216205D01*
X287949Y216104D01*
X287942Y216004D01*
X287931Y215904D01*
X287917Y215804D01*
X287898Y215705D01*
X287876Y215607D01*
X287850Y215510D01*
X287820Y215413D01*
X287787Y215319D01*
X287750Y215225D01*
X287709Y215133D01*
X287664Y215042D01*
X287617Y214954D01*
X287565Y214867D01*
X287511Y214783D01*
X287453Y214700D01*
X287392Y214620D01*
X287328Y214542D01*
X287261Y214467D01*
X287192Y214394D01*
X287119Y214325D01*
X287044Y214258D01*
X286966Y214194D01*
X286886Y214133D01*
X286803Y214075D01*
X286719Y214021D01*
X286632Y213969D01*
X286544Y213922D01*
X286453Y213877D01*
X286361Y213836D01*
X286267Y213799D01*
X286173Y213766D01*
X286076Y213736D01*
X285979Y213710D01*
X285881Y213688D01*
X285782Y213669D01*
X285682Y213655D01*
X285582Y213644D01*
X285482Y213637D01*
X285381Y213634D01*
X285280Y213635D01*
X285180Y213640D01*
X285080Y213649D01*
X284980Y213661D01*
X284880Y213678D01*
X284782Y213698D01*
X284684Y213722D01*
X284587Y213750D01*
X284492Y213782D01*
X284398Y213817D01*
X284305Y213856D01*
X284213Y213899D01*
X284124Y213945D01*
X284036Y213994D01*
X283951Y214047D01*
X283867Y214103D01*
X281740Y215593D01*
X206842Y331524D02*
X206842Y334770D01*
X206840Y334883D01*
X206834Y334996D01*
X206824Y335109D01*
X206810Y335222D01*
X206793Y335334D01*
X206771Y335445D01*
X206746Y335555D01*
X206716Y335665D01*
X206683Y335773D01*
X206646Y335880D01*
X206606Y335986D01*
X206561Y336090D01*
X206513Y336193D01*
X206462Y336294D01*
X206407Y336393D01*
X206349Y336490D01*
X206287Y336585D01*
X206222Y336678D01*
X206154Y336768D01*
X206083Y336856D01*
X206008Y336942D01*
X205931Y337025D01*
X205851Y337105D01*
X205768Y337182D01*
X205682Y337257D01*
X205594Y337328D01*
X205504Y337396D01*
X205411Y337461D01*
X205316Y337523D01*
X205219Y337581D01*
X205120Y337636D01*
X205019Y337687D01*
X204916Y337735D01*
X204812Y337780D01*
X204706Y337820D01*
X204599Y337857D01*
X204491Y337890D01*
X204381Y337920D01*
X204271Y337945D01*
X204160Y337967D01*
X204048Y337984D01*
X203935Y337998D01*
X203822Y338008D01*
X203709Y338014D01*
X203596Y338016D01*
X203483Y338014D01*
X203370Y338008D01*
X203257Y337998D01*
X203144Y337984D01*
X203032Y337967D01*
X202921Y337945D01*
X202811Y337920D01*
X202701Y337890D01*
X202593Y337857D01*
X202486Y337820D01*
X202380Y337780D01*
X202276Y337735D01*
X202173Y337687D01*
X202072Y337636D01*
X201973Y337581D01*
X201876Y337523D01*
X201781Y337461D01*
X201688Y337396D01*
X201598Y337328D01*
X201510Y337257D01*
X201424Y337182D01*
X201341Y337105D01*
X201261Y337025D01*
X201184Y336942D01*
X201109Y336856D01*
X201038Y336768D01*
X200970Y336678D01*
X200905Y336585D01*
X200843Y336490D01*
X200785Y336393D01*
X200730Y336294D01*
X200679Y336193D01*
X200631Y336090D01*
X200586Y335986D01*
X200546Y335880D01*
X200509Y335773D01*
X200476Y335665D01*
X200446Y335555D01*
X200421Y335445D01*
X200399Y335334D01*
X200382Y335222D01*
X200368Y335109D01*
X200358Y334996D01*
X200352Y334883D01*
X200350Y334770D01*
X195158Y335419D02*
X195158Y331524D01*
X195158Y335419D02*
X195160Y335520D01*
X195166Y335620D01*
X195176Y335720D01*
X195189Y335820D01*
X195207Y335919D01*
X195228Y336018D01*
X195253Y336115D01*
X195282Y336212D01*
X195315Y336307D01*
X195351Y336401D01*
X195391Y336493D01*
X195434Y336584D01*
X195481Y336673D01*
X195531Y336760D01*
X195585Y336846D01*
X195642Y336929D01*
X195702Y337009D01*
X195765Y337088D01*
X195832Y337164D01*
X195901Y337237D01*
X195973Y337307D01*
X196047Y337375D01*
X196124Y337440D01*
X196204Y337501D01*
X196286Y337560D01*
X196370Y337615D01*
X196456Y337667D01*
X196544Y337716D01*
X196634Y337761D01*
X196726Y337803D01*
X196819Y337841D01*
X196914Y337875D01*
X197009Y337906D01*
X197106Y337933D01*
X197204Y337956D01*
X197303Y337976D01*
X197403Y337991D01*
X197503Y338003D01*
X197603Y338011D01*
X197704Y338015D01*
X197804Y338015D01*
X197905Y338011D01*
X198005Y338003D01*
X198105Y337991D01*
X198205Y337976D01*
X198304Y337956D01*
X198402Y337933D01*
X198499Y337906D01*
X198594Y337875D01*
X198689Y337841D01*
X198782Y337803D01*
X198874Y337761D01*
X198964Y337716D01*
X199052Y337667D01*
X199138Y337615D01*
X199222Y337560D01*
X199304Y337501D01*
X199384Y337440D01*
X199461Y337375D01*
X199535Y337307D01*
X199607Y337237D01*
X199676Y337164D01*
X199743Y337088D01*
X199806Y337009D01*
X199866Y336929D01*
X199923Y336846D01*
X199977Y336760D01*
X200027Y336673D01*
X200074Y336584D01*
X200117Y336493D01*
X200157Y336401D01*
X200193Y336307D01*
X200226Y336212D01*
X200255Y336115D01*
X200280Y336018D01*
X200301Y335919D01*
X200319Y335820D01*
X200332Y335720D01*
X200342Y335620D01*
X200348Y335520D01*
X200350Y335419D01*
X200351Y335419D02*
X200351Y332823D01*
X195158Y342305D02*
X206842Y346200D01*
X195158Y350095D01*
X206842Y354384D02*
X206842Y357630D01*
X206840Y357743D01*
X206834Y357856D01*
X206824Y357969D01*
X206810Y358082D01*
X206793Y358194D01*
X206771Y358305D01*
X206746Y358415D01*
X206716Y358525D01*
X206683Y358633D01*
X206646Y358740D01*
X206606Y358846D01*
X206561Y358950D01*
X206513Y359053D01*
X206462Y359154D01*
X206407Y359253D01*
X206349Y359350D01*
X206287Y359445D01*
X206222Y359538D01*
X206154Y359628D01*
X206083Y359716D01*
X206008Y359802D01*
X205931Y359885D01*
X205851Y359965D01*
X205768Y360042D01*
X205682Y360117D01*
X205594Y360188D01*
X205504Y360256D01*
X205411Y360321D01*
X205316Y360383D01*
X205219Y360441D01*
X205120Y360496D01*
X205019Y360547D01*
X204916Y360595D01*
X204812Y360640D01*
X204706Y360680D01*
X204599Y360717D01*
X204491Y360750D01*
X204381Y360780D01*
X204271Y360805D01*
X204160Y360827D01*
X204048Y360844D01*
X203935Y360858D01*
X203822Y360868D01*
X203709Y360874D01*
X203596Y360876D01*
X203483Y360874D01*
X203370Y360868D01*
X203257Y360858D01*
X203144Y360844D01*
X203032Y360827D01*
X202921Y360805D01*
X202811Y360780D01*
X202701Y360750D01*
X202593Y360717D01*
X202486Y360680D01*
X202380Y360640D01*
X202276Y360595D01*
X202173Y360547D01*
X202072Y360496D01*
X201973Y360441D01*
X201876Y360383D01*
X201781Y360321D01*
X201688Y360256D01*
X201598Y360188D01*
X201510Y360117D01*
X201424Y360042D01*
X201341Y359965D01*
X201261Y359885D01*
X201184Y359802D01*
X201109Y359716D01*
X201038Y359628D01*
X200970Y359538D01*
X200905Y359445D01*
X200843Y359350D01*
X200785Y359253D01*
X200730Y359154D01*
X200679Y359053D01*
X200631Y358950D01*
X200586Y358846D01*
X200546Y358740D01*
X200509Y358633D01*
X200476Y358525D01*
X200446Y358415D01*
X200421Y358305D01*
X200399Y358194D01*
X200382Y358082D01*
X200368Y357969D01*
X200358Y357856D01*
X200352Y357743D01*
X200350Y357630D01*
X195158Y358279D02*
X195158Y354384D01*
X195158Y358279D02*
X195160Y358380D01*
X195166Y358480D01*
X195176Y358580D01*
X195189Y358680D01*
X195207Y358779D01*
X195228Y358878D01*
X195253Y358975D01*
X195282Y359072D01*
X195315Y359167D01*
X195351Y359261D01*
X195391Y359353D01*
X195434Y359444D01*
X195481Y359533D01*
X195531Y359620D01*
X195585Y359706D01*
X195642Y359789D01*
X195702Y359869D01*
X195765Y359948D01*
X195832Y360024D01*
X195901Y360097D01*
X195973Y360167D01*
X196047Y360235D01*
X196124Y360300D01*
X196204Y360361D01*
X196286Y360420D01*
X196370Y360475D01*
X196456Y360527D01*
X196544Y360576D01*
X196634Y360621D01*
X196726Y360663D01*
X196819Y360701D01*
X196914Y360735D01*
X197009Y360766D01*
X197106Y360793D01*
X197204Y360816D01*
X197303Y360836D01*
X197403Y360851D01*
X197503Y360863D01*
X197603Y360871D01*
X197704Y360875D01*
X197804Y360875D01*
X197905Y360871D01*
X198005Y360863D01*
X198105Y360851D01*
X198205Y360836D01*
X198304Y360816D01*
X198402Y360793D01*
X198499Y360766D01*
X198594Y360735D01*
X198689Y360701D01*
X198782Y360663D01*
X198874Y360621D01*
X198964Y360576D01*
X199052Y360527D01*
X199138Y360475D01*
X199222Y360420D01*
X199304Y360361D01*
X199384Y360300D01*
X199461Y360235D01*
X199535Y360167D01*
X199607Y360097D01*
X199676Y360024D01*
X199743Y359948D01*
X199806Y359869D01*
X199866Y359789D01*
X199923Y359706D01*
X199977Y359620D01*
X200027Y359533D01*
X200074Y359444D01*
X200117Y359353D01*
X200157Y359261D01*
X200193Y359167D01*
X200226Y359072D01*
X200255Y358975D01*
X200280Y358878D01*
X200301Y358779D01*
X200319Y358680D01*
X200332Y358580D01*
X200342Y358480D01*
X200348Y358380D01*
X200350Y358279D01*
X200351Y358279D02*
X200351Y355683D01*
X264929Y458697D02*
X267588Y460559D01*
X267588Y460558D02*
X267679Y460625D01*
X267769Y460694D01*
X267856Y460767D01*
X267940Y460843D01*
X268021Y460922D01*
X268100Y461003D01*
X268176Y461087D01*
X268249Y461174D01*
X268318Y461264D01*
X268385Y461355D01*
X268448Y461449D01*
X268508Y461545D01*
X268565Y461643D01*
X268618Y461743D01*
X268668Y461845D01*
X268714Y461949D01*
X268756Y462054D01*
X268795Y462160D01*
X268830Y462268D01*
X268861Y462377D01*
X268889Y462487D01*
X268912Y462598D01*
X268932Y462709D01*
X268948Y462821D01*
X268960Y462934D01*
X268968Y463047D01*
X268972Y463160D01*
X268972Y463274D01*
X268968Y463387D01*
X268960Y463500D01*
X268948Y463613D01*
X268932Y463725D01*
X268912Y463836D01*
X268889Y463947D01*
X268861Y464057D01*
X268830Y464166D01*
X268795Y464274D01*
X268756Y464380D01*
X268714Y464485D01*
X268668Y464589D01*
X268618Y464691D01*
X268565Y464791D01*
X268508Y464889D01*
X268448Y464985D01*
X268385Y465079D01*
X268318Y465170D01*
X268249Y465260D01*
X268176Y465347D01*
X268100Y465431D01*
X268021Y465512D01*
X267940Y465591D01*
X267856Y465667D01*
X267769Y465740D01*
X267680Y465809D01*
X267588Y465876D01*
X267494Y465939D01*
X267398Y465999D01*
X267300Y466056D01*
X267200Y466109D01*
X267098Y466159D01*
X266994Y466205D01*
X266889Y466247D01*
X266783Y466286D01*
X266675Y466321D01*
X266566Y466352D01*
X266456Y466380D01*
X266345Y466403D01*
X266234Y466423D01*
X266122Y466439D01*
X266009Y466451D01*
X265896Y466459D01*
X265783Y466463D01*
X265669Y466463D01*
X265556Y466459D01*
X265443Y466451D01*
X265330Y466439D01*
X265218Y466423D01*
X265107Y466403D01*
X264996Y466380D01*
X264886Y466352D01*
X264777Y466321D01*
X264669Y466286D01*
X264563Y466247D01*
X264458Y466205D01*
X264354Y466159D01*
X264252Y466109D01*
X264152Y466056D01*
X264054Y465999D01*
X263958Y465939D01*
X263864Y465876D01*
X261418Y470502D02*
X258228Y468268D01*
X261418Y470502D02*
X261502Y470558D01*
X261587Y470611D01*
X261675Y470660D01*
X261764Y470706D01*
X261856Y470749D01*
X261949Y470788D01*
X262043Y470823D01*
X262138Y470855D01*
X262235Y470883D01*
X262333Y470907D01*
X262431Y470927D01*
X262531Y470944D01*
X262631Y470956D01*
X262731Y470965D01*
X262832Y470970D01*
X262932Y470971D01*
X263033Y470968D01*
X263133Y470961D01*
X263233Y470950D01*
X263333Y470936D01*
X263432Y470917D01*
X263530Y470895D01*
X263627Y470869D01*
X263724Y470839D01*
X263819Y470806D01*
X263912Y470769D01*
X264004Y470728D01*
X264095Y470683D01*
X264183Y470636D01*
X264270Y470584D01*
X264354Y470530D01*
X264437Y470472D01*
X264517Y470411D01*
X264595Y470347D01*
X264670Y470280D01*
X264743Y470211D01*
X264812Y470138D01*
X264879Y470063D01*
X264943Y469985D01*
X265004Y469905D01*
X265062Y469822D01*
X265116Y469738D01*
X265168Y469651D01*
X265215Y469563D01*
X265260Y469472D01*
X265301Y469380D01*
X265338Y469286D01*
X265371Y469192D01*
X265401Y469095D01*
X265427Y468998D01*
X265449Y468900D01*
X265468Y468801D01*
X265482Y468701D01*
X265493Y468601D01*
X265500Y468501D01*
X265503Y468400D01*
X265502Y468300D01*
X265497Y468199D01*
X265488Y468099D01*
X265476Y467999D01*
X265459Y467899D01*
X265439Y467801D01*
X265415Y467703D01*
X265387Y467606D01*
X265355Y467511D01*
X265320Y467417D01*
X265281Y467324D01*
X265238Y467232D01*
X265192Y467143D01*
X265143Y467055D01*
X265090Y466970D01*
X265034Y466886D01*
X264974Y466805D01*
X264912Y466726D01*
X264846Y466649D01*
X264778Y466575D01*
X264707Y466504D01*
X264633Y466436D01*
X264556Y466370D01*
X264477Y466308D01*
X264396Y466248D01*
X262270Y464759D01*
X267059Y474452D02*
X276951Y467114D01*
X273439Y478919D01*
X283655Y471809D02*
X286314Y473670D01*
X286405Y473737D01*
X286495Y473806D01*
X286582Y473879D01*
X286666Y473955D01*
X286747Y474034D01*
X286826Y474115D01*
X286902Y474199D01*
X286975Y474286D01*
X287044Y474376D01*
X287111Y474467D01*
X287174Y474561D01*
X287234Y474657D01*
X287291Y474755D01*
X287344Y474855D01*
X287394Y474957D01*
X287440Y475061D01*
X287482Y475166D01*
X287521Y475272D01*
X287556Y475380D01*
X287587Y475489D01*
X287615Y475599D01*
X287638Y475710D01*
X287658Y475821D01*
X287674Y475933D01*
X287686Y476046D01*
X287694Y476159D01*
X287698Y476272D01*
X287698Y476386D01*
X287694Y476499D01*
X287686Y476612D01*
X287674Y476725D01*
X287658Y476837D01*
X287638Y476948D01*
X287615Y477059D01*
X287587Y477169D01*
X287556Y477278D01*
X287521Y477386D01*
X287482Y477492D01*
X287440Y477597D01*
X287394Y477701D01*
X287344Y477803D01*
X287291Y477903D01*
X287234Y478001D01*
X287174Y478097D01*
X287111Y478191D01*
X287044Y478282D01*
X286975Y478372D01*
X286902Y478459D01*
X286826Y478543D01*
X286747Y478624D01*
X286666Y478703D01*
X286582Y478779D01*
X286495Y478852D01*
X286406Y478921D01*
X286314Y478988D01*
X286220Y479051D01*
X286124Y479111D01*
X286026Y479168D01*
X285926Y479221D01*
X285824Y479271D01*
X285720Y479317D01*
X285615Y479359D01*
X285509Y479398D01*
X285401Y479433D01*
X285292Y479464D01*
X285182Y479492D01*
X285071Y479515D01*
X284960Y479535D01*
X284848Y479551D01*
X284735Y479563D01*
X284622Y479571D01*
X284509Y479575D01*
X284395Y479575D01*
X284282Y479571D01*
X284169Y479563D01*
X284056Y479551D01*
X283944Y479535D01*
X283833Y479515D01*
X283722Y479492D01*
X283612Y479464D01*
X283503Y479433D01*
X283395Y479398D01*
X283289Y479359D01*
X283184Y479317D01*
X283080Y479271D01*
X282978Y479221D01*
X282878Y479168D01*
X282780Y479111D01*
X282684Y479051D01*
X282590Y478988D01*
X280144Y483614D02*
X276953Y481380D01*
X280144Y483614D02*
X280228Y483670D01*
X280313Y483723D01*
X280401Y483772D01*
X280490Y483818D01*
X280582Y483861D01*
X280675Y483900D01*
X280769Y483935D01*
X280864Y483967D01*
X280961Y483995D01*
X281059Y484019D01*
X281157Y484039D01*
X281257Y484056D01*
X281357Y484068D01*
X281457Y484077D01*
X281558Y484082D01*
X281658Y484083D01*
X281759Y484080D01*
X281859Y484073D01*
X281959Y484062D01*
X282059Y484048D01*
X282158Y484029D01*
X282256Y484007D01*
X282353Y483981D01*
X282450Y483951D01*
X282545Y483918D01*
X282638Y483881D01*
X282730Y483840D01*
X282821Y483795D01*
X282909Y483748D01*
X282996Y483696D01*
X283080Y483642D01*
X283163Y483584D01*
X283243Y483523D01*
X283321Y483459D01*
X283396Y483392D01*
X283469Y483323D01*
X283538Y483250D01*
X283605Y483175D01*
X283669Y483097D01*
X283730Y483017D01*
X283788Y482934D01*
X283842Y482850D01*
X283894Y482763D01*
X283941Y482675D01*
X283986Y482584D01*
X284027Y482492D01*
X284064Y482398D01*
X284097Y482304D01*
X284127Y482207D01*
X284153Y482110D01*
X284175Y482012D01*
X284194Y481913D01*
X284208Y481813D01*
X284219Y481713D01*
X284226Y481613D01*
X284229Y481512D01*
X284228Y481412D01*
X284223Y481311D01*
X284214Y481211D01*
X284202Y481111D01*
X284185Y481011D01*
X284165Y480913D01*
X284141Y480815D01*
X284113Y480718D01*
X284081Y480623D01*
X284046Y480529D01*
X284007Y480436D01*
X283964Y480344D01*
X283918Y480255D01*
X283869Y480167D01*
X283816Y480082D01*
X283760Y479998D01*
X283700Y479917D01*
X283638Y479838D01*
X283572Y479761D01*
X283504Y479687D01*
X283433Y479616D01*
X283359Y479548D01*
X283282Y479482D01*
X283203Y479420D01*
X283122Y479360D01*
X280995Y477871D01*
D11*
X426432Y422063D02*
X426432Y404283D01*
X426432Y422063D02*
X431371Y422063D01*
X431511Y422061D01*
X431650Y422055D01*
X431790Y422045D01*
X431929Y422031D01*
X432068Y422014D01*
X432206Y421992D01*
X432343Y421966D01*
X432480Y421937D01*
X432616Y421904D01*
X432750Y421867D01*
X432884Y421826D01*
X433016Y421781D01*
X433148Y421732D01*
X433277Y421680D01*
X433405Y421625D01*
X433532Y421565D01*
X433657Y421502D01*
X433780Y421436D01*
X433901Y421366D01*
X434020Y421293D01*
X434137Y421216D01*
X434251Y421136D01*
X434364Y421053D01*
X434474Y420967D01*
X434581Y420877D01*
X434686Y420785D01*
X434788Y420690D01*
X434888Y420592D01*
X434985Y420491D01*
X435079Y420387D01*
X435169Y420281D01*
X435257Y420172D01*
X435342Y420061D01*
X435423Y419947D01*
X435502Y419832D01*
X435577Y419714D01*
X435648Y419594D01*
X435716Y419471D01*
X435781Y419348D01*
X435842Y419222D01*
X435900Y419094D01*
X435954Y418966D01*
X436004Y418835D01*
X436051Y418703D01*
X436094Y418570D01*
X436133Y418436D01*
X436168Y418301D01*
X436199Y418165D01*
X436227Y418027D01*
X436250Y417890D01*
X436270Y417751D01*
X436286Y417612D01*
X436298Y417473D01*
X436306Y417334D01*
X436310Y417194D01*
X436310Y417054D01*
X436306Y416914D01*
X436298Y416775D01*
X436286Y416636D01*
X436270Y416497D01*
X436250Y416358D01*
X436227Y416221D01*
X436199Y416083D01*
X436168Y415947D01*
X436133Y415812D01*
X436094Y415678D01*
X436051Y415545D01*
X436004Y415413D01*
X435954Y415282D01*
X435900Y415154D01*
X435842Y415026D01*
X435781Y414900D01*
X435716Y414777D01*
X435648Y414655D01*
X435577Y414534D01*
X435502Y414416D01*
X435423Y414301D01*
X435342Y414187D01*
X435257Y414076D01*
X435169Y413967D01*
X435079Y413861D01*
X434985Y413757D01*
X434888Y413656D01*
X434788Y413558D01*
X434686Y413463D01*
X434581Y413371D01*
X434474Y413281D01*
X434364Y413195D01*
X434251Y413112D01*
X434137Y413032D01*
X434020Y412955D01*
X433901Y412882D01*
X433780Y412812D01*
X433657Y412746D01*
X433532Y412683D01*
X433405Y412623D01*
X433277Y412568D01*
X433148Y412516D01*
X433016Y412467D01*
X432884Y412422D01*
X432750Y412381D01*
X432616Y412344D01*
X432480Y412311D01*
X432343Y412282D01*
X432206Y412256D01*
X432068Y412234D01*
X431929Y412217D01*
X431790Y412203D01*
X431650Y412193D01*
X431511Y412187D01*
X431371Y412185D01*
X426432Y412185D01*
X442427Y418112D02*
X447366Y422063D01*
X447366Y404283D01*
X442427Y404283D02*
X452305Y404283D01*
X426484Y285721D02*
X426484Y267941D01*
X426484Y285721D02*
X431423Y285721D01*
X431563Y285719D01*
X431702Y285713D01*
X431842Y285703D01*
X431981Y285689D01*
X432120Y285672D01*
X432258Y285650D01*
X432395Y285624D01*
X432532Y285595D01*
X432668Y285562D01*
X432802Y285525D01*
X432936Y285484D01*
X433068Y285439D01*
X433200Y285390D01*
X433329Y285338D01*
X433457Y285283D01*
X433584Y285223D01*
X433709Y285160D01*
X433832Y285094D01*
X433953Y285024D01*
X434072Y284951D01*
X434189Y284874D01*
X434303Y284794D01*
X434416Y284711D01*
X434526Y284625D01*
X434633Y284535D01*
X434738Y284443D01*
X434840Y284348D01*
X434940Y284250D01*
X435037Y284149D01*
X435131Y284045D01*
X435221Y283939D01*
X435309Y283830D01*
X435394Y283719D01*
X435475Y283605D01*
X435554Y283490D01*
X435629Y283372D01*
X435700Y283252D01*
X435768Y283129D01*
X435833Y283006D01*
X435894Y282880D01*
X435952Y282752D01*
X436006Y282624D01*
X436056Y282493D01*
X436103Y282361D01*
X436146Y282228D01*
X436185Y282094D01*
X436220Y281959D01*
X436251Y281823D01*
X436279Y281685D01*
X436302Y281548D01*
X436322Y281409D01*
X436338Y281270D01*
X436350Y281131D01*
X436358Y280992D01*
X436362Y280852D01*
X436362Y280712D01*
X436358Y280572D01*
X436350Y280433D01*
X436338Y280294D01*
X436322Y280155D01*
X436302Y280016D01*
X436279Y279879D01*
X436251Y279741D01*
X436220Y279605D01*
X436185Y279470D01*
X436146Y279336D01*
X436103Y279203D01*
X436056Y279071D01*
X436006Y278940D01*
X435952Y278812D01*
X435894Y278684D01*
X435833Y278558D01*
X435768Y278435D01*
X435700Y278313D01*
X435629Y278192D01*
X435554Y278074D01*
X435475Y277959D01*
X435394Y277845D01*
X435309Y277734D01*
X435221Y277625D01*
X435131Y277519D01*
X435037Y277415D01*
X434940Y277314D01*
X434840Y277216D01*
X434738Y277121D01*
X434633Y277029D01*
X434526Y276939D01*
X434416Y276853D01*
X434303Y276770D01*
X434189Y276690D01*
X434072Y276613D01*
X433953Y276540D01*
X433832Y276470D01*
X433709Y276404D01*
X433584Y276341D01*
X433457Y276281D01*
X433329Y276226D01*
X433200Y276174D01*
X433068Y276125D01*
X432936Y276080D01*
X432802Y276039D01*
X432668Y276002D01*
X432532Y275969D01*
X432395Y275940D01*
X432258Y275914D01*
X432120Y275892D01*
X431981Y275875D01*
X431842Y275861D01*
X431702Y275851D01*
X431563Y275845D01*
X431423Y275843D01*
X426484Y275843D01*
X447911Y285721D02*
X448043Y285719D01*
X448174Y285713D01*
X448306Y285703D01*
X448437Y285690D01*
X448567Y285672D01*
X448697Y285651D01*
X448827Y285626D01*
X448955Y285597D01*
X449083Y285564D01*
X449209Y285527D01*
X449335Y285487D01*
X449459Y285443D01*
X449582Y285395D01*
X449703Y285344D01*
X449823Y285289D01*
X449941Y285231D01*
X450057Y285169D01*
X450171Y285103D01*
X450284Y285035D01*
X450394Y284963D01*
X450502Y284888D01*
X450608Y284809D01*
X450712Y284728D01*
X450813Y284643D01*
X450911Y284556D01*
X451007Y284465D01*
X451100Y284372D01*
X451191Y284276D01*
X451278Y284178D01*
X451363Y284077D01*
X451444Y283973D01*
X451523Y283867D01*
X451598Y283759D01*
X451670Y283649D01*
X451738Y283536D01*
X451804Y283422D01*
X451866Y283306D01*
X451924Y283188D01*
X451979Y283068D01*
X452030Y282947D01*
X452078Y282824D01*
X452122Y282700D01*
X452162Y282574D01*
X452199Y282448D01*
X452232Y282320D01*
X452261Y282192D01*
X452286Y282062D01*
X452307Y281932D01*
X452325Y281802D01*
X452338Y281671D01*
X452348Y281539D01*
X452354Y281408D01*
X452356Y281276D01*
X447911Y285721D02*
X447761Y285719D01*
X447612Y285713D01*
X447463Y285703D01*
X447314Y285690D01*
X447165Y285672D01*
X447017Y285651D01*
X446869Y285625D01*
X446723Y285596D01*
X446577Y285563D01*
X446432Y285526D01*
X446288Y285485D01*
X446145Y285441D01*
X446003Y285393D01*
X445863Y285341D01*
X445724Y285286D01*
X445586Y285227D01*
X445451Y285164D01*
X445316Y285098D01*
X445184Y285028D01*
X445054Y284955D01*
X444925Y284878D01*
X444798Y284798D01*
X444674Y284715D01*
X444552Y284629D01*
X444432Y284539D01*
X444315Y284446D01*
X444200Y284351D01*
X444087Y284252D01*
X443977Y284150D01*
X443870Y284046D01*
X443766Y283939D01*
X443664Y283829D01*
X443566Y283716D01*
X443470Y283601D01*
X443378Y283483D01*
X443288Y283363D01*
X443202Y283241D01*
X443119Y283117D01*
X443039Y282990D01*
X442963Y282862D01*
X442890Y282731D01*
X442820Y282598D01*
X442754Y282464D01*
X442692Y282328D01*
X442633Y282191D01*
X442577Y282052D01*
X442526Y281911D01*
X442478Y281770D01*
X450874Y277819D02*
X450970Y277912D01*
X451062Y278008D01*
X451152Y278107D01*
X451239Y278208D01*
X451324Y278311D01*
X451405Y278416D01*
X451483Y278524D01*
X451558Y278634D01*
X451631Y278746D01*
X451700Y278860D01*
X451766Y278976D01*
X451828Y279094D01*
X451887Y279213D01*
X451943Y279334D01*
X451996Y279457D01*
X452045Y279581D01*
X452090Y279706D01*
X452133Y279833D01*
X452171Y279960D01*
X452206Y280089D01*
X452237Y280218D01*
X452265Y280349D01*
X452289Y280480D01*
X452310Y280612D01*
X452326Y280744D01*
X452339Y280877D01*
X452349Y281010D01*
X452354Y281143D01*
X452356Y281276D01*
X450875Y277819D02*
X442479Y267941D01*
X452356Y267941D01*
X333264Y233490D02*
X333264Y215710D01*
X333264Y233490D02*
X338203Y233490D01*
X338343Y233488D01*
X338482Y233482D01*
X338622Y233472D01*
X338761Y233458D01*
X338900Y233441D01*
X339038Y233419D01*
X339175Y233393D01*
X339312Y233364D01*
X339448Y233331D01*
X339582Y233294D01*
X339716Y233253D01*
X339848Y233208D01*
X339980Y233159D01*
X340109Y233107D01*
X340237Y233052D01*
X340364Y232992D01*
X340489Y232929D01*
X340612Y232863D01*
X340733Y232793D01*
X340852Y232720D01*
X340969Y232643D01*
X341083Y232563D01*
X341196Y232480D01*
X341306Y232394D01*
X341413Y232304D01*
X341518Y232212D01*
X341620Y232117D01*
X341720Y232019D01*
X341817Y231918D01*
X341911Y231814D01*
X342001Y231708D01*
X342089Y231599D01*
X342174Y231488D01*
X342255Y231374D01*
X342334Y231259D01*
X342409Y231141D01*
X342480Y231021D01*
X342548Y230898D01*
X342613Y230775D01*
X342674Y230649D01*
X342732Y230521D01*
X342786Y230393D01*
X342836Y230262D01*
X342883Y230130D01*
X342926Y229997D01*
X342965Y229863D01*
X343000Y229728D01*
X343031Y229592D01*
X343059Y229454D01*
X343082Y229317D01*
X343102Y229178D01*
X343118Y229039D01*
X343130Y228900D01*
X343138Y228761D01*
X343142Y228621D01*
X343142Y228481D01*
X343138Y228341D01*
X343130Y228202D01*
X343118Y228063D01*
X343102Y227924D01*
X343082Y227785D01*
X343059Y227648D01*
X343031Y227510D01*
X343000Y227374D01*
X342965Y227239D01*
X342926Y227105D01*
X342883Y226972D01*
X342836Y226840D01*
X342786Y226709D01*
X342732Y226581D01*
X342674Y226453D01*
X342613Y226327D01*
X342548Y226204D01*
X342480Y226082D01*
X342409Y225961D01*
X342334Y225843D01*
X342255Y225728D01*
X342174Y225614D01*
X342089Y225503D01*
X342001Y225394D01*
X341911Y225288D01*
X341817Y225184D01*
X341720Y225083D01*
X341620Y224985D01*
X341518Y224890D01*
X341413Y224798D01*
X341306Y224708D01*
X341196Y224622D01*
X341083Y224539D01*
X340969Y224459D01*
X340852Y224382D01*
X340733Y224309D01*
X340612Y224239D01*
X340489Y224173D01*
X340364Y224110D01*
X340237Y224050D01*
X340109Y223995D01*
X339980Y223943D01*
X339848Y223894D01*
X339716Y223849D01*
X339582Y223808D01*
X339448Y223771D01*
X339312Y223738D01*
X339175Y223709D01*
X339038Y223683D01*
X338900Y223661D01*
X338761Y223644D01*
X338622Y223630D01*
X338482Y223620D01*
X338343Y223614D01*
X338203Y223612D01*
X333264Y223612D01*
X349259Y215710D02*
X354198Y215710D01*
X354338Y215712D01*
X354477Y215718D01*
X354617Y215728D01*
X354756Y215742D01*
X354895Y215759D01*
X355033Y215781D01*
X355170Y215807D01*
X355307Y215836D01*
X355443Y215869D01*
X355577Y215906D01*
X355711Y215947D01*
X355843Y215992D01*
X355975Y216041D01*
X356104Y216093D01*
X356232Y216148D01*
X356359Y216208D01*
X356484Y216271D01*
X356607Y216337D01*
X356728Y216407D01*
X356847Y216480D01*
X356964Y216557D01*
X357078Y216637D01*
X357191Y216720D01*
X357301Y216806D01*
X357408Y216896D01*
X357513Y216988D01*
X357615Y217083D01*
X357715Y217181D01*
X357812Y217282D01*
X357906Y217386D01*
X357996Y217492D01*
X358084Y217601D01*
X358169Y217712D01*
X358250Y217826D01*
X358329Y217941D01*
X358404Y218059D01*
X358475Y218180D01*
X358543Y218302D01*
X358608Y218425D01*
X358669Y218551D01*
X358727Y218679D01*
X358781Y218807D01*
X358831Y218938D01*
X358878Y219070D01*
X358921Y219203D01*
X358960Y219337D01*
X358995Y219472D01*
X359026Y219608D01*
X359054Y219746D01*
X359077Y219883D01*
X359097Y220022D01*
X359113Y220161D01*
X359125Y220300D01*
X359133Y220439D01*
X359137Y220579D01*
X359137Y220719D01*
X359133Y220859D01*
X359125Y220998D01*
X359113Y221137D01*
X359097Y221276D01*
X359077Y221415D01*
X359054Y221552D01*
X359026Y221690D01*
X358995Y221826D01*
X358960Y221961D01*
X358921Y222095D01*
X358878Y222228D01*
X358831Y222360D01*
X358781Y222491D01*
X358727Y222619D01*
X358669Y222747D01*
X358608Y222873D01*
X358543Y222996D01*
X358475Y223119D01*
X358404Y223239D01*
X358329Y223357D01*
X358250Y223472D01*
X358169Y223586D01*
X358084Y223697D01*
X357996Y223806D01*
X357906Y223912D01*
X357812Y224016D01*
X357715Y224117D01*
X357615Y224215D01*
X357513Y224310D01*
X357408Y224402D01*
X357301Y224492D01*
X357191Y224578D01*
X357078Y224661D01*
X356964Y224741D01*
X356847Y224818D01*
X356728Y224891D01*
X356607Y224961D01*
X356484Y225027D01*
X356359Y225090D01*
X356232Y225150D01*
X356104Y225205D01*
X355975Y225257D01*
X355843Y225306D01*
X355711Y225351D01*
X355577Y225392D01*
X355443Y225429D01*
X355307Y225462D01*
X355170Y225491D01*
X355033Y225517D01*
X354895Y225539D01*
X354756Y225556D01*
X354617Y225570D01*
X354477Y225580D01*
X354338Y225586D01*
X354198Y225588D01*
X355185Y233490D02*
X349259Y233490D01*
X355185Y233490D02*
X355309Y233488D01*
X355433Y233482D01*
X355557Y233472D01*
X355680Y233459D01*
X355803Y233441D01*
X355925Y233420D01*
X356047Y233395D01*
X356168Y233366D01*
X356287Y233333D01*
X356406Y233297D01*
X356523Y233256D01*
X356639Y233213D01*
X356754Y233165D01*
X356867Y233114D01*
X356979Y233059D01*
X357088Y233001D01*
X357196Y232940D01*
X357302Y232875D01*
X357406Y232807D01*
X357507Y232735D01*
X357607Y232661D01*
X357703Y232583D01*
X357798Y232503D01*
X357890Y232419D01*
X357979Y232333D01*
X358065Y232244D01*
X358149Y232152D01*
X358229Y232057D01*
X358307Y231961D01*
X358381Y231861D01*
X358453Y231760D01*
X358521Y231656D01*
X358586Y231550D01*
X358647Y231442D01*
X358705Y231333D01*
X358760Y231221D01*
X358811Y231108D01*
X358859Y230993D01*
X358902Y230877D01*
X358943Y230760D01*
X358979Y230641D01*
X359012Y230522D01*
X359041Y230401D01*
X359066Y230279D01*
X359087Y230157D01*
X359105Y230034D01*
X359118Y229911D01*
X359128Y229787D01*
X359134Y229663D01*
X359136Y229539D01*
X359134Y229415D01*
X359128Y229291D01*
X359118Y229167D01*
X359105Y229044D01*
X359087Y228921D01*
X359066Y228799D01*
X359041Y228677D01*
X359012Y228556D01*
X358979Y228437D01*
X358943Y228318D01*
X358902Y228201D01*
X358859Y228085D01*
X358811Y227970D01*
X358760Y227857D01*
X358705Y227745D01*
X358647Y227636D01*
X358586Y227528D01*
X358521Y227422D01*
X358453Y227318D01*
X358381Y227217D01*
X358307Y227117D01*
X358229Y227021D01*
X358149Y226926D01*
X358065Y226834D01*
X357979Y226745D01*
X357890Y226659D01*
X357798Y226575D01*
X357703Y226495D01*
X357607Y226417D01*
X357507Y226343D01*
X357406Y226271D01*
X357302Y226203D01*
X357196Y226138D01*
X357088Y226077D01*
X356979Y226019D01*
X356867Y225964D01*
X356754Y225913D01*
X356639Y225865D01*
X356523Y225822D01*
X356406Y225781D01*
X356287Y225745D01*
X356168Y225712D01*
X356047Y225683D01*
X355925Y225658D01*
X355803Y225637D01*
X355680Y225619D01*
X355557Y225606D01*
X355433Y225596D01*
X355309Y225590D01*
X355185Y225588D01*
X351234Y225588D01*
X239540Y267941D02*
X239540Y285721D01*
X244479Y285721D01*
X244619Y285719D01*
X244758Y285713D01*
X244898Y285703D01*
X245037Y285689D01*
X245176Y285672D01*
X245314Y285650D01*
X245451Y285624D01*
X245588Y285595D01*
X245724Y285562D01*
X245858Y285525D01*
X245992Y285484D01*
X246124Y285439D01*
X246256Y285390D01*
X246385Y285338D01*
X246513Y285283D01*
X246640Y285223D01*
X246765Y285160D01*
X246888Y285094D01*
X247009Y285024D01*
X247128Y284951D01*
X247245Y284874D01*
X247359Y284794D01*
X247472Y284711D01*
X247582Y284625D01*
X247689Y284535D01*
X247794Y284443D01*
X247896Y284348D01*
X247996Y284250D01*
X248093Y284149D01*
X248187Y284045D01*
X248277Y283939D01*
X248365Y283830D01*
X248450Y283719D01*
X248531Y283605D01*
X248610Y283490D01*
X248685Y283372D01*
X248756Y283252D01*
X248824Y283129D01*
X248889Y283006D01*
X248950Y282880D01*
X249008Y282752D01*
X249062Y282624D01*
X249112Y282493D01*
X249159Y282361D01*
X249202Y282228D01*
X249241Y282094D01*
X249276Y281959D01*
X249307Y281823D01*
X249335Y281685D01*
X249358Y281548D01*
X249378Y281409D01*
X249394Y281270D01*
X249406Y281131D01*
X249414Y280992D01*
X249418Y280852D01*
X249418Y280712D01*
X249414Y280572D01*
X249406Y280433D01*
X249394Y280294D01*
X249378Y280155D01*
X249358Y280016D01*
X249335Y279879D01*
X249307Y279741D01*
X249276Y279605D01*
X249241Y279470D01*
X249202Y279336D01*
X249159Y279203D01*
X249112Y279071D01*
X249062Y278940D01*
X249008Y278812D01*
X248950Y278684D01*
X248889Y278558D01*
X248824Y278435D01*
X248756Y278313D01*
X248685Y278192D01*
X248610Y278074D01*
X248531Y277959D01*
X248450Y277845D01*
X248365Y277734D01*
X248277Y277625D01*
X248187Y277519D01*
X248093Y277415D01*
X247996Y277314D01*
X247896Y277216D01*
X247794Y277121D01*
X247689Y277029D01*
X247582Y276939D01*
X247472Y276853D01*
X247359Y276770D01*
X247245Y276690D01*
X247128Y276613D01*
X247009Y276540D01*
X246888Y276470D01*
X246765Y276404D01*
X246640Y276341D01*
X246513Y276281D01*
X246385Y276226D01*
X246256Y276174D01*
X246124Y276125D01*
X245992Y276080D01*
X245858Y276039D01*
X245724Y276002D01*
X245588Y275969D01*
X245451Y275940D01*
X245314Y275914D01*
X245176Y275892D01*
X245037Y275875D01*
X244898Y275861D01*
X244758Y275851D01*
X244619Y275845D01*
X244479Y275843D01*
X239540Y275843D01*
X255535Y271892D02*
X259486Y285721D01*
X255535Y271892D02*
X265412Y271892D01*
X262449Y275843D02*
X262449Y267941D01*
X240810Y404283D02*
X240810Y422063D01*
X245749Y422063D01*
X245889Y422061D01*
X246028Y422055D01*
X246168Y422045D01*
X246307Y422031D01*
X246446Y422014D01*
X246584Y421992D01*
X246721Y421966D01*
X246858Y421937D01*
X246994Y421904D01*
X247128Y421867D01*
X247262Y421826D01*
X247394Y421781D01*
X247526Y421732D01*
X247655Y421680D01*
X247783Y421625D01*
X247910Y421565D01*
X248035Y421502D01*
X248158Y421436D01*
X248279Y421366D01*
X248398Y421293D01*
X248515Y421216D01*
X248629Y421136D01*
X248742Y421053D01*
X248852Y420967D01*
X248959Y420877D01*
X249064Y420785D01*
X249166Y420690D01*
X249266Y420592D01*
X249363Y420491D01*
X249457Y420387D01*
X249547Y420281D01*
X249635Y420172D01*
X249720Y420061D01*
X249801Y419947D01*
X249880Y419832D01*
X249955Y419714D01*
X250026Y419594D01*
X250094Y419471D01*
X250159Y419348D01*
X250220Y419222D01*
X250278Y419094D01*
X250332Y418966D01*
X250382Y418835D01*
X250429Y418703D01*
X250472Y418570D01*
X250511Y418436D01*
X250546Y418301D01*
X250577Y418165D01*
X250605Y418027D01*
X250628Y417890D01*
X250648Y417751D01*
X250664Y417612D01*
X250676Y417473D01*
X250684Y417334D01*
X250688Y417194D01*
X250688Y417054D01*
X250684Y416914D01*
X250676Y416775D01*
X250664Y416636D01*
X250648Y416497D01*
X250628Y416358D01*
X250605Y416221D01*
X250577Y416083D01*
X250546Y415947D01*
X250511Y415812D01*
X250472Y415678D01*
X250429Y415545D01*
X250382Y415413D01*
X250332Y415282D01*
X250278Y415154D01*
X250220Y415026D01*
X250159Y414900D01*
X250094Y414777D01*
X250026Y414655D01*
X249955Y414534D01*
X249880Y414416D01*
X249801Y414301D01*
X249720Y414187D01*
X249635Y414076D01*
X249547Y413967D01*
X249457Y413861D01*
X249363Y413757D01*
X249266Y413656D01*
X249166Y413558D01*
X249064Y413463D01*
X248959Y413371D01*
X248852Y413281D01*
X248742Y413195D01*
X248629Y413112D01*
X248515Y413032D01*
X248398Y412955D01*
X248279Y412882D01*
X248158Y412812D01*
X248035Y412746D01*
X247910Y412683D01*
X247783Y412623D01*
X247655Y412568D01*
X247526Y412516D01*
X247394Y412467D01*
X247262Y412422D01*
X247128Y412381D01*
X246994Y412344D01*
X246858Y412311D01*
X246721Y412282D01*
X246584Y412256D01*
X246446Y412234D01*
X246307Y412217D01*
X246168Y412203D01*
X246028Y412193D01*
X245889Y412187D01*
X245749Y412185D01*
X240810Y412185D01*
X256805Y404283D02*
X262731Y404283D01*
X262855Y404285D01*
X262979Y404291D01*
X263103Y404301D01*
X263226Y404314D01*
X263349Y404332D01*
X263471Y404353D01*
X263593Y404378D01*
X263714Y404407D01*
X263833Y404440D01*
X263952Y404476D01*
X264069Y404517D01*
X264185Y404560D01*
X264300Y404608D01*
X264413Y404659D01*
X264525Y404714D01*
X264634Y404772D01*
X264742Y404833D01*
X264848Y404898D01*
X264952Y404966D01*
X265053Y405038D01*
X265153Y405112D01*
X265249Y405190D01*
X265344Y405270D01*
X265436Y405354D01*
X265525Y405440D01*
X265611Y405529D01*
X265695Y405621D01*
X265775Y405716D01*
X265853Y405812D01*
X265927Y405912D01*
X265999Y406013D01*
X266067Y406117D01*
X266132Y406223D01*
X266193Y406331D01*
X266251Y406440D01*
X266306Y406552D01*
X266357Y406665D01*
X266405Y406780D01*
X266448Y406896D01*
X266489Y407013D01*
X266525Y407132D01*
X266558Y407251D01*
X266587Y407372D01*
X266612Y407494D01*
X266633Y407616D01*
X266651Y407739D01*
X266664Y407862D01*
X266674Y407986D01*
X266680Y408110D01*
X266682Y408234D01*
X266682Y410209D01*
X266680Y410333D01*
X266674Y410457D01*
X266664Y410581D01*
X266651Y410704D01*
X266633Y410827D01*
X266612Y410949D01*
X266587Y411071D01*
X266558Y411192D01*
X266525Y411311D01*
X266489Y411430D01*
X266448Y411547D01*
X266405Y411663D01*
X266357Y411778D01*
X266306Y411891D01*
X266251Y412003D01*
X266193Y412112D01*
X266132Y412220D01*
X266067Y412326D01*
X265999Y412430D01*
X265927Y412531D01*
X265853Y412631D01*
X265775Y412727D01*
X265695Y412822D01*
X265611Y412914D01*
X265525Y413003D01*
X265436Y413089D01*
X265344Y413173D01*
X265249Y413253D01*
X265153Y413331D01*
X265053Y413405D01*
X264952Y413477D01*
X264848Y413545D01*
X264742Y413610D01*
X264634Y413671D01*
X264525Y413729D01*
X264413Y413784D01*
X264300Y413835D01*
X264185Y413883D01*
X264069Y413926D01*
X263952Y413967D01*
X263833Y414003D01*
X263714Y414036D01*
X263593Y414065D01*
X263471Y414090D01*
X263349Y414111D01*
X263226Y414129D01*
X263103Y414142D01*
X262979Y414152D01*
X262855Y414158D01*
X262731Y414160D01*
X256805Y414160D01*
X256805Y422063D01*
X266682Y422063D01*
X333264Y458910D02*
X333264Y476690D01*
X338203Y476690D01*
X338343Y476688D01*
X338482Y476682D01*
X338622Y476672D01*
X338761Y476658D01*
X338900Y476641D01*
X339038Y476619D01*
X339175Y476593D01*
X339312Y476564D01*
X339448Y476531D01*
X339582Y476494D01*
X339716Y476453D01*
X339848Y476408D01*
X339980Y476359D01*
X340109Y476307D01*
X340237Y476252D01*
X340364Y476192D01*
X340489Y476129D01*
X340612Y476063D01*
X340733Y475993D01*
X340852Y475920D01*
X340969Y475843D01*
X341083Y475763D01*
X341196Y475680D01*
X341306Y475594D01*
X341413Y475504D01*
X341518Y475412D01*
X341620Y475317D01*
X341720Y475219D01*
X341817Y475118D01*
X341911Y475014D01*
X342001Y474908D01*
X342089Y474799D01*
X342174Y474688D01*
X342255Y474574D01*
X342334Y474459D01*
X342409Y474341D01*
X342480Y474221D01*
X342548Y474098D01*
X342613Y473975D01*
X342674Y473849D01*
X342732Y473721D01*
X342786Y473593D01*
X342836Y473462D01*
X342883Y473330D01*
X342926Y473197D01*
X342965Y473063D01*
X343000Y472928D01*
X343031Y472792D01*
X343059Y472654D01*
X343082Y472517D01*
X343102Y472378D01*
X343118Y472239D01*
X343130Y472100D01*
X343138Y471961D01*
X343142Y471821D01*
X343142Y471681D01*
X343138Y471541D01*
X343130Y471402D01*
X343118Y471263D01*
X343102Y471124D01*
X343082Y470985D01*
X343059Y470848D01*
X343031Y470710D01*
X343000Y470574D01*
X342965Y470439D01*
X342926Y470305D01*
X342883Y470172D01*
X342836Y470040D01*
X342786Y469909D01*
X342732Y469781D01*
X342674Y469653D01*
X342613Y469527D01*
X342548Y469404D01*
X342480Y469282D01*
X342409Y469161D01*
X342334Y469043D01*
X342255Y468928D01*
X342174Y468814D01*
X342089Y468703D01*
X342001Y468594D01*
X341911Y468488D01*
X341817Y468384D01*
X341720Y468283D01*
X341620Y468185D01*
X341518Y468090D01*
X341413Y467998D01*
X341306Y467908D01*
X341196Y467822D01*
X341083Y467739D01*
X340969Y467659D01*
X340852Y467582D01*
X340733Y467509D01*
X340612Y467439D01*
X340489Y467373D01*
X340364Y467310D01*
X340237Y467250D01*
X340109Y467195D01*
X339980Y467143D01*
X339848Y467094D01*
X339716Y467049D01*
X339582Y467008D01*
X339448Y466971D01*
X339312Y466938D01*
X339175Y466909D01*
X339038Y466883D01*
X338900Y466861D01*
X338761Y466844D01*
X338622Y466830D01*
X338482Y466820D01*
X338343Y466814D01*
X338203Y466812D01*
X333264Y466812D01*
X349259Y468788D02*
X355185Y468788D01*
X355309Y468786D01*
X355433Y468780D01*
X355557Y468770D01*
X355680Y468757D01*
X355803Y468739D01*
X355925Y468718D01*
X356047Y468693D01*
X356168Y468664D01*
X356287Y468631D01*
X356406Y468595D01*
X356523Y468554D01*
X356639Y468511D01*
X356754Y468463D01*
X356867Y468412D01*
X356979Y468357D01*
X357088Y468299D01*
X357196Y468238D01*
X357302Y468173D01*
X357406Y468105D01*
X357507Y468033D01*
X357607Y467959D01*
X357703Y467881D01*
X357798Y467801D01*
X357890Y467717D01*
X357979Y467631D01*
X358065Y467542D01*
X358149Y467450D01*
X358229Y467355D01*
X358307Y467259D01*
X358381Y467159D01*
X358453Y467058D01*
X358521Y466954D01*
X358586Y466848D01*
X358647Y466740D01*
X358705Y466631D01*
X358760Y466519D01*
X358811Y466406D01*
X358859Y466291D01*
X358902Y466175D01*
X358943Y466058D01*
X358979Y465939D01*
X359012Y465820D01*
X359041Y465699D01*
X359066Y465577D01*
X359087Y465455D01*
X359105Y465332D01*
X359118Y465209D01*
X359128Y465085D01*
X359134Y464961D01*
X359136Y464837D01*
X359136Y463849D01*
X359137Y463849D02*
X359135Y463709D01*
X359129Y463570D01*
X359119Y463430D01*
X359105Y463291D01*
X359088Y463152D01*
X359066Y463014D01*
X359040Y462877D01*
X359011Y462740D01*
X358978Y462604D01*
X358941Y462470D01*
X358900Y462336D01*
X358855Y462204D01*
X358806Y462072D01*
X358754Y461943D01*
X358699Y461815D01*
X358639Y461688D01*
X358576Y461563D01*
X358510Y461440D01*
X358440Y461319D01*
X358367Y461200D01*
X358290Y461083D01*
X358210Y460969D01*
X358127Y460856D01*
X358041Y460746D01*
X357951Y460639D01*
X357859Y460534D01*
X357764Y460432D01*
X357666Y460332D01*
X357565Y460235D01*
X357461Y460141D01*
X357355Y460051D01*
X357246Y459963D01*
X357135Y459878D01*
X357021Y459797D01*
X356906Y459718D01*
X356788Y459643D01*
X356668Y459572D01*
X356545Y459504D01*
X356422Y459439D01*
X356296Y459378D01*
X356168Y459320D01*
X356040Y459266D01*
X355909Y459216D01*
X355777Y459169D01*
X355644Y459126D01*
X355510Y459087D01*
X355375Y459052D01*
X355239Y459021D01*
X355101Y458993D01*
X354964Y458970D01*
X354825Y458950D01*
X354686Y458934D01*
X354547Y458922D01*
X354408Y458914D01*
X354268Y458910D01*
X354128Y458910D01*
X353988Y458914D01*
X353849Y458922D01*
X353710Y458934D01*
X353571Y458950D01*
X353432Y458970D01*
X353295Y458993D01*
X353157Y459021D01*
X353021Y459052D01*
X352886Y459087D01*
X352752Y459126D01*
X352619Y459169D01*
X352487Y459216D01*
X352356Y459266D01*
X352228Y459320D01*
X352100Y459378D01*
X351974Y459439D01*
X351851Y459504D01*
X351729Y459572D01*
X351608Y459643D01*
X351490Y459718D01*
X351375Y459797D01*
X351261Y459878D01*
X351150Y459963D01*
X351041Y460051D01*
X350935Y460141D01*
X350831Y460235D01*
X350730Y460332D01*
X350632Y460432D01*
X350537Y460534D01*
X350445Y460639D01*
X350355Y460746D01*
X350269Y460856D01*
X350186Y460969D01*
X350106Y461083D01*
X350029Y461200D01*
X349956Y461319D01*
X349886Y461440D01*
X349820Y461563D01*
X349757Y461688D01*
X349697Y461815D01*
X349642Y461943D01*
X349590Y462072D01*
X349541Y462204D01*
X349496Y462336D01*
X349455Y462470D01*
X349418Y462604D01*
X349385Y462740D01*
X349356Y462877D01*
X349330Y463014D01*
X349308Y463152D01*
X349291Y463291D01*
X349277Y463430D01*
X349267Y463570D01*
X349261Y463709D01*
X349259Y463849D01*
X349259Y468788D01*
X349261Y468982D01*
X349269Y469176D01*
X349280Y469369D01*
X349297Y469563D01*
X349318Y469755D01*
X349345Y469947D01*
X349375Y470139D01*
X349411Y470330D01*
X349451Y470519D01*
X349496Y470708D01*
X349545Y470896D01*
X349599Y471082D01*
X349658Y471267D01*
X349721Y471450D01*
X349788Y471632D01*
X349861Y471812D01*
X349937Y471990D01*
X350018Y472167D01*
X350103Y472341D01*
X350192Y472513D01*
X350286Y472683D01*
X350383Y472850D01*
X350485Y473016D01*
X350591Y473178D01*
X350700Y473338D01*
X350814Y473495D01*
X350931Y473650D01*
X351053Y473801D01*
X351178Y473949D01*
X351306Y474095D01*
X351438Y474237D01*
X351573Y474376D01*
X351712Y474511D01*
X351854Y474643D01*
X352000Y474771D01*
X352148Y474896D01*
X352299Y475018D01*
X352454Y475135D01*
X352611Y475249D01*
X352771Y475358D01*
X352933Y475464D01*
X353099Y475566D01*
X353266Y475663D01*
X353436Y475757D01*
X353608Y475846D01*
X353782Y475931D01*
X353959Y476012D01*
X354137Y476088D01*
X354317Y476161D01*
X354499Y476228D01*
X354682Y476291D01*
X354867Y476350D01*
X355053Y476404D01*
X355241Y476453D01*
X355430Y476498D01*
X355619Y476538D01*
X355810Y476574D01*
X356002Y476604D01*
X356194Y476631D01*
X356386Y476652D01*
X356580Y476669D01*
X356773Y476680D01*
X356967Y476688D01*
X357161Y476690D01*
D12*
X379590Y305181D03*
D13*
X438340Y305181D03*
D14*
X379362Y305410D03*
D15*
X438226Y305410D03*
D14*
X379362Y305638D03*
D15*
X438226Y305638D03*
D16*
X379590Y305867D03*
X438112Y305867D03*
D17*
X379705Y306095D03*
D18*
X438340Y306095D03*
D19*
X379705Y306324D03*
D20*
X438340Y306324D03*
D21*
X379933Y306553D03*
X438455Y306553D03*
X379933Y306781D03*
X438455Y306781D03*
X379933Y307010D03*
X438455Y307010D03*
D22*
X380048Y307238D03*
D23*
X438912Y307238D03*
D24*
X240944Y307467D03*
D25*
X251460Y307467D03*
D26*
X266548Y307467D03*
D25*
X283693Y307467D03*
D26*
X304952Y307467D03*
D27*
X312839Y307467D03*
D28*
X326326Y307467D03*
D29*
X338557Y307467D03*
D30*
X346329Y307467D03*
D31*
X360159Y307467D03*
D21*
X380162Y307467D03*
D28*
X394906Y307467D03*
D32*
X402565Y307467D03*
D33*
X406565Y307467D03*
X412051Y307467D03*
D34*
X421538Y307467D03*
D32*
X430911Y307467D03*
D21*
X438912Y307467D03*
D30*
X449885Y307467D03*
D33*
X456628Y307467D03*
D24*
X240944Y307696D03*
D25*
X251460Y307696D03*
D26*
X266548Y307696D03*
D25*
X283693Y307696D03*
D26*
X304952Y307696D03*
D27*
X312839Y307696D03*
D28*
X326326Y307696D03*
D29*
X338557Y307696D03*
D30*
X346329Y307696D03*
D31*
X360159Y307696D03*
D21*
X380162Y307696D03*
D28*
X394906Y307696D03*
D32*
X402565Y307696D03*
D33*
X406565Y307696D03*
X412051Y307696D03*
D34*
X421538Y307696D03*
D32*
X430911Y307696D03*
D21*
X438912Y307696D03*
D30*
X449885Y307696D03*
D33*
X456628Y307696D03*
D35*
X241287Y307924D03*
D36*
X251346Y307924D03*
D28*
X258889Y307924D03*
D37*
X266548Y307924D03*
D38*
X272034Y307924D03*
D28*
X278320Y307924D03*
D32*
X283921Y307924D03*
D36*
X296151Y307924D03*
D37*
X304952Y307924D03*
D28*
X312610Y307924D03*
D12*
X326326Y307924D03*
D36*
X332270Y307924D03*
D39*
X338214Y307924D03*
D40*
X346329Y307924D03*
D41*
X360159Y307924D03*
D36*
X371589Y307924D03*
D42*
X377304Y307924D03*
D12*
X381876Y307924D03*
D28*
X388048Y307924D03*
D12*
X394906Y307924D03*
D31*
X402679Y307924D03*
D38*
X407137Y307924D03*
D28*
X412051Y307924D03*
D26*
X421538Y307924D03*
D30*
X430911Y307924D03*
D29*
X435940Y307924D03*
D12*
X440855Y307924D03*
D40*
X449885Y307924D03*
D32*
X456743Y307924D03*
D43*
X241630Y308153D03*
D36*
X251346Y308153D03*
D28*
X258889Y308153D03*
D40*
X266319Y308153D03*
D38*
X272034Y308153D03*
D26*
X278206Y308153D03*
D31*
X284036Y308153D03*
D26*
X296037Y308153D03*
D44*
X304952Y308153D03*
D28*
X312610Y308153D03*
D45*
X326555Y308153D03*
D36*
X332270Y308153D03*
D39*
X338214Y308153D03*
D24*
X346329Y308153D03*
D35*
X360616Y308153D03*
D36*
X371589Y308153D03*
D46*
X376618Y308153D03*
D30*
X382676Y308153D03*
D28*
X388048Y308153D03*
D45*
X395135Y308153D03*
D47*
X404393Y308153D03*
D28*
X412051Y308153D03*
D26*
X421538Y308153D03*
D30*
X430911Y308153D03*
D48*
X435254Y308153D03*
D26*
X441427Y308153D03*
D15*
X449885Y308153D03*
D28*
X456628Y308153D03*
D49*
X241630Y308381D03*
D50*
X251346Y308381D03*
D51*
X258889Y308381D03*
D52*
X266319Y308381D03*
D53*
X272034Y308381D03*
D54*
X278206Y308381D03*
D55*
X284036Y308381D03*
D54*
X296037Y308381D03*
D56*
X304952Y308381D03*
D51*
X312610Y308381D03*
D57*
X326555Y308381D03*
D50*
X332270Y308381D03*
D58*
X338214Y308381D03*
D59*
X346329Y308381D03*
D60*
X360616Y308381D03*
D50*
X371589Y308381D03*
D61*
X376618Y308381D03*
D62*
X382676Y308381D03*
D51*
X388048Y308381D03*
D57*
X395135Y308381D03*
D63*
X404393Y308381D03*
D51*
X412051Y308381D03*
D54*
X421538Y308381D03*
D62*
X430911Y308381D03*
D64*
X435254Y308381D03*
D54*
X441427Y308381D03*
D65*
X449885Y308381D03*
D51*
X456628Y308381D03*
D66*
X241859Y308610D03*
D36*
X251346Y308610D03*
D28*
X258889Y308610D03*
D67*
X266205Y308610D03*
D38*
X272034Y308610D03*
D26*
X278206Y308610D03*
D30*
X284150Y308610D03*
D26*
X296037Y308610D03*
D68*
X304952Y308610D03*
D28*
X312610Y308610D03*
D40*
X326441Y308610D03*
D36*
X332270Y308610D03*
D39*
X338214Y308610D03*
D69*
X346100Y308610D03*
D43*
X360959Y308610D03*
D36*
X371589Y308610D03*
D32*
X378790Y308610D03*
D36*
X383019Y308610D03*
D28*
X388048Y308610D03*
D40*
X395021Y308610D03*
D35*
X404279Y308610D03*
D28*
X412051Y308610D03*
D30*
X421767Y308610D03*
X430911Y308610D03*
D32*
X437540Y308610D03*
D28*
X441541Y308610D03*
D69*
X449656Y308610D03*
D28*
X456628Y308610D03*
D70*
X241973Y308839D03*
D36*
X251346Y308839D03*
D28*
X258889Y308839D03*
D71*
X265976Y308839D03*
D38*
X272034Y308839D03*
D30*
X277978Y308839D03*
D12*
X284264Y308839D03*
D26*
X296037Y308839D03*
D69*
X304952Y308839D03*
D28*
X312610Y308839D03*
D67*
X326555Y308839D03*
D36*
X332270Y308839D03*
D39*
X338214Y308839D03*
D16*
X345986Y308839D03*
D66*
X361188Y308839D03*
D36*
X371589Y308839D03*
D41*
X380733Y308839D03*
D28*
X388048Y308839D03*
D67*
X395135Y308839D03*
D35*
X404279Y308839D03*
D28*
X412051Y308839D03*
D30*
X421767Y308839D03*
X430682Y308839D03*
D19*
X439369Y308839D03*
D16*
X449542Y308839D03*
D28*
X456628Y308839D03*
D70*
X241973Y309067D03*
D36*
X251346Y309067D03*
D28*
X258889Y309067D03*
D71*
X265976Y309067D03*
D38*
X272034Y309067D03*
D30*
X277978Y309067D03*
D12*
X284264Y309067D03*
D26*
X296037Y309067D03*
D69*
X304952Y309067D03*
D28*
X312610Y309067D03*
D67*
X326555Y309067D03*
D36*
X332270Y309067D03*
D39*
X338214Y309067D03*
D16*
X345986Y309067D03*
D66*
X361188Y309067D03*
D36*
X371589Y309067D03*
D41*
X380733Y309067D03*
D28*
X388048Y309067D03*
D67*
X395135Y309067D03*
D35*
X404279Y309067D03*
D28*
X412051Y309067D03*
D30*
X421767Y309067D03*
X430682Y309067D03*
D19*
X439369Y309067D03*
D16*
X449542Y309067D03*
D28*
X456628Y309067D03*
D72*
X242202Y309296D03*
D36*
X251346Y309296D03*
D28*
X258889Y309296D03*
D68*
X265862Y309296D03*
D38*
X272034Y309296D03*
D31*
X277863Y309296D03*
D37*
X284378Y309296D03*
D26*
X296037Y309296D03*
D19*
X304952Y309296D03*
D28*
X312610Y309296D03*
D67*
X326555Y309296D03*
D36*
X332270Y309296D03*
D39*
X338214Y309296D03*
D20*
X345757Y309296D03*
D70*
X361302Y309296D03*
D36*
X371589Y309296D03*
D47*
X380390Y309296D03*
D28*
X388048Y309296D03*
D67*
X395135Y309296D03*
D73*
X404050Y309296D03*
D28*
X412051Y309296D03*
D31*
X421881Y309296D03*
D30*
X430682Y309296D03*
D21*
X439141Y309296D03*
D41*
X449313Y309296D03*
D28*
X456628Y309296D03*
D74*
X242316Y309524D03*
D50*
X251346Y309524D03*
D51*
X258889Y309524D03*
D65*
X265633Y309524D03*
D53*
X272034Y309524D03*
D54*
X277520Y309524D03*
D52*
X284150Y309524D03*
D54*
X296037Y309524D03*
D63*
X304952Y309524D03*
D51*
X312610Y309524D03*
D75*
X326555Y309524D03*
D50*
X332270Y309524D03*
D58*
X338214Y309524D03*
D18*
X345757Y309524D03*
D76*
X361531Y309524D03*
D50*
X371589Y309524D03*
D60*
X380276Y309524D03*
D51*
X388048Y309524D03*
D75*
X395135Y309524D03*
D49*
X403936Y309524D03*
D51*
X412051Y309524D03*
D62*
X421996Y309524D03*
X430682Y309524D03*
D22*
X439026Y309524D03*
D77*
X449313Y309524D03*
D51*
X456628Y309524D03*
D78*
X242316Y309753D03*
D36*
X251346Y309753D03*
D28*
X258889Y309753D03*
D15*
X265633Y309753D03*
D38*
X272034Y309753D03*
D26*
X277520Y309753D03*
D40*
X284150Y309753D03*
D26*
X296037Y309753D03*
D47*
X304952Y309753D03*
D28*
X312610Y309753D03*
D67*
X326555Y309753D03*
D36*
X332270Y309753D03*
D39*
X338214Y309753D03*
D20*
X345757Y309753D03*
D72*
X361531Y309753D03*
D36*
X371589Y309753D03*
D35*
X380276Y309753D03*
D28*
X388048Y309753D03*
D67*
X395135Y309753D03*
D43*
X403936Y309753D03*
D28*
X412051Y309753D03*
D30*
X421996Y309753D03*
X430682Y309753D03*
D79*
X439026Y309753D03*
D41*
X449313Y309753D03*
D28*
X456628Y309753D03*
D78*
X242316Y309982D03*
D36*
X251346Y309982D03*
D28*
X258889Y309982D03*
D14*
X265519Y309982D03*
D38*
X272034Y309982D03*
D80*
X277063Y309982D03*
D44*
X284378Y309982D03*
D26*
X296037Y309982D03*
D47*
X304952Y309982D03*
D28*
X312610Y309982D03*
D67*
X326555Y309982D03*
D36*
X332270Y309982D03*
D39*
X338214Y309982D03*
D19*
X345415Y309982D03*
D81*
X361645Y309982D03*
D36*
X371589Y309982D03*
D35*
X380276Y309982D03*
D28*
X388048Y309982D03*
D67*
X395135Y309982D03*
D43*
X403936Y309982D03*
D28*
X412051Y309982D03*
D82*
X426339Y309982D03*
D35*
X438798Y309982D03*
D19*
X448970Y309982D03*
D28*
X456628Y309982D03*
D78*
X242316Y310210D03*
D36*
X251346Y310210D03*
D83*
X258661Y310210D03*
D15*
X265405Y310210D03*
D84*
X274777Y310210D03*
D40*
X284607Y310210D03*
D26*
X296037Y310210D03*
D35*
X304838Y310210D03*
D28*
X312610Y310210D03*
D67*
X326555Y310210D03*
D36*
X332270Y310210D03*
D39*
X338214Y310210D03*
D30*
X343586Y310210D03*
D29*
X348158Y310210D03*
D81*
X361645Y310210D03*
D36*
X371589Y310210D03*
D73*
X380047Y310210D03*
D28*
X388048Y310210D03*
D85*
X400507Y310210D03*
D28*
X412051Y310210D03*
D82*
X426339Y310210D03*
D86*
X438683Y310210D03*
D30*
X447142Y310210D03*
D29*
X451714Y310210D03*
D28*
X456628Y310210D03*
D78*
X242316Y310439D03*
D36*
X251346Y310439D03*
D83*
X258661Y310439D03*
D15*
X265405Y310439D03*
D84*
X274777Y310439D03*
D40*
X284607Y310439D03*
D26*
X296037Y310439D03*
D35*
X304838Y310439D03*
D28*
X312610Y310439D03*
D67*
X326555Y310439D03*
D36*
X332270Y310439D03*
D39*
X338214Y310439D03*
D30*
X343586Y310439D03*
D29*
X348158Y310439D03*
D81*
X361645Y310439D03*
D36*
X371589Y310439D03*
D73*
X380047Y310439D03*
D28*
X388048Y310439D03*
D85*
X400507Y310439D03*
D28*
X412051Y310439D03*
D82*
X426339Y310439D03*
D86*
X438683Y310439D03*
D30*
X447142Y310439D03*
D29*
X451714Y310439D03*
D28*
X456628Y310439D03*
D87*
X242773Y310667D03*
D50*
X251346Y310667D03*
D88*
X258661Y310667D03*
D65*
X265405Y310667D03*
D23*
X274549Y310667D03*
D55*
X285407Y310667D03*
D54*
X296037Y310667D03*
D89*
X304952Y310667D03*
D51*
X312610Y310667D03*
D75*
X326555Y310667D03*
D50*
X332270Y310667D03*
D58*
X338214Y310667D03*
D55*
X343014Y310667D03*
D90*
X348501Y310667D03*
D91*
X361874Y310667D03*
D50*
X371589Y310667D03*
D49*
X379933Y310667D03*
D51*
X388048Y310667D03*
D92*
X400507Y310667D03*
D51*
X412051Y310667D03*
D93*
X426339Y310667D03*
D89*
X438683Y310667D03*
D55*
X446570Y310667D03*
D61*
X452056Y310667D03*
D51*
X456628Y310667D03*
D80*
X239344Y310896D03*
D94*
X245631Y310896D03*
D36*
X251346Y310896D03*
D83*
X258661Y310896D03*
D15*
X265405Y310896D03*
D84*
X274777Y310896D03*
D36*
X285636Y310896D03*
D26*
X296037Y310896D03*
D30*
X302438Y310896D03*
X307467Y310896D03*
D28*
X312610Y310896D03*
D26*
X325526Y310896D03*
D48*
X328955Y310896D03*
D36*
X332270Y310896D03*
D39*
X338214Y310896D03*
D36*
X342786Y310896D03*
D95*
X358445Y310896D03*
D40*
X364846Y310896D03*
D36*
X371589Y310896D03*
D43*
X379933Y310896D03*
D28*
X388048Y310896D03*
D26*
X394106Y310896D03*
D71*
X400164Y310896D03*
D95*
X406451Y310896D03*
D28*
X412051Y310896D03*
D96*
X426339Y310896D03*
D43*
X438455Y310896D03*
D28*
X446341Y310896D03*
D32*
X456743Y310896D03*
D80*
X239344Y311125D03*
D94*
X245631Y311125D03*
D36*
X251346Y311125D03*
D83*
X258661Y311125D03*
D15*
X265405Y311125D03*
D84*
X274777Y311125D03*
D36*
X285636Y311125D03*
D26*
X296037Y311125D03*
D30*
X302438Y311125D03*
X307467Y311125D03*
D28*
X312610Y311125D03*
D26*
X325526Y311125D03*
D48*
X328955Y311125D03*
D36*
X332270Y311125D03*
D39*
X338214Y311125D03*
D36*
X342786Y311125D03*
D95*
X358445Y311125D03*
D40*
X364846Y311125D03*
D36*
X371589Y311125D03*
D43*
X379933Y311125D03*
D28*
X388048Y311125D03*
D26*
X394106Y311125D03*
D71*
X400164Y311125D03*
D95*
X406451Y311125D03*
D28*
X412051Y311125D03*
D96*
X426339Y311125D03*
D43*
X438455Y311125D03*
D28*
X446341Y311125D03*
D32*
X456743Y311125D03*
D36*
X239001Y311353D03*
D80*
X246202Y311353D03*
D36*
X251346Y311353D03*
D83*
X258661Y311353D03*
D26*
X263804Y311353D03*
D35*
X274891Y311353D03*
D31*
X285407Y311353D03*
D36*
X295923Y311353D03*
D28*
X302095Y311353D03*
X307810Y311353D03*
X312610Y311353D03*
D36*
X325412Y311353D03*
X332270Y311353D03*
D39*
X338214Y311353D03*
D41*
X345072Y311353D03*
D36*
X357873Y311353D03*
D12*
X365417Y311353D03*
D83*
X371818Y311353D03*
D43*
X379933Y311353D03*
D28*
X388048Y311353D03*
D36*
X393992Y311353D03*
D31*
X400622Y311353D03*
X406794Y311353D03*
D28*
X412051Y311353D03*
D96*
X426339Y311353D03*
D43*
X438455Y311353D03*
D20*
X448627Y311353D03*
D33*
X456628Y311353D03*
D36*
X239001Y311582D03*
D31*
X246317Y311582D03*
D36*
X251346Y311582D03*
D83*
X258661Y311582D03*
D36*
X263690Y311582D03*
D73*
X275120Y311582D03*
D30*
X285293Y311582D03*
D36*
X295923Y311582D03*
X301638Y311582D03*
D28*
X307810Y311582D03*
X312610Y311582D03*
D83*
X325183Y311582D03*
D36*
X332270Y311582D03*
D39*
X338214Y311582D03*
D35*
X345529Y311582D03*
D36*
X357873Y311582D03*
D13*
X365646Y311582D03*
D83*
X371818Y311582D03*
D43*
X379933Y311582D03*
D28*
X388048Y311582D03*
D83*
X393763Y311582D03*
D28*
X400393Y311582D03*
D36*
X407022Y311582D03*
D28*
X412051Y311582D03*
D96*
X426339Y311582D03*
D43*
X438455Y311582D03*
D35*
X449085Y311582D03*
D50*
X239001Y311810D03*
D55*
X246317Y311810D03*
D50*
X251346Y311810D03*
D88*
X258661Y311810D03*
D50*
X263690Y311810D03*
D97*
X275120Y311810D03*
D62*
X285293Y311810D03*
D50*
X295923Y311810D03*
X301638Y311810D03*
D51*
X307810Y311810D03*
X312610Y311810D03*
D88*
X325183Y311810D03*
D50*
X332270Y311810D03*
D58*
X338214Y311810D03*
D60*
X345529Y311810D03*
D50*
X357873Y311810D03*
D98*
X365646Y311810D03*
D88*
X371818Y311810D03*
D49*
X379933Y311810D03*
D51*
X388048Y311810D03*
D88*
X393763Y311810D03*
D51*
X400393Y311810D03*
D50*
X407022Y311810D03*
D51*
X412051Y311810D03*
D99*
X426339Y311810D03*
D49*
X438455Y311810D03*
D60*
X449085Y311810D03*
D36*
X239001Y312039D03*
D31*
X246317Y312039D03*
D36*
X251346Y312039D03*
D83*
X258661Y312039D03*
D31*
X263462Y312039D03*
D43*
X275234Y312039D03*
D30*
X284836Y312039D03*
D36*
X295923Y312039D03*
X301638Y312039D03*
D83*
X308038Y312039D03*
D28*
X312610Y312039D03*
D83*
X325183Y312039D03*
D36*
X332270Y312039D03*
D39*
X338214Y312039D03*
D35*
X345529Y312039D03*
D36*
X357873Y312039D03*
D95*
X365989Y312039D03*
D83*
X371818Y312039D03*
D100*
X376961Y312039D03*
D95*
X382448Y312039D03*
D28*
X388048Y312039D03*
D83*
X393763Y312039D03*
D38*
X400279Y312039D03*
D36*
X407022Y312039D03*
D28*
X412051Y312039D03*
D101*
X426339Y312039D03*
D43*
X438455Y312039D03*
D35*
X449085Y312039D03*
D36*
X239001Y312268D03*
D31*
X246317Y312268D03*
D36*
X251346Y312268D03*
D83*
X258661Y312268D03*
D28*
X263233Y312268D03*
D31*
X272377Y312268D03*
D12*
X278092Y312268D03*
D30*
X284836Y312268D03*
D36*
X295923Y312268D03*
D38*
X301523Y312268D03*
D83*
X308038Y312268D03*
D28*
X312610Y312268D03*
D83*
X325183Y312268D03*
D36*
X332270Y312268D03*
D39*
X338214Y312268D03*
D35*
X345529Y312268D03*
D36*
X357873Y312268D03*
D80*
X366217Y312268D03*
D83*
X371818Y312268D03*
D31*
X376619Y312268D03*
X382791Y312268D03*
D28*
X388048Y312268D03*
D83*
X393763Y312268D03*
D38*
X400279Y312268D03*
D32*
X406908Y312268D03*
D28*
X412051Y312268D03*
D101*
X426339Y312268D03*
D30*
X435483Y312268D03*
D28*
X441541Y312268D03*
D35*
X449085Y312268D03*
D102*
X456743Y312268D03*
D36*
X239001Y312496D03*
D31*
X246317Y312496D03*
D36*
X251346Y312496D03*
D83*
X258661Y312496D03*
D28*
X263233Y312496D03*
D31*
X272377Y312496D03*
D12*
X278092Y312496D03*
D30*
X284836Y312496D03*
D36*
X295923Y312496D03*
D38*
X301523Y312496D03*
D83*
X308038Y312496D03*
D28*
X312610Y312496D03*
D83*
X325183Y312496D03*
D36*
X332270Y312496D03*
D39*
X338214Y312496D03*
D35*
X345529Y312496D03*
D36*
X357873Y312496D03*
D80*
X366217Y312496D03*
D83*
X371818Y312496D03*
D31*
X376619Y312496D03*
X382791Y312496D03*
D28*
X388048Y312496D03*
D83*
X393763Y312496D03*
D38*
X400279Y312496D03*
D32*
X406908Y312496D03*
D28*
X412051Y312496D03*
D101*
X426339Y312496D03*
D30*
X435483Y312496D03*
D28*
X441541Y312496D03*
D35*
X449085Y312496D03*
D102*
X456743Y312496D03*
D36*
X239001Y312725D03*
D31*
X246317Y312725D03*
D36*
X251346Y312725D03*
D83*
X258661Y312725D03*
D28*
X263233Y312725D03*
D38*
X272034Y312725D03*
D31*
X278549Y312725D03*
D30*
X284607Y312725D03*
D36*
X295923Y312725D03*
D38*
X301523Y312725D03*
D83*
X308038Y312725D03*
D28*
X312610Y312725D03*
D83*
X325183Y312725D03*
D36*
X332270Y312725D03*
D39*
X338214Y312725D03*
D35*
X345529Y312725D03*
D36*
X357873Y312725D03*
D31*
X366332Y312725D03*
D83*
X371818Y312725D03*
D28*
X376390Y312725D03*
D36*
X383019Y312725D03*
D28*
X388048Y312725D03*
D83*
X393763Y312725D03*
D38*
X400279Y312725D03*
D32*
X406908Y312725D03*
D28*
X412051Y312725D03*
D70*
X426225Y312725D03*
D26*
X435254Y312725D03*
D28*
X441541Y312725D03*
D35*
X449085Y312725D03*
D103*
X456514Y312725D03*
D50*
X239001Y312953D03*
D104*
X246202Y312953D03*
D62*
X251689Y312953D03*
D105*
X255232Y312953D03*
D88*
X258661Y312953D03*
D55*
X263462Y312953D03*
D50*
X272148Y312953D03*
D54*
X278892Y312953D03*
D62*
X284150Y312953D03*
D50*
X295923Y312953D03*
X301638Y312953D03*
D88*
X308038Y312953D03*
D62*
X312953Y312953D03*
D106*
X316611Y312953D03*
D88*
X325183Y312953D03*
D50*
X332270Y312953D03*
D58*
X338214Y312953D03*
D60*
X345529Y312953D03*
D50*
X357873Y312953D03*
D55*
X366332Y312953D03*
D88*
X371818Y312953D03*
D51*
X376390Y312953D03*
D53*
X383134Y312953D03*
D51*
X388048Y312953D03*
D88*
X393763Y312953D03*
D53*
X400279Y312953D03*
D58*
X406794Y312953D03*
D51*
X412051Y312953D03*
D107*
X426339Y312953D03*
D50*
X435140Y312953D03*
D88*
X441769Y312953D03*
D60*
X449085Y312953D03*
D108*
X456628Y312953D03*
D36*
X239001Y313182D03*
D80*
X246202Y313182D03*
D30*
X251689Y313182D03*
D109*
X255232Y313182D03*
D83*
X258661Y313182D03*
D31*
X263462Y313182D03*
D36*
X272148Y313182D03*
D26*
X278892Y313182D03*
D30*
X284150Y313182D03*
D36*
X295923Y313182D03*
X301638Y313182D03*
D83*
X308038Y313182D03*
D30*
X312953Y313182D03*
D110*
X316611Y313182D03*
D83*
X325183Y313182D03*
D36*
X332270Y313182D03*
D39*
X338214Y313182D03*
D35*
X345529Y313182D03*
D36*
X357873Y313182D03*
D31*
X366332Y313182D03*
D83*
X371818Y313182D03*
D28*
X376390Y313182D03*
D38*
X383134Y313182D03*
D28*
X388048Y313182D03*
D83*
X393763Y313182D03*
D38*
X400279Y313182D03*
D39*
X406794Y313182D03*
D28*
X412051Y313182D03*
D66*
X426339Y313182D03*
D36*
X435140Y313182D03*
D83*
X441769Y313182D03*
D35*
X449085Y313182D03*
D33*
X456628Y313182D03*
D26*
X239116Y313411D03*
D94*
X245631Y313411D03*
D71*
X252717Y313411D03*
D83*
X258661Y313411D03*
D36*
X263690Y313411D03*
X272148Y313411D03*
D26*
X278892Y313411D03*
D31*
X284036Y313411D03*
D36*
X295923Y313411D03*
D83*
X301866Y313411D03*
D28*
X307810Y313411D03*
D71*
X313982Y313411D03*
D83*
X325183Y313411D03*
D36*
X332270Y313411D03*
D39*
X338214Y313411D03*
D35*
X345529Y313411D03*
D36*
X357873Y313411D03*
D26*
X366674Y313411D03*
D83*
X371818Y313411D03*
D28*
X376390Y313411D03*
D36*
X383019Y313411D03*
D28*
X388048Y313411D03*
D83*
X393763Y313411D03*
D28*
X400393Y313411D03*
D39*
X406794Y313411D03*
D28*
X412051Y313411D03*
D80*
X423367Y313411D03*
D30*
X429311Y313411D03*
D26*
X435254Y313411D03*
D28*
X441541Y313411D03*
D35*
X449085Y313411D03*
D33*
X456628Y313411D03*
D101*
X242545Y313639D03*
D71*
X252717Y313639D03*
D83*
X258661Y313639D03*
D26*
X263804Y313639D03*
D80*
X272491Y313639D03*
D30*
X278663Y313639D03*
D31*
X284036Y313639D03*
D37*
X296723Y313639D03*
D28*
X302095Y313639D03*
X307810Y313639D03*
D71*
X313982Y313639D03*
D28*
X324955Y313639D03*
D26*
X332384Y313639D03*
D36*
X337985Y313639D03*
D38*
X342671Y313639D03*
D36*
X348272Y313639D03*
X357873Y313639D03*
D26*
X366674Y313639D03*
D83*
X371818Y313639D03*
D31*
X376619Y313639D03*
X382791Y313639D03*
D28*
X388048Y313639D03*
X393535Y313639D03*
D31*
X400622Y313639D03*
X406794Y313639D03*
D28*
X412051Y313639D03*
X423481Y313639D03*
D26*
X429082Y313639D03*
D30*
X435483Y313639D03*
D28*
X441541Y313639D03*
D38*
X446227Y313639D03*
D28*
X451828Y313639D03*
D29*
X456514Y313639D03*
D101*
X242545Y313868D03*
D71*
X252717Y313868D03*
D83*
X258661Y313868D03*
D26*
X263804Y313868D03*
D80*
X272491Y313868D03*
D30*
X278663Y313868D03*
D31*
X284036Y313868D03*
D37*
X296723Y313868D03*
D28*
X302095Y313868D03*
X307810Y313868D03*
D71*
X313982Y313868D03*
D28*
X324955Y313868D03*
D26*
X332384Y313868D03*
D36*
X337985Y313868D03*
D38*
X342671Y313868D03*
D36*
X348272Y313868D03*
X357873Y313868D03*
D26*
X366674Y313868D03*
D83*
X371818Y313868D03*
D31*
X376619Y313868D03*
X382791Y313868D03*
D28*
X388048Y313868D03*
X393535Y313868D03*
D31*
X400622Y313868D03*
X406794Y313868D03*
D28*
X412051Y313868D03*
X423481Y313868D03*
D26*
X429082Y313868D03*
D30*
X435483Y313868D03*
D28*
X441541Y313868D03*
D38*
X446227Y313868D03*
D28*
X451828Y313868D03*
D29*
X456514Y313868D03*
D111*
X242545Y314096D03*
D112*
X252717Y314096D03*
D88*
X258661Y314096D03*
D98*
X264147Y314096D03*
D113*
X268148Y314096D03*
D114*
X272834Y314096D03*
D98*
X278549Y314096D03*
D51*
X283807Y314096D03*
D91*
X298780Y314096D03*
D62*
X307467Y314096D03*
D112*
X313982Y314096D03*
D115*
X325869Y314096D03*
D98*
X332727Y314096D03*
D54*
X337871Y314096D03*
D53*
X342671Y314096D03*
D50*
X348272Y314096D03*
X357873Y314096D03*
D54*
X366674Y314096D03*
D50*
X371589Y314096D03*
D116*
X376961Y314096D03*
D117*
X382448Y314096D03*
D51*
X388048Y314096D03*
D115*
X394449Y314096D03*
D116*
X400964Y314096D03*
D117*
X406451Y314096D03*
D51*
X412051Y314096D03*
D54*
X423596Y314096D03*
X429082Y314096D03*
D49*
X438455Y314096D03*
D53*
X446227Y314096D03*
D51*
X451828Y314096D03*
D118*
X456514Y314096D03*
D101*
X242545Y314325D03*
D71*
X252717Y314325D03*
D28*
X258889Y314325D03*
D15*
X265405Y314325D03*
D70*
X275577Y314325D03*
D28*
X283807Y314325D03*
D85*
X301295Y314325D03*
D71*
X313982Y314325D03*
D14*
X325869Y314325D03*
D119*
X335128Y314325D03*
D36*
X342786Y314325D03*
D26*
X348158Y314325D03*
D36*
X357873Y314325D03*
D26*
X366674Y314325D03*
D36*
X371589Y314325D03*
D66*
X379705Y314325D03*
D28*
X388048Y314325D03*
D14*
X394449Y314325D03*
D66*
X403708Y314325D03*
D28*
X412051Y314325D03*
D26*
X423596Y314325D03*
D28*
X428968Y314325D03*
D43*
X438455Y314325D03*
D28*
X446341Y314325D03*
D26*
X451714Y314325D03*
D32*
X456743Y314325D03*
D101*
X242545Y314554D03*
D71*
X252717Y314554D03*
D28*
X258889Y314554D03*
D15*
X265405Y314554D03*
D70*
X275577Y314554D03*
D28*
X283807Y314554D03*
D85*
X301295Y314554D03*
D71*
X313982Y314554D03*
D14*
X325869Y314554D03*
D119*
X335128Y314554D03*
D36*
X342786Y314554D03*
D26*
X348158Y314554D03*
D36*
X357873Y314554D03*
D26*
X366674Y314554D03*
D36*
X371589Y314554D03*
D66*
X379705Y314554D03*
D28*
X388048Y314554D03*
D14*
X394449Y314554D03*
D66*
X403708Y314554D03*
D28*
X412051Y314554D03*
D26*
X423596Y314554D03*
D28*
X428968Y314554D03*
D43*
X438455Y314554D03*
D28*
X446341Y314554D03*
D26*
X451714Y314554D03*
D32*
X456743Y314554D03*
D70*
X242430Y314782D03*
D71*
X252717Y314782D03*
D28*
X258889Y314782D03*
D15*
X265405Y314782D03*
D70*
X275577Y314782D03*
D30*
X284150Y314782D03*
D120*
X287350Y314782D03*
D121*
X301180Y314782D03*
D71*
X313982Y314782D03*
D14*
X325869Y314782D03*
D119*
X335128Y314782D03*
D28*
X343243Y314782D03*
D31*
X347815Y314782D03*
D36*
X357873Y314782D03*
D26*
X366674Y314782D03*
D36*
X371589Y314782D03*
D43*
X379933Y314782D03*
D28*
X388048Y314782D03*
D14*
X394449Y314782D03*
D66*
X403708Y314782D03*
D28*
X412051Y314782D03*
D36*
X423710Y314782D03*
D31*
X428739Y314782D03*
D43*
X438455Y314782D03*
D36*
X446799Y314782D03*
D31*
X451371Y314782D03*
D32*
X456743Y314782D03*
D122*
X242202Y315011D03*
D14*
X252489Y315011D03*
D28*
X258889Y315011D03*
D14*
X265519Y315011D03*
D70*
X275577Y315011D03*
D45*
X284721Y315011D03*
D14*
X296380Y315011D03*
D47*
X304952Y315011D03*
D71*
X313982Y315011D03*
D14*
X325869Y315011D03*
D119*
X335128Y315011D03*
D21*
X345643Y315011D03*
D36*
X357873Y315011D03*
D26*
X366674Y315011D03*
D36*
X371589Y315011D03*
D43*
X379933Y315011D03*
D28*
X388048Y315011D03*
D14*
X394449Y315011D03*
D43*
X403936Y315011D03*
D28*
X412051Y315011D03*
D31*
X423939Y315011D03*
X428739Y315011D03*
D43*
X438455Y315011D03*
D21*
X449199Y315011D03*
D38*
X456514Y315011D03*
D123*
X242202Y315239D03*
D115*
X252489Y315239D03*
D51*
X258889Y315239D03*
D115*
X265519Y315239D03*
D124*
X275577Y315239D03*
D57*
X284721Y315239D03*
D115*
X296380Y315239D03*
D63*
X304952Y315239D03*
D112*
X313982Y315239D03*
D115*
X325869Y315239D03*
D125*
X335128Y315239D03*
D23*
X345643Y315239D03*
D50*
X357873Y315239D03*
D54*
X366674Y315239D03*
D50*
X371589Y315239D03*
D49*
X379933Y315239D03*
D51*
X388048Y315239D03*
D115*
X394449Y315239D03*
D49*
X403936Y315239D03*
D51*
X412051Y315239D03*
D55*
X423939Y315239D03*
X428739Y315239D03*
D49*
X438455Y315239D03*
D23*
X449199Y315239D03*
D53*
X456514Y315239D03*
D122*
X242202Y315468D03*
D14*
X252489Y315468D03*
D28*
X258889Y315468D03*
D15*
X265633Y315468D03*
D70*
X275577Y315468D03*
D45*
X284721Y315468D03*
D14*
X296380Y315468D03*
D47*
X304952Y315468D03*
D68*
X313868Y315468D03*
D14*
X325869Y315468D03*
D119*
X335128Y315468D03*
D20*
X345757Y315468D03*
D36*
X357873Y315468D03*
D26*
X366674Y315468D03*
D36*
X371589Y315468D03*
D43*
X379933Y315468D03*
D28*
X388048Y315468D03*
D14*
X394449Y315468D03*
D43*
X403936Y315468D03*
D28*
X412051Y315468D03*
D31*
X423939Y315468D03*
D36*
X428511Y315468D03*
D86*
X438683Y315468D03*
D41*
X449313Y315468D03*
D38*
X456514Y315468D03*
D122*
X242202Y315697D03*
D14*
X252489Y315697D03*
D31*
X258661Y315697D03*
D68*
X265862Y315697D03*
D66*
X275463Y315697D03*
D45*
X284721Y315697D03*
D14*
X296380Y315697D03*
D19*
X304952Y315697D03*
D68*
X313868Y315697D03*
D14*
X325869Y315697D03*
D119*
X335128Y315697D03*
D16*
X345529Y315697D03*
D36*
X357873Y315697D03*
D26*
X366674Y315697D03*
D31*
X371818Y315697D03*
D73*
X380047Y315697D03*
D28*
X388048Y315697D03*
D14*
X394449Y315697D03*
D73*
X404050Y315697D03*
D28*
X412051Y315697D03*
D19*
X426339Y315697D03*
D86*
X438683Y315697D03*
D126*
X449085Y315697D03*
D38*
X456514Y315697D03*
D122*
X242202Y315925D03*
D14*
X252489Y315925D03*
D31*
X258661Y315925D03*
D68*
X265862Y315925D03*
D66*
X275463Y315925D03*
D45*
X284721Y315925D03*
D14*
X296380Y315925D03*
D19*
X304952Y315925D03*
D68*
X313868Y315925D03*
D14*
X325869Y315925D03*
D119*
X335128Y315925D03*
D16*
X345529Y315925D03*
D36*
X357873Y315925D03*
D26*
X366674Y315925D03*
D31*
X371818Y315925D03*
D73*
X380047Y315925D03*
D28*
X388048Y315925D03*
D14*
X394449Y315925D03*
D73*
X404050Y315925D03*
D28*
X412051Y315925D03*
D19*
X426339Y315925D03*
D86*
X438683Y315925D03*
D126*
X449085Y315925D03*
D38*
X456514Y315925D03*
D70*
X242430Y316154D03*
D14*
X252489Y316154D03*
D31*
X258661Y316154D03*
D71*
X265976Y316154D03*
D66*
X275463Y316154D03*
D12*
X284950Y316154D03*
D14*
X296380Y316154D03*
D69*
X304952Y316154D03*
D68*
X313868Y316154D03*
D14*
X325869Y316154D03*
D119*
X335128Y316154D03*
D15*
X345643Y316154D03*
D36*
X357873Y316154D03*
D31*
X366332Y316154D03*
X371818Y316154D03*
D73*
X380047Y316154D03*
D28*
X388048Y316154D03*
D14*
X394449Y316154D03*
D73*
X404050Y316154D03*
D28*
X412051Y316154D03*
D126*
X426225Y316154D03*
D35*
X438798Y316154D03*
D24*
X449199Y316154D03*
D28*
X456628Y316154D03*
D111*
X242545Y316382D03*
D115*
X252489Y316382D03*
D55*
X258661Y316382D03*
D75*
X266205Y316382D03*
D49*
X275234Y316382D03*
D62*
X284836Y316382D03*
D115*
X296380Y316382D03*
D65*
X304724Y316382D03*
D127*
X313868Y316382D03*
D115*
X325869Y316382D03*
D125*
X335128Y316382D03*
D112*
X345529Y316382D03*
D50*
X357873Y316382D03*
D55*
X366332Y316382D03*
X371818Y316382D03*
D60*
X380276Y316382D03*
D51*
X388048Y316382D03*
D115*
X394449Y316382D03*
D60*
X404279Y316382D03*
D51*
X412051Y316382D03*
D128*
X426339Y316382D03*
D60*
X438798Y316382D03*
D112*
X449085Y316382D03*
D51*
X456628Y316382D03*
D101*
X242545Y316611D03*
D14*
X252489Y316611D03*
D31*
X258661Y316611D03*
D67*
X266205Y316611D03*
D43*
X275234Y316611D03*
D30*
X284836Y316611D03*
D14*
X296380Y316611D03*
D15*
X304724Y316611D03*
D68*
X313868Y316611D03*
D14*
X325869Y316611D03*
D119*
X335128Y316611D03*
D71*
X345529Y316611D03*
D36*
X357873Y316611D03*
D31*
X366332Y316611D03*
X371818Y316611D03*
D35*
X380276Y316611D03*
D28*
X388048Y316611D03*
D14*
X394449Y316611D03*
D35*
X404279Y316611D03*
D28*
X412051Y316611D03*
D69*
X426339Y316611D03*
D35*
X438798Y316611D03*
D71*
X449085Y316611D03*
D28*
X456628Y316611D03*
D26*
X239116Y316840D03*
D12*
X245402Y316840D03*
D14*
X252489Y316840D03*
D31*
X258661Y316840D03*
D40*
X266319Y316840D03*
D73*
X275120Y316840D03*
D26*
X285064Y316840D03*
D14*
X296380Y316840D03*
D44*
X304952Y316840D03*
D68*
X313868Y316840D03*
D14*
X325869Y316840D03*
D35*
X335013Y316840D03*
D40*
X345643Y316840D03*
D36*
X357873Y316840D03*
D80*
X366217Y316840D03*
D31*
X371818Y316840D03*
D47*
X380390Y316840D03*
D31*
X388277Y316840D03*
D14*
X394449Y316840D03*
D47*
X404393Y316840D03*
D28*
X412051Y316840D03*
D69*
X426339Y316840D03*
D79*
X439026Y316840D03*
D40*
X449199Y316840D03*
D28*
X456628Y316840D03*
D36*
X239001Y317068D03*
D30*
X245745Y317068D03*
D32*
X251003Y317068D03*
D25*
X254889Y317068D03*
D31*
X258661Y317068D03*
D37*
X266548Y317068D03*
D38*
X272034Y317068D03*
D12*
X276949Y317068D03*
D32*
X285293Y317068D03*
D14*
X296380Y317068D03*
D37*
X304952Y317068D03*
D38*
X312496Y317068D03*
D27*
X316268Y317068D03*
D44*
X326212Y317068D03*
D36*
X332270Y317068D03*
D30*
X336956Y317068D03*
D12*
X345529Y317068D03*
D36*
X357873Y317068D03*
D95*
X365989Y317068D03*
D31*
X371818Y317068D03*
D21*
X380619Y317068D03*
D31*
X388277Y317068D03*
D44*
X394792Y317068D03*
D41*
X404736Y317068D03*
D28*
X412051Y317068D03*
D24*
X426110Y317068D03*
D19*
X439369Y317068D03*
D12*
X449085Y317068D03*
D28*
X456628Y317068D03*
D36*
X239001Y317297D03*
D30*
X245745Y317297D03*
D32*
X251003Y317297D03*
D25*
X254889Y317297D03*
D31*
X258661Y317297D03*
D37*
X266548Y317297D03*
D38*
X272034Y317297D03*
D12*
X276949Y317297D03*
D32*
X285293Y317297D03*
D14*
X296380Y317297D03*
D37*
X304952Y317297D03*
D38*
X312496Y317297D03*
D27*
X316268Y317297D03*
D44*
X326212Y317297D03*
D36*
X332270Y317297D03*
D30*
X336956Y317297D03*
D12*
X345529Y317297D03*
D36*
X357873Y317297D03*
D95*
X365989Y317297D03*
D31*
X371818Y317297D03*
D21*
X380619Y317297D03*
D31*
X388277Y317297D03*
D44*
X394792Y317297D03*
D41*
X404736Y317297D03*
D28*
X412051Y317297D03*
D24*
X426110Y317297D03*
D19*
X439369Y317297D03*
D12*
X449085Y317297D03*
D28*
X456628Y317297D03*
D50*
X239001Y317525D03*
D54*
X245974Y317525D03*
D61*
X251803Y317525D03*
D113*
X257404Y317525D03*
D61*
X260032Y317525D03*
D54*
X266548Y317525D03*
D50*
X271920Y317525D03*
D51*
X276949Y317525D03*
D129*
X285407Y317525D03*
D50*
X295923Y317525D03*
D54*
X304952Y317525D03*
D113*
X313411Y317525D03*
D88*
X325183Y317525D03*
D130*
X328841Y317525D03*
D50*
X332270Y317525D03*
D131*
X336956Y317525D03*
D51*
X345529Y317525D03*
D50*
X357873Y317525D03*
D98*
X365646Y317525D03*
D90*
X370446Y317525D03*
D61*
X373189Y317525D03*
D131*
X378562Y317525D03*
D58*
X382791Y317525D03*
D61*
X386905Y317525D03*
D64*
X389306Y317525D03*
D88*
X393763Y317525D03*
D130*
X397421Y317525D03*
D53*
X403022Y317525D03*
D113*
X406679Y317525D03*
D51*
X412051Y317525D03*
D127*
X426339Y317525D03*
D53*
X437312Y317525D03*
X441427Y317525D03*
D50*
X449085Y317525D03*
D51*
X456628Y317525D03*
D36*
X239001Y317754D03*
D30*
X245745Y317754D03*
D42*
X258661Y317754D03*
D36*
X271920Y317754D03*
X295923Y317754D03*
D83*
X325183Y317754D03*
D36*
X332270Y317754D03*
X357873Y317754D03*
D12*
X365417Y317754D03*
D42*
X371818Y317754D03*
X388277Y317754D03*
D83*
X393763Y317754D03*
D28*
X412051Y317754D03*
D68*
X426339Y317754D03*
D28*
X456628Y317754D03*
D36*
X239001Y317983D03*
D30*
X245745Y317983D03*
D42*
X258661Y317983D03*
D36*
X271920Y317983D03*
X295923Y317983D03*
D83*
X325183Y317983D03*
D36*
X332270Y317983D03*
X357873Y317983D03*
D12*
X365417Y317983D03*
D42*
X371818Y317983D03*
X388277Y317983D03*
D83*
X393763Y317983D03*
D28*
X412051Y317983D03*
D68*
X426339Y317983D03*
D28*
X456628Y317983D03*
D26*
X239116Y318211D03*
D12*
X245402Y318211D03*
D83*
X258661Y318211D03*
D36*
X271920Y318211D03*
X295923Y318211D03*
D83*
X325183Y318211D03*
D36*
X332270Y318211D03*
D80*
X358216Y318211D03*
D40*
X364846Y318211D03*
D83*
X371818Y318211D03*
X388277Y318211D03*
X393763Y318211D03*
D28*
X412051Y318211D03*
D71*
X426225Y318211D03*
D28*
X456628Y318211D03*
D101*
X242545Y318440D03*
D28*
X258889Y318440D03*
D36*
X271920Y318440D03*
D30*
X296266Y318440D03*
D83*
X325183Y318440D03*
D36*
X332270Y318440D03*
D132*
X361874Y318440D03*
D36*
X371589Y318440D03*
D28*
X388048Y318440D03*
D83*
X393763Y318440D03*
D28*
X412051Y318440D03*
D44*
X426339Y318440D03*
D28*
X456628Y318440D03*
D111*
X242545Y318668D03*
D51*
X258889Y318668D03*
D50*
X271920Y318668D03*
D62*
X296266Y318668D03*
D88*
X325183Y318668D03*
D50*
X332270Y318668D03*
D91*
X361874Y318668D03*
D50*
X371589Y318668D03*
D51*
X388048Y318668D03*
D88*
X393763Y318668D03*
D51*
X412051Y318668D03*
D56*
X426339Y318668D03*
D51*
X456628Y318668D03*
D101*
X242545Y318897D03*
D31*
X258661Y318897D03*
D26*
X272034Y318897D03*
D37*
X296723Y318897D03*
D83*
X325183Y318897D03*
D36*
X332270Y318897D03*
D81*
X361645Y318897D03*
D31*
X371818Y318897D03*
D28*
X388048Y318897D03*
D83*
X393763Y318897D03*
D28*
X412051Y318897D03*
D40*
X426110Y318897D03*
D28*
X456628Y318897D03*
D101*
X242545Y319126D03*
D31*
X258661Y319126D03*
D26*
X272034Y319126D03*
D37*
X296723Y319126D03*
D83*
X325183Y319126D03*
D36*
X332270Y319126D03*
D81*
X361645Y319126D03*
D31*
X371818Y319126D03*
D28*
X388048Y319126D03*
D83*
X393763Y319126D03*
D28*
X412051Y319126D03*
D37*
X426339Y319126D03*
D28*
X456628Y319126D03*
D101*
X242545Y319354D03*
D31*
X258661Y319354D03*
D26*
X272034Y319354D03*
D37*
X296723Y319354D03*
D83*
X325183Y319354D03*
D36*
X332270Y319354D03*
D81*
X361645Y319354D03*
D31*
X371818Y319354D03*
D28*
X388048Y319354D03*
D83*
X393763Y319354D03*
D28*
X412051Y319354D03*
D37*
X426339Y319354D03*
D28*
X456628Y319354D03*
D70*
X242430Y319583D03*
D31*
X258661Y319583D03*
D26*
X272034Y319583D03*
D37*
X296723Y319583D03*
D83*
X325183Y319583D03*
D36*
X332270Y319583D03*
D72*
X361531Y319583D03*
D31*
X371818Y319583D03*
D28*
X388048Y319583D03*
D83*
X393763Y319583D03*
D28*
X412051Y319583D03*
D37*
X426339Y319583D03*
D28*
X456628Y319583D03*
D124*
X242430Y319811D03*
D55*
X258661Y319811D03*
D54*
X272034Y319811D03*
D114*
X296837Y319811D03*
D88*
X325183Y319811D03*
D50*
X332270Y319811D03*
D124*
X361302Y319811D03*
D55*
X371818Y319811D03*
D51*
X388048Y319811D03*
D88*
X393763Y319811D03*
D51*
X412051Y319811D03*
D114*
X426225Y319811D03*
D51*
X456628Y319811D03*
D70*
X242430Y320040D03*
D31*
X258661Y320040D03*
D26*
X272034Y320040D03*
D12*
X296837Y320040D03*
D83*
X325183Y320040D03*
D36*
X332270Y320040D03*
D70*
X361302Y320040D03*
D31*
X371818Y320040D03*
D28*
X388048Y320040D03*
D83*
X393763Y320040D03*
D28*
X412051Y320040D03*
D12*
X426225Y320040D03*
D28*
X456628Y320040D03*
D122*
X242202Y320269D03*
D31*
X258661Y320269D03*
D26*
X272034Y320269D03*
D12*
X296837Y320269D03*
D83*
X325183Y320269D03*
D36*
X332270Y320269D03*
D66*
X361188Y320269D03*
D31*
X371818Y320269D03*
D28*
X388048Y320269D03*
D83*
X393763Y320269D03*
D31*
X412280Y320269D03*
D100*
X426339Y320269D03*
D28*
X456628Y320269D03*
D66*
X241859Y320497D03*
D28*
X258889Y320497D03*
D26*
X272034Y320497D03*
D13*
X297066Y320497D03*
D32*
X325069Y320497D03*
D36*
X332270Y320497D03*
D73*
X360845Y320497D03*
D36*
X371589Y320497D03*
D28*
X388048Y320497D03*
D32*
X393649Y320497D03*
D31*
X412280Y320497D03*
D30*
X426110Y320497D03*
D28*
X456628Y320497D03*
D66*
X241859Y320726D03*
D28*
X258889Y320726D03*
D26*
X272034Y320726D03*
D13*
X297066Y320726D03*
D32*
X325069Y320726D03*
D36*
X332270Y320726D03*
D73*
X360845Y320726D03*
D36*
X371589Y320726D03*
D28*
X388048Y320726D03*
D32*
X393649Y320726D03*
D31*
X412280Y320726D03*
D30*
X426110Y320726D03*
D28*
X456628Y320726D03*
D97*
X241516Y320954D03*
D88*
X258661Y320954D03*
D54*
X272034Y320954D03*
D62*
X297180Y320954D03*
D64*
X324155Y320954D03*
D55*
X332042Y320954D03*
D133*
X360502Y320954D03*
D88*
X371818Y320954D03*
D131*
X388163Y320954D03*
D64*
X392735Y320954D03*
D55*
X412280Y320954D03*
D62*
X426110Y320954D03*
D51*
X456628Y320954D03*
D21*
X240944Y321183D03*
D33*
X258889Y321183D03*
D26*
X272034Y321183D03*
D38*
X297409Y321183D03*
D31*
X332042Y321183D03*
D126*
X359931Y321183D03*
D33*
X371589Y321183D03*
X388048Y321183D03*
D31*
X412280Y321183D03*
D36*
X426225Y321183D03*
D28*
X456628Y321183D03*
D21*
X240944Y321412D03*
D33*
X258889Y321412D03*
D26*
X272034Y321412D03*
D38*
X297409Y321412D03*
D31*
X332042Y321412D03*
D126*
X359931Y321412D03*
D33*
X371589Y321412D03*
X388048Y321412D03*
D31*
X412280Y321412D03*
D36*
X426225Y321412D03*
D28*
X456628Y321412D03*
D27*
X273063Y321640D03*
D42*
X297751Y321640D03*
D103*
X333070Y321640D03*
D48*
X424967Y321640D03*
D134*
X427596Y321640D03*
D34*
X244602Y333985D03*
D12*
X243573Y334213D03*
D45*
X243573Y334442D03*
D77*
X242202Y334670D03*
D101*
X241173Y334899D03*
X241173Y335128D03*
D135*
X240030Y335356D03*
D121*
X238773Y335585D03*
D92*
X238887Y335813D03*
D136*
X238430Y336042D03*
D137*
X238658Y336271D03*
X238658Y336499D03*
D138*
X238773Y336728D03*
D139*
X238544Y336956D03*
D140*
X238658Y337185D03*
D141*
X238773Y337414D03*
D142*
X238887Y337642D03*
D143*
X238773Y337871D03*
D144*
X239001Y338099D03*
D145*
X239001Y338328D03*
D146*
X239116Y338557D03*
D147*
X238887Y338785D03*
D148*
X239116Y339014D03*
D149*
X239116Y339242D03*
D150*
X239230Y339471D03*
D151*
X239116Y339700D03*
X239116Y339928D03*
D152*
X239344Y340157D03*
D153*
X239344Y340385D03*
D154*
X239230Y340614D03*
D155*
X239458Y340843D03*
X239458Y341071D03*
X239458Y341300D03*
D156*
X239458Y341528D03*
D157*
X239687Y341757D03*
X239687Y341986D03*
D158*
X239573Y342214D03*
X239573Y342443D03*
D159*
X239573Y342671D03*
D160*
X239801Y342900D03*
D161*
X239801Y343129D03*
X239801Y343357D03*
D162*
X240030Y343586D03*
D163*
X239916Y343814D03*
D164*
X239801Y344043D03*
D165*
X239916Y344272D03*
D166*
X240144Y344500D03*
X240144Y344729D03*
D167*
X240144Y344957D03*
D64*
X272034Y344957D03*
D168*
X240144Y345186D03*
D36*
X270777Y345186D03*
D168*
X240144Y345415D03*
D36*
X270777Y345415D03*
D169*
X240259Y345643D03*
D14*
X269634Y345643D03*
D170*
X240259Y345872D03*
D86*
X268605Y345872D03*
D171*
X240259Y346100D03*
D89*
X268605Y346100D03*
D170*
X240259Y346329D03*
D172*
X267462Y346329D03*
D173*
X240144Y346558D03*
D174*
X266205Y346558D03*
D173*
X240144Y346786D03*
D174*
X266205Y346786D03*
D173*
X240144Y347015D03*
D175*
X265290Y347015D03*
D176*
X240144Y347243D03*
D177*
X265405Y347243D03*
D52*
X332613Y347243D03*
D178*
X374675Y347243D03*
D61*
X438112Y347243D03*
D179*
X240030Y347472D03*
D137*
X265405Y347472D03*
D67*
X332727Y347472D03*
D32*
X374675Y347472D03*
D102*
X438226Y347472D03*
D179*
X239801Y347701D03*
D138*
X265519Y347701D03*
D69*
X293294Y347701D03*
X313182Y347701D03*
D79*
X332727Y347701D03*
D95*
X346786Y347701D03*
D37*
X360045Y347701D03*
D45*
X374561Y347701D03*
D71*
X384391Y347701D03*
X396050Y347701D03*
D80*
X406222Y347701D03*
D71*
X423024Y347701D03*
D180*
X438340Y347701D03*
D38*
X448970Y347701D03*
D26*
X463144Y347701D03*
D179*
X239801Y347929D03*
D138*
X265519Y347929D03*
D47*
X293294Y347929D03*
D35*
X313296Y347929D03*
D66*
X332613Y347929D03*
D44*
X346558Y347929D03*
D68*
X360045Y347929D03*
D14*
X374561Y347929D03*
D15*
X384734Y347929D03*
D16*
X396049Y347929D03*
D181*
X406222Y347929D03*
D16*
X423024Y347929D03*
D20*
X438340Y347929D03*
D137*
X456286Y347929D03*
D179*
X239801Y348158D03*
D138*
X265519Y348158D03*
D47*
X293294Y348158D03*
D35*
X313296Y348158D03*
D70*
X332499Y348158D03*
D71*
X346672Y348158D03*
D14*
X360159Y348158D03*
D15*
X374447Y348158D03*
X384734Y348158D03*
D16*
X396049Y348158D03*
D14*
X406108Y348158D03*
D19*
X422910Y348158D03*
D20*
X438340Y348158D03*
D137*
X456286Y348158D03*
D182*
X239687Y348386D03*
D183*
X265519Y348386D03*
D60*
X293179Y348386D03*
X313296Y348386D03*
D184*
X332499Y348386D03*
D65*
X346558Y348386D03*
D59*
X360045Y348386D03*
D77*
X374561Y348386D03*
D185*
X384619Y348386D03*
D17*
X396164Y348386D03*
D23*
X406222Y348386D03*
D17*
X422910Y348386D03*
D49*
X438455Y348386D03*
D177*
X456286Y348386D03*
D173*
X239459Y348615D03*
D142*
X265633Y348615D03*
D119*
X293294Y348615D03*
D35*
X313296Y348615D03*
D186*
X332613Y348615D03*
D15*
X346558Y348615D03*
D69*
X359816Y348615D03*
D35*
X374332Y348615D03*
D16*
X384619Y348615D03*
D19*
X396164Y348615D03*
D35*
X406336Y348615D03*
D19*
X422910Y348615D03*
D101*
X438683Y348615D03*
D137*
X456286Y348615D03*
D173*
X239459Y348844D03*
D142*
X265633Y348844D03*
D119*
X293294Y348844D03*
D35*
X313296Y348844D03*
D187*
X332499Y348844D03*
D15*
X346558Y348844D03*
D69*
X359816Y348844D03*
D35*
X374332Y348844D03*
D16*
X384619Y348844D03*
D19*
X396164Y348844D03*
D35*
X406336Y348844D03*
D19*
X422910Y348844D03*
D101*
X438683Y348844D03*
D137*
X456286Y348844D03*
D173*
X239459Y349072D03*
D188*
X265633Y349072D03*
D119*
X293294Y349072D03*
D35*
X313296Y349072D03*
D189*
X332727Y349072D03*
D69*
X346786Y349072D03*
X359816Y349072D03*
D43*
X374447Y349072D03*
D16*
X384619Y349072D03*
D19*
X396164Y349072D03*
D190*
X406336Y349072D03*
D19*
X422910Y349072D03*
D191*
X438798Y349072D03*
D137*
X456286Y349072D03*
D179*
X239116Y349301D03*
D145*
X265748Y349301D03*
D119*
X293294Y349301D03*
D35*
X313296Y349301D03*
D174*
X332727Y349301D03*
D16*
X346900Y349301D03*
X359702Y349301D03*
D190*
X374332Y349301D03*
D16*
X384619Y349301D03*
D143*
X401993Y349301D03*
D19*
X422910Y349301D03*
D172*
X438912Y349301D03*
D137*
X456286Y349301D03*
D192*
X239116Y349529D03*
D144*
X265748Y349529D03*
D125*
X293294Y349529D03*
D60*
X313296Y349529D03*
D193*
X332727Y349529D03*
D185*
X346900Y349529D03*
X359702Y349529D03*
D194*
X374332Y349529D03*
D185*
X384619Y349529D03*
D195*
X401993Y349529D03*
D17*
X422910Y349529D03*
D196*
X438912Y349529D03*
D177*
X456286Y349529D03*
D179*
X239116Y349758D03*
D146*
X265862Y349758D03*
D119*
X293294Y349758D03*
D35*
X313296Y349758D03*
D197*
X332499Y349758D03*
D41*
X347129Y349758D03*
D20*
X359473Y349758D03*
D198*
X378676Y349758D03*
D145*
X402222Y349758D03*
D19*
X422910Y349758D03*
D186*
X438683Y349758D03*
D137*
X456286Y349758D03*
D199*
X239001Y349987D03*
D200*
X265747Y349987D03*
D119*
X293294Y349987D03*
D35*
X313296Y349987D03*
D85*
X332613Y349987D03*
D41*
X347129Y349987D03*
D20*
X359473Y349987D03*
D145*
X378447Y349987D03*
D201*
X402450Y349987D03*
D19*
X422910Y349987D03*
D186*
X438683Y349987D03*
D202*
X456514Y349987D03*
D179*
X238887Y350215D03*
D148*
X265862Y350215D03*
D119*
X293294Y350215D03*
D35*
X313296Y350215D03*
D85*
X332613Y350215D03*
D21*
X347243Y350215D03*
D20*
X359473Y350215D03*
D145*
X378447Y350215D03*
D203*
X402565Y350215D03*
D19*
X422910Y350215D03*
D186*
X438683Y350215D03*
D202*
X456514Y350215D03*
D173*
X238773Y350444D03*
D150*
X265976Y350444D03*
D119*
X293294Y350444D03*
D35*
X313296Y350444D03*
D175*
X332499Y350444D03*
D21*
X347243Y350444D03*
X359359Y350444D03*
D146*
X378333Y350444D03*
D200*
X402679Y350444D03*
D19*
X422910Y350444D03*
D204*
X438683Y350444D03*
D202*
X456514Y350444D03*
D176*
X238773Y350672D03*
D205*
X265976Y350672D03*
D60*
X293179Y350672D03*
X313296Y350672D03*
D206*
X332384Y350672D03*
D63*
X347472Y350672D03*
X359131Y350672D03*
D207*
X378104Y350672D03*
D205*
X402907Y350672D03*
D17*
X422910Y350672D03*
D208*
X438683Y350672D03*
D209*
X456514Y350672D03*
D173*
X238773Y350901D03*
D151*
X265862Y350901D03*
D35*
X293179Y350901D03*
X313296Y350901D03*
D136*
X332384Y350901D03*
D47*
X347472Y350901D03*
X359131Y350901D03*
D147*
X378104Y350901D03*
D150*
X402907Y350901D03*
D19*
X422910Y350901D03*
D204*
X438683Y350901D03*
D202*
X456514Y350901D03*
D170*
X238887Y351130D03*
D152*
X266090Y351130D03*
D35*
X293179Y351130D03*
X313296Y351130D03*
D137*
X332156Y351130D03*
D35*
X347586Y351130D03*
X359016Y351130D03*
D200*
X377990Y351130D03*
D148*
X403022Y351130D03*
D19*
X422910Y351130D03*
D204*
X438683Y351130D03*
D202*
X456514Y351130D03*
D210*
X238773Y351358D03*
D211*
X266205Y351358D03*
D35*
X293179Y351358D03*
X313296Y351358D03*
D138*
X332041Y351358D03*
D73*
X347815Y351358D03*
D35*
X359016Y351358D03*
D150*
X377761Y351358D03*
X403136Y351358D03*
D19*
X422910Y351358D03*
D204*
X438683Y351358D03*
D202*
X456514Y351358D03*
D169*
X238887Y351587D03*
D211*
X266205Y351587D03*
D35*
X293179Y351587D03*
X313296Y351587D03*
D138*
X332041Y351587D03*
D73*
X347815Y351587D03*
D35*
X359016Y351587D03*
D150*
X377761Y351587D03*
X403136Y351587D03*
D19*
X422910Y351587D03*
D204*
X438683Y351587D03*
D202*
X456514Y351587D03*
D212*
X239001Y351815D03*
D213*
X265976Y351815D03*
D60*
X293179Y351815D03*
X313296Y351815D03*
D214*
X331927Y351815D03*
D49*
X347929Y351815D03*
D97*
X358788Y351815D03*
D205*
X377761Y351815D03*
D215*
X403365Y351815D03*
D17*
X422910Y351815D03*
D208*
X438683Y351815D03*
D139*
X456628Y351815D03*
D216*
X238887Y352044D03*
D155*
X266205Y352044D03*
D35*
X293179Y352044D03*
X313296Y352044D03*
D202*
X331699Y352044D03*
D43*
X347929Y352044D03*
X358673Y352044D03*
D151*
X377647Y352044D03*
D217*
X403365Y352044D03*
D19*
X422910Y352044D03*
D204*
X438683Y352044D03*
D218*
X456628Y352044D03*
D216*
X238887Y352273D03*
D155*
X266205Y352273D03*
D35*
X293179Y352273D03*
X313296Y352273D03*
D202*
X331699Y352273D03*
D43*
X347929Y352273D03*
X358673Y352273D03*
D151*
X377647Y352273D03*
D217*
X403365Y352273D03*
D19*
X422910Y352273D03*
D204*
X438683Y352273D03*
D218*
X456628Y352273D03*
D219*
X239116Y352501D03*
D220*
X266205Y352501D03*
D35*
X293179Y352501D03*
X313296Y352501D03*
D138*
X331356Y352501D03*
D201*
X353301Y352501D03*
D152*
X377419Y352501D03*
X403479Y352501D03*
D19*
X422910Y352501D03*
D204*
X438683Y352501D03*
D218*
X456628Y352501D03*
D219*
X239116Y352730D03*
D221*
X266319Y352730D03*
D35*
X293179Y352730D03*
X313296Y352730D03*
D138*
X331356Y352730D03*
D201*
X353301Y352730D03*
D217*
X377304Y352730D03*
D152*
X403479Y352730D03*
D19*
X422910Y352730D03*
D204*
X438683Y352730D03*
D218*
X456628Y352730D03*
D222*
X239001Y352958D03*
D223*
X266433Y352958D03*
D60*
X293179Y352958D03*
X313296Y352958D03*
D224*
X331356Y352958D03*
D225*
X353301Y352958D03*
D215*
X377304Y352958D03*
D226*
X403479Y352958D03*
D17*
X422910Y352958D03*
D208*
X438683Y352958D03*
D139*
X456628Y352958D03*
D164*
X239116Y353187D03*
D157*
X266433Y353187D03*
D35*
X293179Y353187D03*
X313296Y353187D03*
D202*
X331013Y353187D03*
D145*
X353530Y353187D03*
D152*
X377190Y353187D03*
D227*
X403708Y353187D03*
D19*
X422910Y353187D03*
D204*
X438683Y353187D03*
D142*
X456743Y353187D03*
D162*
X239344Y353416D03*
D228*
X266433Y353416D03*
D35*
X293179Y353416D03*
X313296Y353416D03*
D202*
X331013Y353416D03*
D143*
X353301Y353416D03*
D152*
X377190Y353416D03*
D227*
X403708Y353416D03*
D19*
X422910Y353416D03*
D204*
X438683Y353416D03*
D142*
X456743Y353416D03*
D162*
X239344Y353644D03*
D158*
X266319Y353644D03*
D35*
X293179Y353644D03*
X313296Y353644D03*
D202*
X331013Y353644D03*
D143*
X353301Y353644D03*
D152*
X377190Y353644D03*
D227*
X403708Y353644D03*
D19*
X422910Y353644D03*
D204*
X438683Y353644D03*
D142*
X456743Y353644D03*
D161*
X239116Y353873D03*
D229*
X266548Y353873D03*
D35*
X293179Y353873D03*
X313296Y353873D03*
D70*
X326784Y353873D03*
D40*
X336956Y353873D03*
D230*
X353301Y353873D03*
D211*
X377076Y353873D03*
D154*
X403822Y353873D03*
D19*
X422910Y353873D03*
D204*
X438683Y353873D03*
D142*
X456743Y353873D03*
D231*
X239230Y354101D03*
X266662Y354101D03*
D63*
X293294Y354101D03*
D60*
X313296Y354101D03*
X326098Y354101D03*
D104*
X337642Y354101D03*
D224*
X353301Y354101D03*
D232*
X376961Y354101D03*
D213*
X403822Y354101D03*
D17*
X422910Y354101D03*
D208*
X438683Y354101D03*
D183*
X456857Y354101D03*
D233*
X239230Y354330D03*
X266662Y354330D03*
D47*
X293294Y354330D03*
D35*
X313296Y354330D03*
D47*
X325984Y354330D03*
D80*
X337642Y354330D03*
D138*
X353301Y354330D03*
D227*
X376961Y354330D03*
D154*
X403822Y354330D03*
D19*
X422910Y354330D03*
D204*
X438683Y354330D03*
D230*
X456857Y354330D03*
D234*
X239458Y354559D03*
D161*
X266548Y354559D03*
D47*
X293294Y354559D03*
D35*
X313296Y354559D03*
D21*
X325755Y354559D03*
D38*
X337871Y354559D03*
D235*
X353301Y354559D03*
D227*
X376961Y354559D03*
D155*
X404050Y354559D03*
D19*
X422910Y354559D03*
D204*
X438683Y354559D03*
D140*
X457200Y354559D03*
D228*
X239459Y354787D03*
D162*
X266776Y354787D03*
D47*
X293294Y354787D03*
D35*
X313296Y354787D03*
D16*
X325412Y354787D03*
D33*
X337985Y354787D03*
D236*
X353301Y354787D03*
D190*
X370903Y354787D03*
D101*
X382905Y354787D03*
D155*
X404050Y354787D03*
D19*
X422910Y354787D03*
D47*
X436397Y354787D03*
D33*
X444284Y354787D03*
D237*
X452971Y354787D03*
D12*
X464172Y354787D03*
D228*
X239459Y355016D03*
D162*
X266776Y355016D03*
D47*
X293294Y355016D03*
D35*
X313296Y355016D03*
D16*
X325412Y355016D03*
D33*
X337985Y355016D03*
D236*
X353301Y355016D03*
D66*
X370789Y355016D03*
D70*
X383019Y355016D03*
D155*
X404050Y355016D03*
D19*
X422910Y355016D03*
D79*
X436283Y355016D03*
D25*
X444398Y355016D03*
D66*
X453085Y355016D03*
D95*
X464287Y355016D03*
D238*
X239573Y355244D03*
D222*
X266662Y355244D03*
D63*
X293294Y355244D03*
D60*
X313296Y355244D03*
D185*
X324955Y355244D03*
D113*
X338328Y355244D03*
D239*
X353301Y355244D03*
D89*
X370103Y355244D03*
D97*
X383476Y355244D03*
D49*
X397307Y355244D03*
X410794Y355244D03*
D17*
X422910Y355244D03*
D18*
X436054Y355244D03*
D240*
X444970Y355244D03*
D241*
X453428Y355244D03*
D106*
X466115Y355244D03*
D242*
X239458Y355473D03*
D243*
X266776Y355473D03*
D47*
X293294Y355473D03*
D35*
X313296Y355473D03*
D69*
X324841Y355473D03*
D134*
X338442Y355473D03*
D244*
X353301Y355473D03*
D35*
X369989Y355473D03*
D47*
X383819Y355473D03*
D119*
X397078Y355473D03*
D35*
X411137Y355473D03*
D16*
X423024Y355473D03*
D19*
X435940Y355473D03*
D66*
X453771Y355473D03*
D242*
X239458Y355702D03*
D166*
X266890Y355702D03*
D47*
X293294Y355702D03*
D35*
X313296Y355702D03*
D69*
X324841Y355702D03*
D134*
X338442Y355702D03*
D244*
X353301Y355702D03*
D35*
X369989Y355702D03*
D47*
X383819Y355702D03*
D35*
X396964Y355702D03*
X411137Y355702D03*
D16*
X423024Y355702D03*
D19*
X435940Y355702D03*
D66*
X453771Y355702D03*
D245*
X239573Y355930D03*
D166*
X266890Y355930D03*
D47*
X293294Y355930D03*
D35*
X313296Y355930D03*
D16*
X324955Y355930D03*
D174*
X353301Y355930D03*
D79*
X369761Y355930D03*
D21*
X384048Y355930D03*
D47*
X396850Y355930D03*
D35*
X411366Y355930D03*
D16*
X423024Y355930D03*
X435826Y355930D03*
D237*
X454114Y355930D03*
D246*
X239801Y356159D03*
D168*
X266890Y356159D03*
D47*
X293294Y356159D03*
D35*
X313296Y356159D03*
D191*
X327012Y356159D03*
D247*
X353530Y356159D03*
D21*
X369646Y356159D03*
D41*
X384162Y356159D03*
D47*
X396850Y356159D03*
D79*
X411594Y356159D03*
D16*
X423024Y356159D03*
X435826Y356159D03*
D66*
X454457Y356159D03*
D248*
X239801Y356387D03*
D167*
X266890Y356387D03*
D63*
X293294Y356387D03*
D60*
X313296Y356387D03*
D184*
X327012Y356387D03*
D249*
X353416Y356387D03*
D23*
X369646Y356387D03*
D77*
X384162Y356387D03*
D22*
X396735Y356387D03*
X411594Y356387D03*
D185*
X423024Y356387D03*
X435826Y356387D03*
D107*
X454457Y356387D03*
D154*
X239687Y356616D03*
D250*
X267119Y356616D03*
D47*
X293294Y356616D03*
D35*
X313296Y356616D03*
D251*
X328727Y356616D03*
D252*
X353416Y356616D03*
D19*
X369418Y356616D03*
D41*
X384162Y356616D03*
D21*
X396621Y356616D03*
D79*
X411594Y356616D03*
D16*
X423024Y356616D03*
X435826Y356616D03*
D122*
X454800Y356616D03*
D227*
X239801Y356845D03*
D169*
X267005Y356845D03*
D47*
X293294Y356845D03*
X313182Y356845D03*
D140*
X330327Y356845D03*
D187*
X353530Y356845D03*
D16*
X369303Y356845D03*
X384391Y356845D03*
D41*
X396507Y356845D03*
D21*
X411709Y356845D03*
D16*
X423024Y356845D03*
X435826Y356845D03*
D66*
X455143Y356845D03*
D227*
X239801Y357073D03*
D170*
X267005Y357073D03*
D47*
X293294Y357073D03*
X313182Y357073D03*
D140*
X330327Y357073D03*
D187*
X353530Y357073D03*
D19*
X369189Y357073D03*
D16*
X384391Y357073D03*
D41*
X396507Y357073D03*
D21*
X411709Y357073D03*
D16*
X423024Y357073D03*
X435826Y357073D03*
D237*
X455257Y357073D03*
D151*
X239801Y357302D03*
D170*
X267005Y357302D03*
D47*
X293294Y357302D03*
X313182Y357302D03*
D145*
X330899Y357302D03*
D172*
X353416Y357302D03*
D41*
X369075Y357302D03*
D16*
X384391Y357302D03*
D41*
X396507Y357302D03*
D21*
X411709Y357302D03*
D16*
X423024Y357302D03*
X435826Y357302D03*
D237*
X455485Y357302D03*
D253*
X239916Y357530D03*
D171*
X267005Y357530D03*
D63*
X293294Y357530D03*
X313182Y357530D03*
D254*
X331013Y357530D03*
D184*
X353530Y357530D03*
D185*
X368846Y357530D03*
D128*
X384505Y357530D03*
D77*
X396507Y357530D03*
D17*
X411937Y357530D03*
D185*
X423024Y357530D03*
X435826Y357530D03*
D49*
X456057Y357530D03*
D255*
X239916Y357759D03*
D170*
X267005Y357759D03*
D47*
X293294Y357759D03*
D79*
X313296Y357759D03*
D146*
X331013Y357759D03*
D191*
X353530Y357759D03*
D16*
X368846Y357759D03*
D69*
X384505Y357759D03*
D41*
X396507Y357759D03*
D19*
X411937Y357759D03*
D16*
X423024Y357759D03*
D69*
X435712Y357759D03*
D43*
X456057Y357759D03*
D255*
X239916Y357988D03*
D173*
X266891Y357988D03*
D47*
X293294Y357988D03*
D21*
X313411Y357988D03*
D147*
X331241Y357988D03*
D256*
X353301Y357988D03*
D16*
X368846Y357988D03*
D69*
X384505Y357988D03*
D19*
X396392Y357988D03*
X411937Y357988D03*
D16*
X423024Y357988D03*
D257*
X435597Y357988D03*
D43*
X456286Y357988D03*
D147*
X240030Y358216D03*
D173*
X266891Y358216D03*
D47*
X293294Y358216D03*
D21*
X313411Y358216D03*
D147*
X331241Y358216D03*
D72*
X353301Y358216D03*
D16*
X368846Y358216D03*
D69*
X384505Y358216D03*
D16*
X396278Y358216D03*
D19*
X411937Y358216D03*
D16*
X423024Y358216D03*
D257*
X435597Y358216D03*
D43*
X456743Y358216D03*
D147*
X240030Y358445D03*
D173*
X266891Y358445D03*
D47*
X293294Y358445D03*
D21*
X313411Y358445D03*
D147*
X331241Y358445D03*
D101*
X353416Y358445D03*
D16*
X368846Y358445D03*
D69*
X384505Y358445D03*
D16*
X396278Y358445D03*
D19*
X411937Y358445D03*
D16*
X423024Y358445D03*
D257*
X435597Y358445D03*
D43*
X456743Y358445D03*
D225*
X240144Y358673D03*
D258*
X266776Y358673D03*
D63*
X293294Y358673D03*
D23*
X313411Y358673D03*
D259*
X331356Y358673D03*
D194*
X353530Y358673D03*
D185*
X368846Y358673D03*
D128*
X384505Y358673D03*
D185*
X396278Y358673D03*
D17*
X411937Y358673D03*
D185*
X423024Y358673D03*
D260*
X435597Y358673D03*
D49*
X456971Y358673D03*
D143*
X240144Y358902D03*
D179*
X266548Y358902D03*
D47*
X293294Y358902D03*
X313182Y358902D03*
D200*
X331356Y358902D03*
D78*
X353416Y358902D03*
D16*
X368846Y358902D03*
D69*
X384505Y358902D03*
D16*
X396278Y358902D03*
D19*
X411937Y358902D03*
D16*
X423024Y358902D03*
D257*
X435597Y358902D03*
D73*
X457314Y358902D03*
D143*
X240144Y359131D03*
D179*
X266548Y359131D03*
D47*
X293294Y359131D03*
X313182Y359131D03*
D200*
X331356Y359131D03*
D78*
X353416Y359131D03*
D16*
X368846Y359131D03*
D69*
X384505Y359131D03*
D16*
X396278Y359131D03*
D19*
X411937Y359131D03*
D16*
X423024Y359131D03*
D257*
X435597Y359131D03*
D43*
X457429Y359131D03*
D143*
X240144Y359359D03*
D179*
X266548Y359359D03*
D47*
X293294Y359359D03*
X313182Y359359D03*
D200*
X331356Y359359D03*
D191*
X353530Y359359D03*
D16*
X368846Y359359D03*
D69*
X384505Y359359D03*
D16*
X396278Y359359D03*
D19*
X411937Y359359D03*
D16*
X423024Y359359D03*
D257*
X435597Y359359D03*
D43*
X457657Y359359D03*
D142*
X240259Y359588D03*
D199*
X266433Y359588D03*
D237*
X293865Y359588D03*
D43*
X312725Y359588D03*
D200*
X331356Y359588D03*
D172*
X353416Y359588D03*
D69*
X368960Y359588D03*
X384505Y359588D03*
D16*
X396278Y359588D03*
D19*
X411937Y359588D03*
D16*
X423024Y359588D03*
D257*
X435597Y359588D03*
D73*
X458000Y359588D03*
D261*
X240259Y359816D03*
D192*
X266319Y359816D03*
D107*
X293980Y359816D03*
D241*
X312610Y359816D03*
D259*
X331356Y359816D03*
D196*
X353416Y359816D03*
D260*
X369075Y359816D03*
D128*
X384505Y359816D03*
D185*
X396278Y359816D03*
D17*
X411937Y359816D03*
D185*
X423024Y359816D03*
D260*
X435597Y359816D03*
D49*
X458114Y359816D03*
D218*
X240373Y360045D03*
D173*
X266205Y360045D03*
D262*
X303238Y360045D03*
D200*
X331356Y360045D03*
D187*
X353530Y360045D03*
D257*
X369075Y360045D03*
D69*
X384505Y360045D03*
D41*
X396507Y360045D03*
D19*
X411937Y360045D03*
X422910Y360045D03*
D257*
X435597Y360045D03*
D43*
X458343Y360045D03*
D202*
X240487Y360274D03*
D173*
X266205Y360274D03*
D262*
X303238Y360274D03*
D200*
X331356Y360274D03*
D252*
X353416Y360274D03*
D16*
X369303Y360274D03*
X384391Y360274D03*
D41*
X396507Y360274D03*
D19*
X411937Y360274D03*
X422910Y360274D03*
D257*
X435597Y360274D03*
D119*
X458572Y360274D03*
D202*
X240487Y360502D03*
D179*
X266090Y360502D03*
D262*
X303238Y360502D03*
D200*
X331356Y360502D03*
D252*
X353416Y360502D03*
D16*
X369303Y360502D03*
X384391Y360502D03*
D41*
X396507Y360502D03*
D20*
X411823Y360502D03*
D19*
X422910Y360502D03*
D257*
X435597Y360502D03*
D73*
X458686Y360502D03*
D138*
X240373Y360731D03*
D179*
X265862Y360731D03*
D262*
X303238Y360731D03*
D24*
X324612Y360731D03*
D263*
X335699Y360731D03*
D247*
X353530Y360731D03*
D16*
X369303Y360731D03*
X384391Y360731D03*
D41*
X396507Y360731D03*
D21*
X411709Y360731D03*
D19*
X422910Y360731D03*
D257*
X435597Y360731D03*
D73*
X458914Y360731D03*
D206*
X240487Y360959D03*
D192*
X265862Y360959D03*
D264*
X303238Y360959D03*
D115*
X324498Y360959D03*
D60*
X337299Y360959D03*
D265*
X353416Y360959D03*
D17*
X369418Y360959D03*
D77*
X384162Y360959D03*
D23*
X396621Y360959D03*
X411709Y360959D03*
D17*
X422910Y360959D03*
D260*
X435597Y360959D03*
D89*
X459257Y360959D03*
D136*
X240487Y361188D03*
D179*
X265862Y361188D03*
D262*
X303238Y361188D03*
D14*
X324498Y361188D03*
D47*
X337414Y361188D03*
D266*
X353416Y361188D03*
D19*
X369418Y361188D03*
D41*
X384162Y361188D03*
D21*
X396621Y361188D03*
X411709Y361188D03*
D19*
X422910Y361188D03*
D257*
X435597Y361188D03*
D86*
X459257Y361188D03*
D267*
X240487Y361417D03*
D199*
X265747Y361417D03*
D262*
X303238Y361417D03*
D24*
X324612Y361417D03*
D16*
X337985Y361417D03*
D197*
X353530Y361417D03*
D21*
X369646Y361417D03*
X384048Y361417D03*
D79*
X396735Y361417D03*
X411594Y361417D03*
D19*
X422910Y361417D03*
D16*
X435826Y361417D03*
D73*
X459600Y361417D03*
D268*
X239344Y361645D03*
D173*
X265519Y361645D03*
D262*
X303238Y361645D03*
D24*
X324612Y361645D03*
D16*
X337985Y361645D03*
D121*
X353301Y361645D03*
D79*
X369761Y361645D03*
D47*
X383819Y361645D03*
X396850Y361645D03*
D35*
X411366Y361645D03*
D19*
X422910Y361645D03*
D247*
X437426Y361645D03*
D267*
X456057Y361645D03*
D252*
X239344Y361874D03*
D173*
X265519Y361874D03*
D262*
X303238Y361874D03*
D24*
X324612Y361874D03*
D16*
X337985Y361874D03*
D121*
X353301Y361874D03*
D79*
X369761Y361874D03*
D47*
X383819Y361874D03*
X396850Y361874D03*
X411251Y361874D03*
D19*
X422910Y361874D03*
D247*
X437426Y361874D03*
D175*
X455943Y361874D03*
D269*
X238087Y362102D03*
D176*
X265519Y362102D03*
D264*
X303238Y362102D03*
D59*
X324612Y362102D03*
D185*
X337756Y362102D03*
D270*
X353301Y362102D03*
D63*
X370103Y362102D03*
D60*
X383705Y362102D03*
X396964Y362102D03*
X411137Y362102D03*
D17*
X422910Y362102D03*
D265*
X437083Y362102D03*
D271*
X456171Y362102D03*
D84*
X237058Y362331D03*
D262*
X265519Y362331D03*
X303238Y362331D03*
D68*
X324841Y362331D03*
D16*
X337756Y362331D03*
D235*
X353301Y362331D03*
D73*
X370446Y362331D03*
D43*
X383362Y362331D03*
X397307Y362331D03*
X410794Y362331D03*
D19*
X422910Y362331D03*
D244*
X437198Y362331D03*
D137*
X456286Y362331D03*
D79*
X236944Y362560D03*
D262*
X265519Y362560D03*
X303238Y362560D03*
D68*
X324841Y362560D03*
D16*
X337756Y362560D03*
D235*
X353301Y362560D03*
D73*
X370446Y362560D03*
D43*
X383362Y362560D03*
X397307Y362560D03*
X410794Y362560D03*
D19*
X422910Y362560D03*
D251*
X437312Y362560D03*
D137*
X456286Y362560D03*
D40*
X235915Y362788D03*
D272*
X249060Y362788D03*
D250*
X265747Y362788D03*
D262*
X303238Y362788D03*
D15*
X325069Y362788D03*
D20*
X337528Y362788D03*
D138*
X353301Y362788D03*
D227*
X376961Y362788D03*
D101*
X397764Y362788D03*
D70*
X410451Y362788D03*
D19*
X422910Y362788D03*
D251*
X437312Y362788D03*
D137*
X456286Y362788D03*
D83*
X234658Y363017D03*
D36*
X247917Y363017D03*
D273*
X265862Y363017D03*
D262*
X303238Y363017D03*
D257*
X325183Y363017D03*
D21*
X337414Y363017D03*
D230*
X353301Y363017D03*
D227*
X376961Y363017D03*
D155*
X404050Y363017D03*
D19*
X422910Y363017D03*
D251*
X437312Y363017D03*
D137*
X456743Y363017D03*
D274*
X234658Y363245D03*
D50*
X247917Y363245D03*
D167*
X265747Y363245D03*
D264*
X303238Y363245D03*
D260*
X325183Y363245D03*
D77*
X337299Y363245D03*
D183*
X353301Y363245D03*
D232*
X376961Y363245D03*
D275*
X403936Y363245D03*
D17*
X422910Y363245D03*
D276*
X437198Y363245D03*
D177*
X456743Y363245D03*
D68*
X246659Y363474D03*
D277*
X265633Y363474D03*
D262*
X303238Y363474D03*
D257*
X325183Y363474D03*
D41*
X337071Y363474D03*
D143*
X353301Y363474D03*
D152*
X377190Y363474D03*
D154*
X403822Y363474D03*
D19*
X422910Y363474D03*
D266*
X437083Y363474D03*
D137*
X456743Y363474D03*
D73*
X245631Y363703D03*
D219*
X265862Y363703D03*
D262*
X303238Y363703D03*
D126*
X325641Y363703D03*
D79*
X336842Y363703D03*
D145*
X353530Y363703D03*
D152*
X377190Y363703D03*
D154*
X403822Y363703D03*
D19*
X422910Y363703D03*
D266*
X437083Y363703D03*
D137*
X456743Y363703D03*
D43*
X245516Y363931D03*
D219*
X265862Y363931D03*
D262*
X303238Y363931D03*
D126*
X325641Y363931D03*
D79*
X336842Y363931D03*
D145*
X353530Y363931D03*
D152*
X377190Y363931D03*
D154*
X403822Y363931D03*
D19*
X422910Y363931D03*
D266*
X437083Y363931D03*
D137*
X456743Y363931D03*
D172*
X244373Y364160D03*
D164*
X265862Y364160D03*
D262*
X303238Y364160D03*
D21*
X325984Y364160D03*
D119*
X336499Y364160D03*
D201*
X353301Y364160D03*
D152*
X377419Y364160D03*
D227*
X403708Y364160D03*
D19*
X422910Y364160D03*
D266*
X437083Y364160D03*
D137*
X456743Y364160D03*
D193*
X243116Y364388D03*
D163*
X265976Y364388D03*
D264*
X303238Y364388D03*
D139*
X331584Y364388D03*
D225*
X353301Y364388D03*
D226*
X377419Y364388D03*
D232*
X403708Y364388D03*
D17*
X422910Y364388D03*
D265*
X437083Y364388D03*
D177*
X456743Y364388D03*
D266*
X243002Y364617D03*
D162*
X266090Y364617D03*
D262*
X303238Y364617D03*
D218*
X331584Y364617D03*
D201*
X353301Y364617D03*
D152*
X377419Y364617D03*
D227*
X403708Y364617D03*
D19*
X422910Y364617D03*
D266*
X437083Y364617D03*
D137*
X456743Y364617D03*
D175*
X242430Y364846D03*
D162*
X266090Y364846D03*
D262*
X303238Y364846D03*
D218*
X331584Y364846D03*
D43*
X347929Y364846D03*
X358673Y364846D03*
D152*
X377419Y364846D03*
D227*
X403708Y364846D03*
D19*
X422910Y364846D03*
D266*
X437083Y364846D03*
D235*
X456857Y364846D03*
X242430Y365074D03*
D233*
X265976Y365074D03*
D262*
X303238Y365074D03*
D137*
X331470Y365074D03*
D73*
X347815Y365074D03*
X358788Y365074D03*
D151*
X377647Y365074D03*
D152*
X403479Y365074D03*
D19*
X422910Y365074D03*
D266*
X437083Y365074D03*
D235*
X456857Y365074D03*
D137*
X242316Y365303D03*
D233*
X265976Y365303D03*
D262*
X303238Y365303D03*
D137*
X331470Y365303D03*
D73*
X347815Y365303D03*
X358788Y365303D03*
D151*
X377647Y365303D03*
D152*
X403479Y365303D03*
D19*
X422910Y365303D03*
D266*
X437083Y365303D03*
D235*
X456857Y365303D03*
D209*
X242545Y365531D03*
D278*
X266205Y365531D03*
D264*
X303238Y365531D03*
D271*
X331356Y365531D03*
D97*
X347815Y365531D03*
X358788Y365531D03*
D205*
X377761Y365531D03*
D226*
X403479Y365531D03*
D23*
X423139Y365531D03*
D265*
X437083Y365531D03*
D271*
X456857Y365531D03*
D202*
X242545Y365760D03*
D234*
X266205Y365760D03*
D262*
X303238Y365760D03*
D175*
X331584Y365760D03*
D35*
X347586Y365760D03*
X359016Y365760D03*
D150*
X377761Y365760D03*
D217*
X403365Y365760D03*
D21*
X423139Y365760D03*
D266*
X437083Y365760D03*
D175*
X457086Y365760D03*
D202*
X242545Y365989D03*
D228*
X266205Y365989D03*
D262*
X303238Y365989D03*
D175*
X331584Y365989D03*
D35*
X347586Y365989D03*
X359016Y365989D03*
D148*
X377876Y365989D03*
D217*
X403365Y365989D03*
D21*
X423139Y365989D03*
D266*
X437083Y365989D03*
D175*
X457086Y365989D03*
D140*
X242545Y366217D03*
D228*
X266205Y366217D03*
D262*
X303238Y366217D03*
D85*
X331470Y366217D03*
D47*
X347472Y366217D03*
X359131Y366217D03*
D200*
X377990Y366217D03*
D150*
X403136Y366217D03*
D21*
X423139Y366217D03*
D251*
X437312Y366217D03*
D175*
X457086Y366217D03*
D142*
X242773Y366446D03*
D157*
X266433Y366446D03*
D262*
X303238Y366446D03*
D121*
X331356Y366446D03*
D21*
X347243Y366446D03*
X359359Y366446D03*
D147*
X378104Y366446D03*
D150*
X403136Y366446D03*
D21*
X423139Y366446D03*
D251*
X437312Y366446D03*
D175*
X457086Y366446D03*
D261*
X242773Y366674D03*
D223*
X266433Y366674D03*
D264*
X303238Y366674D03*
D279*
X331470Y366674D03*
D23*
X347243Y366674D03*
X359359Y366674D03*
D207*
X378104Y366674D03*
D205*
X403136Y366674D03*
D23*
X423139Y366674D03*
D280*
X437312Y366674D03*
D281*
X457086Y366674D03*
D188*
X242773Y366903D03*
D245*
X266319Y366903D03*
D262*
X303238Y366903D03*
D244*
X331356Y366903D03*
D41*
X347129Y366903D03*
D20*
X359473Y366903D03*
D203*
X378562Y366903D03*
D148*
X403022Y366903D03*
D47*
X422910Y366903D03*
D251*
X437312Y366903D03*
D175*
X457086Y366903D03*
D145*
X242659Y367132D03*
D245*
X266319Y367132D03*
D262*
X303238Y367132D03*
D266*
X331470Y367132D03*
D16*
X346900Y367132D03*
D20*
X359473Y367132D03*
D201*
X378676Y367132D03*
D203*
X402793Y367132D03*
D47*
X422910Y367132D03*
D251*
X437312Y367132D03*
D175*
X457086Y367132D03*
D145*
X242659Y367360D03*
D155*
X266433Y367360D03*
D262*
X303238Y367360D03*
D266*
X331470Y367360D03*
D16*
X346900Y367360D03*
D20*
X359473Y367360D03*
D201*
X378676Y367360D03*
D203*
X402793Y367360D03*
D47*
X422910Y367360D03*
D251*
X437312Y367360D03*
D267*
X457200Y367360D03*
D201*
X242887Y367589D03*
D282*
X266548Y367589D03*
D262*
X303238Y367589D03*
D247*
X331584Y367589D03*
D16*
X346900Y367589D03*
X359702Y367589D03*
D145*
X378905Y367589D03*
D201*
X402679Y367589D03*
D47*
X422910Y367589D03*
D251*
X437312Y367589D03*
D267*
X457200Y367589D03*
D259*
X242887Y367817D03*
D232*
X266548Y367817D03*
D63*
X293294Y367817D03*
X313182Y367817D03*
D283*
X331470Y367817D03*
D128*
X346786Y367817D03*
X359816Y367817D03*
D99*
X374904Y367817D03*
D128*
X385191Y367817D03*
D144*
X402450Y367817D03*
D63*
X422910Y367817D03*
D280*
X437312Y367817D03*
D284*
X457200Y367817D03*
D200*
X242887Y368046D03*
D227*
X266548Y368046D03*
D47*
X293294Y368046D03*
X313182Y368046D03*
D135*
X331470Y368046D03*
D69*
X346786Y368046D03*
X359816Y368046D03*
D96*
X374904Y368046D03*
D69*
X385191Y368046D03*
D145*
X402450Y368046D03*
D47*
X422910Y368046D03*
D251*
X437312Y368046D03*
D267*
X457200Y368046D03*
D148*
X243002Y368275D03*
D152*
X266776Y368275D03*
D21*
X293065Y368275D03*
X313411Y368275D03*
D285*
X331356Y368275D03*
D15*
X346558Y368275D03*
D69*
X359816Y368275D03*
D101*
X374904Y368275D03*
D24*
X384962Y368275D03*
D16*
X396278Y368275D03*
D78*
X406679Y368275D03*
D47*
X422910Y368275D03*
D174*
X437655Y368275D03*
D267*
X457200Y368275D03*
D150*
X243116Y368503D03*
D151*
X266548Y368503D03*
D21*
X293065Y368503D03*
X313411Y368503D03*
D191*
X331584Y368503D03*
D14*
X346443Y368503D03*
D24*
X360045Y368503D03*
D43*
X375133Y368503D03*
D71*
X384620Y368503D03*
D16*
X396278Y368503D03*
D43*
X406679Y368503D03*
D47*
X422910Y368503D03*
D286*
X438340Y368503D03*
D287*
X457086Y368503D03*
D151*
X243002Y368732D03*
X266548Y368732D03*
D21*
X293065Y368732D03*
X313411Y368732D03*
D191*
X331584Y368732D03*
D14*
X346443Y368732D03*
D24*
X360045Y368732D03*
D43*
X375133Y368732D03*
D180*
X384619Y368732D03*
D16*
X396278Y368732D03*
D43*
X406679Y368732D03*
D47*
X422910Y368732D03*
D286*
X438340Y368732D03*
D85*
X456971Y368732D03*
D226*
X243002Y368960D03*
D205*
X266662Y368960D03*
D23*
X293065Y368960D03*
X313411Y368960D03*
D74*
X331470Y368960D03*
D288*
X346215Y368960D03*
D98*
X360845Y368960D03*
D23*
X375133Y368960D03*
D62*
X384048Y368960D03*
D185*
X396278Y368960D03*
D63*
X406451Y368960D03*
D108*
X420052Y368960D03*
D129*
X425996Y368960D03*
D185*
X435826Y368960D03*
D178*
X443484Y368960D03*
D52*
X451485Y368960D03*
D129*
X463944Y368960D03*
D227*
X243230Y369189D03*
D200*
X266890Y369189D03*
D21*
X293065Y369189D03*
X313411Y369189D03*
D43*
X331470Y369189D03*
D257*
X375247Y369189D03*
D29*
X383134Y369189D03*
D16*
X396278Y369189D03*
X406565Y369189D03*
D257*
X435597Y369189D03*
D48*
X449656Y369189D03*
D227*
X243230Y369418D03*
D203*
X266776Y369418D03*
D21*
X293065Y369418D03*
X313411Y369418D03*
D43*
X331470Y369418D03*
D257*
X375247Y369418D03*
D29*
X383134Y369418D03*
D16*
X396278Y369418D03*
X406565Y369418D03*
D257*
X435597Y369418D03*
D48*
X449656Y369418D03*
D246*
X243230Y369646D03*
D201*
X266890Y369646D03*
D21*
X293065Y369646D03*
D79*
X313525Y369646D03*
D21*
X331470Y369646D03*
D12*
X375475Y369646D03*
D16*
X396278Y369646D03*
D180*
X406108Y369646D03*
D257*
X435597Y369646D03*
D246*
X243230Y369875D03*
D201*
X266890Y369875D03*
D21*
X293065Y369875D03*
D79*
X313525Y369875D03*
D71*
X331584Y369875D03*
D289*
X375704Y369875D03*
D16*
X396278Y369875D03*
D83*
X406108Y369875D03*
D257*
X435597Y369875D03*
D248*
X243230Y370103D03*
D254*
X267005Y370103D03*
D23*
X293065Y370103D03*
D22*
X313525Y370103D03*
D112*
X331584Y370103D03*
D185*
X396278Y370103D03*
D88*
X406108Y370103D03*
D260*
X435597Y370103D03*
D245*
X243459Y370332D03*
D198*
X266890Y370332D03*
D21*
X293065Y370332D03*
D79*
X313525Y370332D03*
D28*
X331813Y370332D03*
D16*
X396278Y370332D03*
D83*
X423253Y370332D03*
D257*
X435597Y370332D03*
D157*
X243345Y370561D03*
D142*
X267005Y370561D03*
D79*
X293180Y370561D03*
X313525Y370561D03*
D16*
X396278Y370561D03*
D12*
X423024Y370561D03*
D257*
X435597Y370561D03*
D157*
X243345Y370789D03*
D142*
X267005Y370789D03*
D47*
X293294Y370789D03*
D79*
X313525Y370789D03*
D16*
X396278Y370789D03*
D37*
X423139Y370789D03*
D257*
X435597Y370789D03*
D290*
X243459Y371018D03*
D140*
X267233Y371018D03*
D47*
X293294Y371018D03*
D79*
X313525Y371018D03*
D16*
X396278Y371018D03*
D180*
X423253Y371018D03*
D257*
X435597Y371018D03*
D159*
X243459Y371246D03*
D139*
X267119Y371246D03*
D63*
X293294Y371246D03*
D22*
X313525Y371246D03*
D185*
X396278Y371246D03*
D115*
X423253Y371246D03*
D128*
X435712Y371246D03*
D158*
X243459Y371475D03*
D218*
X267119Y371475D03*
D47*
X293294Y371475D03*
D79*
X313525Y371475D03*
D16*
X396278Y371475D03*
D15*
X423139Y371475D03*
D16*
X435826Y371475D03*
D234*
X243573Y371704D03*
D291*
X267233Y371704D03*
D47*
X293294Y371704D03*
D79*
X313525Y371704D03*
D19*
X396392Y371704D03*
D69*
X423139Y371704D03*
D16*
X435826Y371704D03*
D229*
X243688Y371932D03*
D136*
X267233Y371932D03*
D47*
X293294Y371932D03*
D79*
X313525Y371932D03*
D41*
X396507Y371932D03*
D16*
X423024Y371932D03*
X435826Y371932D03*
D233*
X243802Y372161D03*
D136*
X267233Y372161D03*
D47*
X293294Y372161D03*
D79*
X313525Y372161D03*
D41*
X396507Y372161D03*
D16*
X423024Y372161D03*
X435826Y372161D03*
D292*
X243573Y372389D03*
D281*
X267348Y372389D03*
D63*
X293294Y372389D03*
D22*
X313525Y372389D03*
D23*
X396392Y372389D03*
X423139Y372389D03*
D185*
X435826Y372389D03*
D162*
X243688Y372618D03*
D197*
X266662Y372618D03*
D47*
X293294Y372618D03*
D79*
X313525Y372618D03*
D21*
X396392Y372618D03*
X423139Y372618D03*
D16*
X435826Y372618D03*
D162*
X243688Y372847D03*
D244*
X266662Y372847D03*
D47*
X293294Y372847D03*
D79*
X313525Y372847D03*
D21*
X396392Y372847D03*
X423139Y372847D03*
D16*
X435826Y372847D03*
D165*
X243802Y373075D03*
D293*
X265519Y373075D03*
D47*
X293294Y373075D03*
D79*
X313525Y373075D03*
D21*
X396392Y373075D03*
X423139Y373075D03*
D19*
X435712Y373075D03*
D243*
X243916Y373304D03*
D237*
X264376Y373304D03*
D47*
X293294Y373304D03*
D79*
X313525Y373304D03*
D21*
X396392Y373304D03*
X423139Y373304D03*
D41*
X435597Y373304D03*
D294*
X243916Y373532D03*
D49*
X264262Y373532D03*
D63*
X293294Y373532D03*
D22*
X313525Y373532D03*
D23*
X396392Y373532D03*
X423139Y373532D03*
D77*
X435597Y373532D03*
D243*
X243916Y373761D03*
D257*
X263233Y373761D03*
D35*
X293179Y373761D03*
D79*
X313525Y373761D03*
D21*
X396392Y373761D03*
D47*
X422910Y373761D03*
D41*
X435597Y373761D03*
D273*
X243916Y373990D03*
D30*
X261976Y373990D03*
D35*
X293179Y373990D03*
D47*
X313411Y373990D03*
D21*
X396392Y373990D03*
D47*
X422910Y373990D03*
D41*
X435597Y373990D03*
D273*
X243916Y374218D03*
D30*
X261976Y374218D03*
D35*
X293179Y374218D03*
X313296Y374218D03*
D21*
X396392Y374218D03*
D47*
X422910Y374218D03*
D41*
X435597Y374218D03*
D250*
X244030Y374447D03*
D102*
X260833Y374447D03*
D35*
X293179Y374447D03*
X313296Y374447D03*
D21*
X396392Y374447D03*
D47*
X422910Y374447D03*
D41*
X435597Y374447D03*
D295*
X244145Y374675D03*
D60*
X293179Y374675D03*
X313296Y374675D03*
D23*
X396392Y374675D03*
D63*
X422910Y374675D03*
D77*
X435597Y374675D03*
D170*
X244145Y374904D03*
D35*
X293179Y374904D03*
X313296Y374904D03*
D21*
X396392Y374904D03*
D79*
X423024Y374904D03*
D19*
X435712Y374904D03*
D170*
X244145Y375133D03*
D35*
X293179Y375133D03*
X313296Y375133D03*
D21*
X396392Y375133D03*
X423139Y375133D03*
D16*
X435826Y375133D03*
D170*
X244145Y375361D03*
D35*
X293179Y375361D03*
X313296Y375361D03*
D21*
X396392Y375361D03*
X423139Y375361D03*
D257*
X435597Y375361D03*
D173*
X244259Y375590D03*
D35*
X293179Y375590D03*
X313296Y375590D03*
D21*
X396392Y375590D03*
X423139Y375590D03*
D257*
X435597Y375590D03*
D182*
X244030Y375818D03*
D125*
X293294Y375818D03*
D60*
X313296Y375818D03*
D23*
X396392Y375818D03*
X423139Y375818D03*
D296*
X434569Y375818D03*
D297*
X243916Y376047D03*
D119*
X293294Y376047D03*
D35*
X313296Y376047D03*
D21*
X396392Y376047D03*
D16*
X423024Y376047D03*
D32*
X433426Y376047D03*
D297*
X243916Y376276D03*
D119*
X293294Y376276D03*
D35*
X313296Y376276D03*
D21*
X396392Y376276D03*
D16*
X423024Y376276D03*
D42*
X433311Y376276D03*
D199*
X243802Y376504D03*
D119*
X293294Y376504D03*
D35*
X313296Y376504D03*
D21*
X396392Y376504D03*
D69*
X422910Y376504D03*
D134*
X432625Y376504D03*
D173*
X243573Y376733D03*
D119*
X293294Y376733D03*
D35*
X313296Y376733D03*
D21*
X396392Y376733D03*
D15*
X423139Y376733D03*
D176*
X243573Y376961D03*
D125*
X293294Y376961D03*
D60*
X313296Y376961D03*
D23*
X396392Y376961D03*
D115*
X423024Y376961D03*
D173*
X243573Y377190D03*
D119*
X293294Y377190D03*
D35*
X313296Y377190D03*
D21*
X396392Y377190D03*
D71*
X423024Y377190D03*
D199*
X243345Y377419D03*
D119*
X293294Y377419D03*
D35*
X313296Y377419D03*
D79*
X396278Y377419D03*
D37*
X422910Y377419D03*
D199*
X243345Y377647D03*
D119*
X293294Y377647D03*
D35*
X313296Y377647D03*
D47*
X396164Y377647D03*
D12*
X423024Y377647D03*
D179*
X243230Y377876D03*
D119*
X293294Y377876D03*
D35*
X313296Y377876D03*
D47*
X396164Y377876D03*
D31*
X423024Y377876D03*
D192*
X243230Y378104D03*
D125*
X293294Y378104D03*
D60*
X313296Y378104D03*
D63*
X396164Y378104D03*
D298*
X422910Y378104D03*
D179*
X243230Y378333D03*
D119*
X293294Y378333D03*
D35*
X313296Y378333D03*
D47*
X396164Y378333D03*
D27*
X423024Y378333D03*
D173*
X242888Y378562D03*
D119*
X293294Y378562D03*
D79*
X313525Y378562D03*
D47*
X396164Y378562D03*
D173*
X242888Y378790D03*
D134*
X289750Y378790D03*
X296837Y378790D03*
X309867Y378790D03*
X316725Y378790D03*
D21*
X396392Y378790D03*
D173*
X242888Y379019D03*
D110*
X289636Y379019D03*
X296951Y379019D03*
X309982Y379019D03*
X316840Y379019D03*
D21*
X396392Y379019D03*
D182*
X242659Y379247D03*
D127*
X397307Y379247D03*
D179*
X242545Y379476D03*
D33*
X399021Y379476D03*
D179*
X242545Y379705D03*
D25*
X399136Y379705D03*
D179*
X242545Y379933D03*
D169*
X242545Y380162D03*
D295*
X242545Y380390D03*
D250*
X242659Y380619D03*
D168*
X242887Y380848D03*
X242887Y381076D03*
D277*
X242773Y381305D03*
D299*
X242887Y381533D03*
D166*
X242887Y381762D03*
D164*
X243002Y381991D03*
D162*
X243002Y382219D03*
X243002Y382448D03*
D300*
X243002Y382676D03*
D233*
X243116Y382905D03*
X243116Y383134D03*
D160*
X243230Y383362D03*
D158*
X243459Y383591D03*
D301*
X243345Y383819D03*
D290*
X243230Y384048D03*
D157*
X243345Y384277D03*
X243345Y384505D03*
D245*
X243459Y384734D03*
D302*
X243459Y384962D03*
D155*
X243573Y385191D03*
D246*
X243459Y385420D03*
D211*
X243573Y385648D03*
X243573Y385877D03*
D226*
X243688Y386105D03*
D151*
X243688Y386334D03*
D150*
X243802Y386563D03*
X243802Y386791D03*
D148*
X243916Y387020D03*
D259*
X243802Y387248D03*
D303*
X243916Y387477D03*
X243916Y387706D03*
D145*
X244031Y387934D03*
D188*
X243916Y388163D03*
D261*
X244145Y388391D03*
D142*
X244145Y388620D03*
D230*
X244259Y388849D03*
D218*
X244030Y389077D03*
D202*
X244145Y389306D03*
D224*
X244259Y389534D03*
D235*
X244259Y389763D03*
X244259Y389992D03*
D175*
X244488Y390220D03*
D244*
X243573Y390449D03*
D276*
X243573Y390677D03*
D285*
X242430Y390906D03*
D43*
X241402Y391135D03*
D73*
X241287Y391363D03*
D15*
X240259Y391592D03*
D62*
X238887Y391820D03*
D31*
X239001Y392049D03*
D272*
X237858Y392278D03*
M02*
